<?xml version="1.0" encoding="UTF-8" standalone="no"?>
<svg xmlns:rdf="http://www.w3.org/1999/02/22-rdf-syntax-ns#" xmlns="http://www.w3.org/2000/svg" height="128" width="128" version="1.1" xmlns:cc="http://creativecommons.org/ns#" xmlns:xlink="http://www.w3.org/1999/xlink" viewBox="0 0 36.124445 36.124445" xmlns:dc="http://purl.org/dc/elements/1.1/">
 <title>Bitcoin Cash accepted here</title>
 <defs>
  <linearGradient id="a">
   <stop stop-color="#f6f5e9" offset="0"/>
   <stop stop-color="#c4bea5" offset=".1619"/>
   <stop stop-color="#fcffec" offset=".3057"/>
   <stop stop-color="#dfece8" offset=".5130"/>
   <stop stop-color="#c9dda4" offset=".6102"/>
   <stop stop-color="#f7f5e3" offset=".7939"/>
   <stop stop-color="#cfe2d8" offset=".9229"/>
   <stop stop-color="#f6f4e4" offset="1"/>
  </linearGradient>
  <linearGradient id="e" y2="8.331" gradientUnits="userSpaceOnUse" x2="14.33" gradientTransform="matrix(.7689 0 0 .7689 -10.78 4.08)" y1="54.71" x1="14.33">
   <stop stop-color="#dddddc" offset="0"/>
   <stop stop-color="#fefefe" offset="1"/>
  </linearGradient>
  <radialGradient id="c" gradientUnits="userSpaceOnUse" cy="9.283" cx="98.2" gradientTransform="matrix(-2.216 4.799 -12.48 -6.808 365.8 -340.7)" r="17.22">
   <stop stop-color="#9fd998" offset="0"/>
   <stop stop-color="#559360" offset=".06512"/>
   <stop stop-color="#7bbf6c" offset=".1977"/>
   <stop stop-color="#a0d999" offset=".2222"/>
   <stop stop-color="#6f9f6a" offset=".4268"/>
   <stop stop-color="#73b366" offset=".5081"/>
   <stop stop-color="#91d186" offset="0.54"/>
   <stop stop-color="#6ca977" offset=".6248"/>
   <stop stop-color="#a7df9b" offset=".7179"/>
   <stop stop-color="#fff" offset="1"/>
  </radialGradient>
  <radialGradient id="b" gradientUnits="userSpaceOnUse" cy="35.62" cx="37.47" gradientTransform="matrix(1.419 .009213 .01350 .1893 -35.5 23.88)" r="7.62">
   <stop stop-color="#546b56" offset="0"/>
   <stop stop-color="#ececeb" offset="1"/>
  </radialGradient>
  <radialGradient id="d" gradientUnits="userSpaceOnUse" cy="24.91" cx="80.91" gradientTransform="matrix(-.5464 -.8050 .7707 -.5231 51.85 107.7)" r="2.38">
   <stop stop-opacity=".5055" offset="0"/>
   <stop stop-opacity=".1404" offset=".6284"/>
   <stop stop-opacity=".07602" offset=".7504"/>
   <stop stop-opacity="0" offset="1"/>
  </radialGradient>
  <linearGradient id="g" y2="6.584" xlink:href="#a" gradientUnits="userSpaceOnUse" x2="76.5" gradientTransform="matrix(2.448 0 0 2.334 -107.7 9.826)" y1="27.14" x1="62.44"/>
  <linearGradient id="f" y2="26.7" xlink:href="#a" gradientUnits="userSpaceOnUse" x2="24.27" gradientTransform="translate(-.05843 -.05402)" y1="30.54" x1="27.34"/>
 </defs>
 <metadata>
  <rdf:RDF>
   <cc:Work rdf:about="">
    <dc:format>image/svg+xml</dc:format>
    <dc:type rdf:resource="http://purl.org/dc/dcmitype/StillImage"/>
    <dc:title>Bitcoin Cash accepted here</dc:title>
    <dc:date>27.07.2018</dc:date>
    <dc:creator>
     <cc:Agent>
      <dc:title>Aleksander Erstu</dc:title>
     </cc:Agent>
    </dc:creator>
    <dc:rights>
     <cc:Agent>
      <dc:title>Copyright (c) 2018 Aleksander Erstu, Licensed under The MIT License (MIT)</dc:title>
     </cc:Agent>
    </dc:rights>
    <dc:publisher>
     <cc:Agent>
      <dc:title>CryptoGraffiti.info</dc:title>
     </cc:Agent>
    </dc:publisher>
    <dc:identifier>cash.svg</dc:identifier>
    <dc:source>CryptoGraffiti.info</dc:source>
    <dc:relation>matches with core.svg</dc:relation>
    <dc:language>english</dc:language>
    <dc:subject>
     <rdf:Bag>
      <rdf:li>bitcoin cash</rdf:li>
     </rdf:Bag>
    </dc:subject>
    <dc:coverage>World Wide Web</dc:coverage>
    <dc:description>An image of a paper money and the text: &quot;Bitcoin Cash accepted here&quot;.</dc:description>
    <dc:contributor>
     <cc:Agent>
      <dc:title>Aleksander Erstu (Initial work)</dc:title>
     </cc:Agent>
    </dc:contributor>
   </cc:Work>
  </rdf:RDF>
 </metadata>
 <g transform="translate(-.000004306 -10.25)">
  <g>
   <rect stroke-opacity=".9922" rx="0" ry="0" height="35.66" width="35.66" stroke="#b2b2b2" stroke-linecap="square" y="10.49" x=".2337" stroke-width=".4674" fill="url(#e)"/>
   <ellipse rx="11.25" ry="1.393" cy="30.76" cx="18.65" fill="url(#b)"/>
   <path d="m100.2 29.52-72.16 1.12-0.85 39.54 68.71-1.65z" transform="matrix(.2822 0 0 .2822 .000003230 10.25)" fill="url(#c)"/>
   <path stroke-linejoin="round" d="m77.69 67.93s9.979-6.245 9.051-19.38c-0.8014-11.35-9.807-16.33-9.807-16.33 7.547-0.7675 5.447 2.919 18.25 0.2559 0.5431 2.918-0.2493 5.191 0.2676 7.65 2.081 9.904-2.372 13.58 0.2646 28.25-5.284 1.338-18.03-0.4463-18.03-0.4463zm23.02-2.982c-1.807-7.365 2.03-12.31 0.127-22.07-0.7043-3.611 0.8627-7.434 0.084-15.22-31.3 4.726-8.239-0.3972-39.69 1.078-11.44 0.5368-27.35 0.4087-33.88-0.7246-3.8 17.13 1.334 30.43-0.8887 42.71 7.313 1.916 19.35 1.414 36.49 0.9883 10.73-0.2664 18.55 1.12 25.89 1.395zm-68.49-33.24c5.539 0.6819 18.71 0.707 18.71 0.707s-9.066 5.31-10.48 17.15c-1.489 12.43 8.539 18.72 8.539 18.72s-15.01 0.1204-16.99-1.08c1.307-12.52-2.378-20.52 0.2207-35.5zm31.73 1.16c8.522-0.02036 17.62 7.496 17.73 15.98 0.1334 10.32-7.273 19.25-18.95 19.14-11.68-0.1124-18.54-8.498-17.34-18.43 0.9601-7.951 6.804-16.67 18.56-16.7zm-0.7441 4.557-2.738 0.3027 0.8203 3.553c-0.3985 0.04631-0.7978 0.09259-1.197 0.1445l-0.8203-3.568-2.742 0.3008 0.8418 3.65c-1.417 0.1726-2.931 0.3235-4.41 0.4844l0.6738 2.91c0.6831-0.07544 1.297-0.1388 1.832-0.1992 0.3883-0.04397 0.6328 0.04055 0.8145 0.168 0.1783 0.125 0.3006 0.3056 0.3809 0.4902 0.7657 3.308 1.531 6.615 2.293 9.924 0.0086 0.1091-0.0074 0.2384-0.05469 0.3242-0.04876 0.08865-0.1133 0.1606-0.3555 0.1875-0.6179 0.07023-1.237 0.1399-1.855 0.207l0.2168 3.248c1.46-0.1625 3.073-0.3406 4.453-0.4785l0.8574 3.688 2.738-0.2969-0.8418-3.648c0.4061-0.03767 0.8079-0.07715 1.197-0.1191l0.8418 3.633 2.738-0.2969-0.8633-3.752c1.687-0.3112 3.166-0.7241 4.15-1.551 1.05-0.8814 1.552-2.206 1.299-4.039-0.2029-1.47-0.7333-2.522-1.504-3.25-1.196-1.129-2.367-1.092-2.367-1.092s0.6129-0.3008 0.8848-1.383c0.1942-0.7728 0.157-1.71-0.3281-2.873-0.5014-1.202-1.366-1.983-2.459-2.436-1.027-0.4253-2.28-0.5382-3.639-0.5293zm-0.3926 6.959c0.2456-0.006 0.4984-0.000484 0.75 0.02148 0.5617 0.04951 1.092 0.1827 1.498 0.4375 0.4063 0.2548 0.6998 0.6182 0.8359 1.207 0.129 0.5591 0.0164 0.9265-0.2422 1.234-0.2585 0.3079-0.6956 0.5501-1.203 0.7227-0.9328 0.3171-2.007 0.381-2.684 0.4473l-0.8906-3.865c0.5113-0.06658 1.199-0.187 1.936-0.2051zm1.975 6.621c0.3042-0.0092 0.6155-0.009 0.9258 0.01367 0.6783 0.04976 1.317 0.1924 1.807 0.4746 0.4896 0.2822 0.8367 0.6901 0.9863 1.338 0.1423 0.6151 0.001 1.02-0.3242 1.373-0.3252 0.3527-0.8639 0.6331-1.482 0.832-1.154 0.3712-2.485 0.4562-3.287 0.5371l-0.998-4.32c0.607-0.07661 1.46-0.2197 2.373-0.248z" fill-rule="evenodd" transform="matrix(.2822 0 0 .2822 .000003230 10.25)" stroke="#607a62" stroke-linecap="round" stroke-width=".5528" fill="url(#g)"/>
   <path d="m25.05 30.8c-0.4784-0.02283-2.264-1.23 0.4897-3.147s2.616 0.3084 2.792 0.8899z" fill-rule="evenodd" fill="url(#d)"/>
  </g>
  <g fill-opacity=".9922" transform="matrix(.7789 0 0 .7789 -1.845e-7 10.25)" fill="#fff">
   <path fill-opacity=".9922" fill="#fff" d="m36.22 40.06 0.6979-2.913h1.808l-0.1051 0.4414h-1.282l-0.1724 0.7315h1.135l-0.1051 0.433h-1.131l-0.2102 0.866h1.379l-0.1051 0.4414h-1.909zm-1.15-2.94q0.5213 0 0.7904 0.2186 0.2733 0.2144 0.2733 0.5718 0 0.1598-0.04624 0.3069-0.04204 0.1429-0.1387 0.2691-0.09249 0.1219-0.2438 0.2186-0.1471 0.09669-0.3573 0.1598 0.05465 0.09669 0.1177 0.2354 0.06306 0.1345 0.1303 0.2943 0.06727 0.1556 0.1303 0.3279 0.06306 0.1724 0.1135 0.3405h-0.5591q-0.05045-0.1513-0.1051-0.3069t-0.1135-0.2985q-0.05886-0.1471-0.1219-0.2733-0.05886-0.1303-0.1177-0.2312-0.03784 0.0042-0.09249 0.0042t-0.09669 0h-0.2438l-0.2649 1.106h-0.5297l0.6853-2.871q0.2018-0.04204 0.4078-0.05465 0.2102-0.01682 0.3826-0.01682zm0.5255 0.8492q0-0.2312-0.1682-0.3153-0.1682-0.08829-0.4498-0.08829-0.05886 0-0.1261 0.0042-0.06727 0.0042-0.1345 0.01261l-0.227 0.9501h0.2354q0.1892 0 0.3489-0.02943 0.1598-0.03363 0.2733-0.1009 0.1177-0.06727 0.1808-0.1724 0.06726-0.1093 0.06726-0.2607zm-4.407 2.094 0.6979-2.913h1.808l-0.1051 0.4414h-1.282l-0.1724 0.7315h1.135l-0.1051 0.433h-1.131l-0.2102 0.866h1.379l-0.1051 0.4414h-1.909zm-0.5016-2.913h0.5297l-0.6979 2.913h-0.5297l0.3111-1.295h-1.194l-0.3111 1.295h-0.5297l0.6979-2.913h0.5297l-0.2817 1.169h1.194l0.2817-1.169zm-5.728 2.48q0.04624 0.0084 0.1051 0.01261 0.06306 0 0.1934 0 0.3027 0 0.5465-0.09669t0.412-0.2733q0.1724-0.1808 0.2649-0.4288 0.09249-0.2522 0.09249-0.5591 0-0.3321-0.1892-0.5255t-0.618-0.1934q-0.1093 0-0.1766 0.0042-0.06306 0.0042-0.1387 0.01261l-0.4919 2.047zm2.161-1.362q0 0.391-0.1261 0.7273t-0.3742 0.5802q-0.248 0.2438-0.6222 0.3826-0.37 0.1387-0.8618 0.1387-0.1766 0-0.3952-0.02102-0.2186-0.01682-0.4036-0.05886l0.6769-2.821q0.206-0.04624 0.4162-0.05886 0.2102-0.01682 0.3868-0.01682 0.3195 0 0.5633 0.08408 0.2438 0.07988 0.4078 0.2312 0.164 0.1471 0.248 0.3616 0.08408 0.2102 0.08408 0.4709zm-5.202 1.795 0.6979-2.913h1.808l-0.1051 0.4414h-1.282l-0.1724 0.7315h1.135l-0.1051 0.433h-1.131l-0.2102 0.866h1.379l-0.1051 0.4414h-1.909zm0.29-2.913-0.1093 0.4456h-0.866l-0.5928 2.468h-0.5297l0.5928-2.468h-0.866l0.1051-0.4456h2.266zm-3.74-0.03q0.5255 0 0.803 0.206 0.2817 0.206 0.2817 0.5886 0 0.3027-0.1177 0.5171-0.1135 0.2102-0.3195 0.3447-0.2018 0.1345-0.4877 0.1976-0.2817 0.05886-0.6222 0.05886h-0.227l-0.248 1.03h-0.5297l0.6853-2.871q0.2018-0.04204 0.4036-0.05465 0.2018-0.01682 0.3784-0.01682zm-0.05045 0.4456q-0.07988 0-0.1513 0.0042-0.07147 0.0042-0.1429 0.01261l-0.2396 1.005h0.2144q0.1766 0 0.3405-0.02943 0.164-0.02943 0.2901-0.09669 0.1261-0.07147 0.2018-0.1892 0.07567-0.1219 0.07567-0.3069 0-0.2144-0.1598-0.3069-0.1556-0.09249-0.4288-0.09249zm-3.823 2.497 0.6979-2.913h1.808l-0.1051 0.4414h-1.282l-0.1724 0.7315h1.135l-0.1051 0.433h-1.131l-0.2102 0.866h1.379l-0.1051 0.4414h-1.909zm-0.3509-0.1261q-0.1387 0.07147-0.3531 0.1303-0.2144 0.05886-0.5213 0.05886-0.2691 0-0.4793-0.07988-0.2102-0.08408-0.3573-0.2396-0.1471-0.1556-0.227-0.3742-0.07567-0.2186-0.07567-0.4919 0-0.3531 0.1177-0.6853 0.1177-0.3363 0.3405-0.597t0.5423-0.4162q0.3195-0.1598 0.7231-0.1598 0.2649 0 0.4582 0.05886 0.1976 0.05886 0.3447 0.1429l-0.2018 0.4246q-0.1345-0.07988-0.2901-0.1219-0.1513-0.04625-0.3447-0.04625-0.2649 0-0.4751 0.1177t-0.3616 0.3111q-0.1471 0.1892-0.227 0.433-0.07567 0.2438-0.07567 0.4961 0 0.391 0.1682 0.5802 0.1724 0.185 0.5003 0.185 0.2522 0 0.4288-0.05465 0.1766-0.05886 0.3027-0.1177l0.06306 0.4456zm-2.43 0q-0.1387 0.07147-0.3531 0.1303-0.2144 0.05886-0.5213 0.05886-0.2691 0-0.4793-0.07988-0.22-0.09-0.37-0.24-0.142-0.16-0.222-0.38-0.076-0.21-0.076-0.49 0-0.3531 0.1177-0.6853 0.1177-0.3363 0.3405-0.597t0.5423-0.4162q0.3195-0.1598 0.7231-0.1598 0.2649 0 0.4582 0.05886 0.1976 0.05886 0.3447 0.1429l-0.2018 0.4246q-0.1345-0.07988-0.2901-0.1219-0.1513-0.04625-0.3447-0.04625-0.2649 0-0.4751 0.1177t-0.3616 0.3111q-0.1471 0.1892-0.227 0.433-0.07567 0.2438-0.07567 0.4961 0 0.391 0.1682 0.5802 0.1724 0.185 0.5003 0.185 0.2522 0 0.4288-0.05465 0.1766-0.05886 0.3027-0.1177l0.06306 0.4456zm-2.938 0.1261q-0.01261-0.1766-0.02943-0.3489-0.01261-0.1766-0.02943-0.3405h-1.181q-0.09669 0.164-0.1934 0.3363-0.09249 0.1682-0.1892 0.3531h-0.5676q0.252-0.45 0.484-0.85 0.235-0.39 0.454-0.75 0.222-0.36 0.437-0.68 0.218-0.33 0.437-0.64h0.4919q0.1345 0.6264 0.2312 1.371 0.09669 0.7399 0.185 1.543h-0.5339zm-0.249-2.36q-0.1598 0.248-0.3573 0.5591-0.1934 0.3069-0.412 0.6895h0.9123q-0.025-0.3-0.063-0.61-0.033-0.32-0.08-0.64zm29.77-3.912v-4.801l0.7684-0.127v1.645q0.127-0.04445 0.2921-0.0762 0.1714-0.03175 0.3366-0.03175 0.4 0 0.6604 0.1143 0.2667 0.108 0.4254 0.3112 0.1588 0.1968 0.2222 0.4762 0.06985 0.2794 0.06985 0.6223v1.867h-0.7684v-1.746q0-0.2667-0.0381-0.4508-0.03175-0.1905-0.1143-0.3048-0.0762-0.1206-0.2096-0.1714-0.1334-0.05715-0.3302-0.05715-0.1524 0-0.3112 0.03175t-0.235 0.05715v2.642h-0.7684zm-2.353-0.5524q0.3048 0 0.4445-0.06985 0.1397-0.0762 0.1397-0.254 0-0.1651-0.1524-0.273-0.146-0.108-0.489-0.235-0.2096-0.0762-0.3874-0.1588-0.1714-0.0889-0.2984-0.2032t-0.2032-0.273q-0.06985-0.1651-0.06985-0.4 0-0.4572 0.3366-0.7176 0.3366-0.2667 0.9144-0.2667 0.2921 0 0.5588 0.05715 0.2667 0.0508 0.4 0.1016l-0.1397 0.6223q-0.127-0.05715-0.3238-0.1016-0.1968-0.0508-0.4572-0.0508-0.235 0-0.381 0.08255-0.146 0.0762-0.146 0.2413 0 0.08255 0.0254 0.146 0.03175 0.0635 0.1016 0.1206 0.06985 0.0508 0.1842 0.108 0.1143 0.0508 0.2794 0.108 0.273 0.1016 0.4636 0.2032 0.1905 0.09525 0.3112 0.2222 0.127 0.1206 0.1842 0.2794 0.05715 0.1588 0.05715 0.381 0 0.4762-0.3556 0.7239-0.3492 0.2413-1.003 0.2413-0.4382 0-0.7048-0.0762-0.2667-0.06985-0.3746-0.1143l0.1334-0.6414q0.1714 0.06985 0.4064 0.1334 0.2413 0.0635 0.5461 0.0635zm-3.332 0.0127q0.3556 0 0.5398-0.0381v-0.8509q-0.0635-0.01905-0.1842-0.0381-0.1206-0.01905-0.2667-0.01905-0.127 0-0.2604 0.01905-0.127 0.01905-0.235 0.06985-0.1016 0.0508-0.1651 0.146-0.0635 0.0889-0.0635 0.2286 0 0.273 0.1714 0.381 0.1714 0.1016 0.4636 0.1016zm-0.0635-2.864q0.381 0 0.6414 0.09525t0.4128 0.2667q0.1588 0.1714 0.2222 0.4191 0.06985 0.2413 0.06985 0.5334v2.013q-0.1778 0.0381-0.5398 0.0889-0.3556 0.05715-0.8064 0.05715-0.2984 0-0.5461-0.05715-0.2476-0.05715-0.4254-0.1842-0.1714-0.127-0.273-0.3302-0.09525-0.2032-0.09525-0.5016 0-0.2858 0.108-0.4826 0.1143-0.1968 0.3048-0.3175 0.1905-0.127 0.4382-0.1778 0.254-0.05715 0.527-0.05715 0.127 0 0.2667 0.01905 0.1397 0.0127 0.2984 0.0508v-0.127q0-0.1334-0.03175-0.254t-0.1143-0.2096q-0.0762-0.09525-0.2096-0.146-0.127-0.0508-0.3238-0.0508-0.2667 0-0.489 0.0381-0.2222 0.0381-0.362 0.0889l-0.09525-0.6223q0.146-0.0508 0.4254-0.1016t0.5969-0.0508zm-3.449 3.499q-0.4953 0-0.889-0.1524t-0.6668-0.4445q-0.273-0.2984-0.4191-0.7239-0.146-0.4254-0.146-0.9779 0-0.5524 0.1651-0.9779 0.1714-0.4254 0.4636-0.7176 0.2921-0.2984 0.6858-0.4508t0.8446-0.1524q0.273 0 0.4953 0.04445 0.2222 0.0381 0.3874 0.0889 0.1651 0.0508 0.273 0.108 0.108 0.05715 0.1524 0.08255l-0.235 0.654q-0.1524-0.09525-0.4382-0.1778-0.2794-0.0889-0.6096-0.0889-0.2858 0-0.5334 0.1016-0.2476 0.09525-0.4318 0.2921-0.1778 0.1968-0.2794 0.4953-0.1016 0.2984-0.1016 0.6922 0 0.3492 0.0762 0.6414 0.08255 0.2921 0.2476 0.508 0.1651 0.2096 0.4191 0.3302 0.254 0.1143 0.6096 0.1143 0.4254 0 0.6922-0.08255 0.2667-0.0889 0.4128-0.1651l0.2159 0.654q-0.0762 0.0508-0.2096 0.1016-0.127 0.0508-0.3048 0.1016-0.1778 0.04445-0.4 0.06985-0.2222 0.03175-0.4762 0.03175zm-6.587-3.277q0.254-0.0762 0.5778-0.1397 0.3302-0.06985 0.7176-0.06985 0.5842 0 0.8572 0.2858t0.273 0.7684q0 0.1334-0.0254 0.2858-0.01905 0.146-0.0508 0.3048l-0.4191 1.746h-0.7684l0.3937-1.664q0.03175-0.1397 0.0635-0.2858 0.03175-0.146 0.0381-0.2794 0.0064-0.2222-0.108-0.3683-0.108-0.146-0.4318-0.146-0.273 0-0.4699 0.05715l-0.6414 2.686h-0.7684l0.762-3.181zm-1.724 3.181h-0.762l0.7938-3.321h0.7684l-0.8001 3.321zm0.5715-3.823q-0.1714 0-0.2984-0.1016t-0.127-0.3048q0-0.235 0.1588-0.3874 0.1651-0.1524 0.3746-0.1524 0.1714 0 0.2984 0.108 0.1334 0.1016 0.1334 0.3048 0 0.235-0.1651 0.3874-0.1651 0.146-0.3746 0.146zm-3.54 3.912q-0.5906 0-0.9017-0.3492-0.3112-0.3492-0.3112-0.9208 0-0.3683 0.1143-0.762t0.3492-0.7176q0.235-0.3238 0.5906-0.5334t0.8382-0.2096q0.5906 0 0.9017 0.3492 0.3112 0.3429 0.3112 0.9144 0 0.3746-0.1143 0.7684-0.108 0.3937-0.3429 0.7176-0.2286 0.3238-0.5906 0.5334-0.3556 0.2096-0.8446 0.2096zm0.5842-2.845q-0.2476 0-0.4445 0.146-0.1905 0.1397-0.3238 0.362-0.127 0.2222-0.1968 0.489-0.06985 0.2604-0.06985 0.508 0 0.3175 0.1206 0.5016 0.1206 0.1842 0.4254 0.1842 0.2476 0 0.4382-0.1397 0.1968-0.146 0.3238-0.362 0.1334-0.2222 0.2032-0.489 0.06985-0.2667 0.06985-0.508 0-0.3175-0.1206-0.5016-0.1206-0.1905-0.4254-0.1905zm-4.637 1.499q0-0.4318 0.1334-0.8192 0.1397-0.3937 0.3937-0.6858 0.254-0.2984 0.6223-0.4699 0.3683-0.1714 0.8382-0.1714 0.2476 0 0.4508 0.04445 0.2096 0.0381 0.3937 0.1206l-0.273 0.616q-0.1143-0.0508-0.254-0.0889t-0.3429-0.0381q-0.273 0-0.4953 0.1143-0.2159 0.108-0.3683 0.2984-0.1524 0.1905-0.235 0.4508-0.08255 0.2604-0.08255 0.5524 0 0.1651 0.03175 0.3048 0.0381 0.1334 0.1143 0.2413 0.08255 0.1016 0.2222 0.1588 0.1397 0.05715 0.3492 0.05715 0.2159 0 0.4128-0.05715 0.2032-0.05715 0.3112-0.1143l0.0635 0.6286q-0.146 0.06985-0.3874 0.1334-0.2413 0.06985-0.5461 0.06985-0.3492 0-0.6032-0.1016-0.254-0.108-0.4254-0.2858-0.1651-0.1842-0.2476-0.4254-0.0762-0.2476-0.0762-0.5334zm-1.774-2.94 0.8001-0.127-0.2413 1.003h1.086l-0.1524 0.635h-1.086l-0.3175 1.314q-0.03175 0.1397-0.04445 0.235-0.0127 0.0889-0.0127 0.1651t0.0127 0.1524q0.01905 0.06985 0.0635 0.127 0.0508 0.0508 0.1397 0.0889 0.09525 0.03175 0.254 0.03175 0.1714 0 0.3302-0.04445t0.2794-0.09525l0.05715 0.616q-0.146 0.0635-0.3683 0.1206-0.2222 0.05715-0.5207 0.05715-0.5461 0-0.781-0.235-0.235-0.2413-0.235-0.654 0-0.1524 0.01905-0.3112 0.0254-0.1651 0.06985-0.3492l0.6477-2.73zm-1.883 4.197h-0.762l0.7937-3.321h0.7684l-0.8001 3.321zm0.5715-3.823q-0.1714 0-0.2984-0.1016t-0.127-0.3048q0-0.235 0.1588-0.3874 0.1651-0.1524 0.3746-0.1524 0.1714 0 0.2984 0.108 0.1334 0.1016 0.1334 0.3048 0 0.235-0.1651 0.3874-0.1651 0.146-0.3746 0.146zm-3.993 3.874q-0.3238 0-0.6858-0.03175-0.3556-0.0254-0.635-0.0889l1.022-4.261q0.2858-0.0635 0.6032-0.0889 0.3175-0.0254 0.6414-0.0254 0.2667 0 0.5398 0.0381 0.2794 0.0381 0.5016 0.1524 0.2222 0.108 0.362 0.3048 0.146 0.1905 0.146 0.4953 0 0.3366-0.1905 0.635-0.1842 0.2984-0.6286 0.4826 0.2794 0.1143 0.4318 0.3302t0.1524 0.5016q0 0.743-0.5842 1.149-0.5778 0.4064-1.676 0.4064zm-0.06985-2.038-0.3238 1.353q0.0889 0.0127 0.235 0.0254 0.146 0.0064 0.3238 0.0064 0.2096 0 0.4382-0.03175t0.4128-0.1206q0.1842-0.0889 0.3048-0.254 0.127-0.1651 0.127-0.4254 0-0.2413-0.1842-0.3937-0.1842-0.1588-0.6096-0.1588h-0.7239zm0.1524-0.616h0.6096q0.1968 0 0.381-0.0381t0.3175-0.1206q0.1397-0.0889 0.2222-0.2159 0.08255-0.127 0.08255-0.3112 0-0.2921-0.2222-0.4-0.2159-0.108-0.5842-0.108-0.146 0-0.2921 0.0127-0.146 0.0063-0.235 0.01905l-0.2794 1.162z"/>
  </g>
  <g>
   <path fill="#4d4d4d" d="m17.61 33.77q0.1979-0.05936 0.4501-0.1088 0.2572-0.05441 0.5589-0.05441 0.4551 0 0.6677 0.2226 0.2127 0.2226 0.2127 0.5985 0 0.1039-0.01979 0.2226-0.01484 0.1138-0.03957 0.2374l-0.3265 1.36h-0.5985l0.3067-1.296q0.02473-0.1088 0.04946-0.2226t0.02968-0.2176q0.005-0.1731-0.08409-0.2869-0.08409-0.1138-0.3363-0.1138-0.2127 0-0.366 0.04452l-0.4996 2.092h-0.5985l0.5936-2.478zm-1.343 2.478h-0.5936l0.6183-2.587h0.5985l-0.6232 2.587zm0.4452-2.978q-0.1335 0-0.2325-0.07914-0.09893-0.07914-0.09893-0.2374 0-0.183 0.1237-0.3017 0.1286-0.1187 0.2918-0.1187 0.1336 0 0.2325 0.08409 0.1039 0.07914 0.1039 0.2374 0 0.183-0.1286 0.3017-0.1286 0.1138-0.2918 0.1138zm-2.758 3.047q-0.46 0-0.7024-0.272t-0.2424-0.7172q0-0.2869 0.08903-0.5936t0.272-0.5589q0.183-0.2523 0.46-0.4155t0.6529-0.1632q0.46 0 0.7024 0.272 0.2424 0.2671 0.2424 0.7123 0 0.2918-0.08903 0.5985-0.08409 0.3067-0.2671 0.5589-0.1781 0.2523-0.46 0.4155-0.277 0.1632-0.6579 0.1632zm0.4551-2.216q-0.1929 0-0.3462 0.1138-0.1484 0.1088-0.2523 0.2819-0.09892 0.1731-0.1533 0.3809-0.05441 0.2028-0.05441 0.3957 0 0.2473 0.09398 0.3908 0.09398 0.1434 0.3314 0.1434 0.1929 0 0.3413-0.1088 0.1533-0.1138 0.2523-0.2819 0.1039-0.1731 0.1583-0.3809 0.05441-0.2077 0.05441-0.3957 0-0.2473-0.09398-0.3908-0.09398-0.1484-0.3314-0.1484zm-3.612 1.167q0-0.3363 0.1039-0.6381 0.1088-0.3067 0.3067-0.5342 0.1979-0.2325 0.4847-0.366 0.2869-0.1335 0.6529-0.1335 0.1929 0 0.3512 0.03462 0.1632 0.02968 0.3067 0.09398l-0.2127 0.4798q-0.08903-0.03957-0.1979-0.06925-0.1088-0.02968-0.2671-0.02968-0.2127 0-0.3858 0.08903-0.1682 0.08409-0.2869 0.2325t-0.183 0.3512-0.0643 0.4303q0 0.1286 0.02473 0.2374 0.02968 0.1039 0.08903 0.188 0.0643 0.07914 0.1731 0.1237 0.1088 0.04452 0.272 0.04452 0.1682 0 0.3215-0.04452 0.1583-0.04452 0.2424-0.08903l0.04946 0.4897q-0.1138 0.05441-0.3017 0.1039-0.188 0.05441-0.4254 0.05441-0.272 0-0.4699-0.07914-0.1978-0.08409-0.3314-0.2226-0.1286-0.1434-0.1929-0.3314-0.05936-0.1929-0.05936-0.4155zm-1.382-2.29 0.6232-0.09893-0.188 0.7815h0.8458l-0.1187 0.4946h-0.8458l-0.2473 1.024q-0.02473 0.1088-0.03462 0.183-0.00989 0.06925-0.00989 0.1286t0.00989 0.1187q0.01484 0.05441 0.04946 0.09893 0.03957 0.03957 0.1088 0.06925 0.07419 0.02473 0.1979 0.02473 0.1335 0 0.2572-0.03462t0.2176-0.07419l0.04452 0.4798q-0.1138 0.04946-0.2869 0.09398t-0.4056 0.04452q-0.4254 0-0.6084-0.183-0.183-0.188-0.183-0.5095 0-0.1187 0.01484-0.2424 0.01978-0.1286 0.05441-0.272l0.5045-2.127zm-1.466 3.269h-0.5936l0.6183-2.587h0.5985l-0.6232 2.587zm0.4452-2.978q-0.1335 0-0.2325-0.07914-0.09892-0.07914-0.09892-0.2374 0-0.183 0.1237-0.3017 0.1286-0.1187 0.2918-0.1187 0.1335 0 0.2325 0.08409 0.1039 0.07914 0.1039 0.2374 0 0.183-0.1286 0.3017-0.1286 0.1138-0.2918 0.1138zm-3.11 3.017q-0.2523 0-0.5342-0.02473-0.277-0.01978-0.4946-0.06925l0.7963-3.319q0.2226-0.04946 0.4699-0.06925 0.2473-0.01978 0.4996-0.01978 0.2077 0 0.4204 0.02968 0.2176 0.02968 0.3908 0.1187 0.1731 0.08409 0.2819 0.2374 0.1138 0.1484 0.1138 0.3858 0 0.2622-0.1484 0.4946-0.1434 0.2325-0.4897 0.3759 0.2176 0.08903 0.3363 0.2572t0.1187 0.3908q0 0.5787-0.4551 0.8953-0.4501 0.3166-1.306 0.3166zm-0.05441-1.588-0.2523 1.054q0.06925 0.0099 0.183 0.01978 0.1138 0.0049 0.2523 0.0049 0.1632 0 0.3413-0.02473t0.3215-0.09398 0.2374-0.1979q0.09892-0.1286 0.09892-0.3314 0-0.188-0.1434-0.3067-0.153-0.12-0.485-0.12h-0.5639zm0.1187-0.4798h0.4748q0.1533 0 0.2968-0.02968 0.1434-0.02968 0.2473-0.09398 0.1088-0.06925 0.1731-0.1682 0.0643-0.09893 0.0643-0.2424 0-0.2275-0.1731-0.3116-0.1682-0.08409-0.4551-0.08409-0.1138 0-0.2275 0.0099-0.1138 0.005-0.183 0.01484l-0.228 0.91z"/>
   <path d="m29.91 36.25v-3.739l0.5985-0.09893v1.281q0.09893-0.03462 0.2275-0.05936 0.1335-0.02473 0.2622-0.02473 0.3116 0 0.5144 0.08903 0.2077 0.08409 0.3314 0.2424 0.1237 0.1533 0.1731 0.371 0.05441 0.2176 0.05441 0.4847v1.454h-0.5985v-1.36q0-0.2077-0.02968-0.3512-0.02473-0.1484-0.08903-0.2374-0.05936-0.09398-0.1632-0.1335-0.1039-0.04452-0.2572-0.04452-0.1187 0-0.2424 0.02473t-0.183 0.04452v2.058h-0.5985zm-1.832-0.4303q0.2374 0 0.3462-0.05441 0.1088-0.05936 0.1088-0.1978 0-0.1286-0.1187-0.2127-0.1138-0.08409-0.3809-0.183-0.1632-0.05935-0.3017-0.1237-0.1335-0.06925-0.2325-0.1583-0.09893-0.08903-0.1583-0.2127-0.05441-0.1286-0.05441-0.3116 0-0.3561 0.2622-0.5589 0.2622-0.2077 0.7123-0.2077 0.2275 0 0.4353 0.04452 0.2077 0.03957 0.3116 0.07914l-0.1088 0.4847q-0.09893-0.04452-0.2523-0.07914-0.1533-0.03957-0.3561-0.03957-0.183 0-0.2968 0.0643-0.1138 0.05936-0.1138 0.188 0 0.0643 0.01978 0.1138 0.02473 0.04946 0.07914 0.09398 0.05441 0.03957 0.1434 0.08409 0.08903 0.03957 0.2176 0.08409 0.2127 0.07914 0.3611 0.1583 0.1484 0.07419 0.2424 0.1731 0.09893 0.09398 0.1434 0.2176 0.04452 0.1237 0.04452 0.2968 0 0.371-0.277 0.5639-0.272 0.188-0.7815 0.188-0.3413 0-0.549-0.05936-0.2077-0.05441-0.2918-0.08903l0.1039-0.4996q0.1335 0.05441 0.3166 0.1039 0.188 0.04946 0.4254 0.04946zm-2.595 0.0099q0.277 0 0.4204-0.02968v-0.6628q-0.04946-0.01484-0.1434-0.02968-0.09398-0.01484-0.2077-0.01484-0.09892 0-0.2028 0.01484-0.09892 0.01484-0.183 0.05441-0.07914 0.03957-0.1286 0.1138-0.04946 0.06925-0.04946 0.1781 0 0.2127 0.1335 0.2968 0.1335 0.07914 0.3611 0.07914zm-0.04946-2.231q0.2968 0 0.4996 0.07419t0.3215 0.2077q0.1237 0.1335 0.1731 0.3265 0.05441 0.188 0.05441 0.4155v1.568q-0.1385 0.02968-0.4204 0.06925-0.277 0.04452-0.6282 0.04452-0.2325 0-0.4254-0.04452t-0.3314-0.1434q-0.1335-0.09893-0.2127-0.2572-0.07419-0.1583-0.07419-0.3908 0-0.2226 0.08409-0.3759 0.08903-0.1533 0.2374-0.2473 0.1484-0.09893 0.3413-0.1385 0.1979-0.04452 0.4105-0.04452 0.09893 0 0.2077 0.01484 0.1088 0.0099 0.2325 0.03957v-0.09893q0-0.1039-0.02473-0.1978-0.02473-0.09398-0.08903-0.1632-0.05936-0.07419-0.1632-0.1138-0.09893-0.03957-0.2523-0.03957-0.2077 0-0.3809 0.02968-0.1731 0.02968-0.2819 0.06925l-0.07419-0.4847q0.1138-0.03957 0.3314-0.07914t0.4649-0.03957zm-2.686 2.725q-0.3858 0-0.6925-0.1187t-0.5194-0.3462q-0.2127-0.2325-0.3265-0.5639t-0.1138-0.7617 0.1286-0.7617q0.1335-0.3314 0.3611-0.5589 0.2275-0.2325 0.5342-0.3512t0.6579-0.1187q0.2127 0 0.3858 0.03462 0.1731 0.02968 0.3017 0.06925t0.2127 0.08409q0.08409 0.04452 0.1187 0.0643l-0.183 0.5095q-0.1187-0.07419-0.3413-0.1385-0.2176-0.06925-0.4748-0.06925-0.2226 0-0.4155 0.07914-0.1929 0.07419-0.3363 0.2275-0.1385 0.1533-0.2176 0.3858-0.07914 0.2325-0.07914 0.5391 0 0.272 0.05936 0.4996 0.0643 0.2275 0.1929 0.3957 0.1286 0.1632 0.3265 0.2572 0.1979 0.08903 0.4748 0.08903 0.3314 0 0.5391-0.0643 0.2077-0.06925 0.3215-0.1286l0.1682 0.5095q-0.05936 0.03957-0.1632 0.07914-0.09893 0.03957-0.2374 0.07914-0.1385 0.03462-0.3116 0.05441-0.1731 0.02473-0.371 0.02473z" fill="#279832"/>
   <g fill="#4d4d4d" transform="matrix(.7789 0 0 .7789 -1.845e-7 10.25)">
    <path fill="#4d4d4d" d="m36.22 39.76 0.6979-2.913h1.808l-0.1051 0.4414h-1.282l-0.1724 0.7315h1.135l-0.1051 0.433h-1.131l-0.2102 0.866h1.379l-0.1051 0.4414h-1.909zm-1.15-2.95q0.5213 0 0.7904 0.2186 0.2733 0.2144 0.2733 0.5718 0 0.1598-0.04624 0.3069-0.04204 0.1429-0.1387 0.2691-0.09249 0.1219-0.2438 0.2186-0.1471 0.09669-0.3573 0.1598 0.05465 0.09669 0.1177 0.2354 0.06306 0.1345 0.1303 0.2943 0.06727 0.1556 0.1303 0.3279 0.06306 0.1724 0.1135 0.3405h-0.5591q-0.05045-0.1513-0.1051-0.3069t-0.1135-0.2985q-0.05886-0.1471-0.1219-0.2733-0.05886-0.1303-0.1177-0.2312-0.03784 0.0042-0.09249 0.0042t-0.09669 0h-0.2438l-0.2649 1.106h-0.5297l0.6853-2.871q0.2018-0.04204 0.4078-0.05465 0.2102-0.01682 0.3826-0.01682zm0.5255 0.8492q0-0.2312-0.1682-0.3153-0.1682-0.08829-0.4498-0.08829-0.05886 0-0.1261 0.0042-0.06727 0.0042-0.1345 0.01261l-0.227 0.9501h0.2354q0.1892 0 0.3489-0.02943 0.1598-0.03363 0.2733-0.1009 0.1177-0.06726 0.1808-0.1724 0.06726-0.1093 0.06726-0.2607zm-4.407 2.094 0.6979-2.913h1.808l-0.1051 0.4414h-1.282l-0.1724 0.7315h1.135l-0.1051 0.433h-1.131l-0.2102 0.866h1.379l-0.1051 0.4414h-1.909zm-0.5016-2.913h0.5297l-0.6979 2.913h-0.5297l0.3111-1.295h-1.194l-0.3111 1.295h-0.5297l0.6979-2.913h0.5297l-0.2817 1.169h1.194l0.2817-1.169zm-5.728 2.48q0.04624 0.0084 0.1051 0.01261 0.06306 0 0.1934 0 0.3027 0 0.5465-0.09669t0.412-0.2733q0.1724-0.1808 0.2649-0.4288 0.09249-0.2522 0.09249-0.5591 0-0.3321-0.1892-0.5255t-0.618-0.1934q-0.1093 0-0.1766 0.0042-0.06306 0.0042-0.1387 0.01261l-0.4919 2.047zm2.16-1.36q0 0.391-0.1261 0.7273t-0.3742 0.5802q-0.248 0.2438-0.6222 0.3826-0.37 0.1387-0.8618 0.1387-0.1766 0-0.3952-0.02102-0.2186-0.01682-0.4036-0.05886l0.6769-2.821q0.206-0.04624 0.4162-0.05886 0.2102-0.01682 0.3868-0.01682 0.3195 0 0.5633 0.08408 0.2438 0.07988 0.4078 0.2312 0.164 0.1471 0.248 0.3616 0.08408 0.2102 0.08408 0.4709zm-5.202 1.795 0.6979-2.913h1.808l-0.1051 0.4414h-1.282l-0.1724 0.7315h1.135l-0.1051 0.433h-1.131l-0.2102 0.866h1.379l-0.1051 0.4414h-1.909zm0.29-2.913-0.1093 0.4456h-0.866l-0.5928 2.468h-0.5297l0.5928-2.468h-0.866l0.1051-0.4456h2.266zm-3.741-0.02943q0.5255 0 0.803 0.206 0.2817 0.206 0.2817 0.5886 0 0.3027-0.1177 0.5171-0.1135 0.2102-0.3195 0.3447-0.2018 0.1345-0.4877 0.1976-0.2817 0.05886-0.6222 0.05886h-0.227l-0.248 1.03h-0.5297l0.6853-2.871q0.2018-0.04204 0.4036-0.05465 0.2018-0.01682 0.3784-0.01682zm-0.05045 0.4456q-0.07988 0-0.1513 0.0042-0.07147 0.0042-0.1429 0.01261l-0.2396 1.005h0.2144q0.1766 0 0.3405-0.02943 0.164-0.02943 0.2901-0.09669 0.1261-0.07147 0.2018-0.1892 0.07567-0.1219 0.07567-0.3069 0-0.2144-0.1598-0.3069-0.1556-0.09249-0.4288-0.09249zm-3.823 2.497 0.6979-2.913h1.808l-0.1051 0.4414h-1.282l-0.1724 0.7315h1.135l-0.1051 0.433h-1.131l-0.2102 0.866h1.379l-0.1051 0.4414h-1.909zm-0.3509-0.1261q-0.1387 0.07147-0.3531 0.1303-0.2144 0.05886-0.5213 0.05886-0.2691 0-0.4793-0.07988-0.2102-0.08408-0.3573-0.2396-0.1471-0.1556-0.227-0.3742-0.07567-0.2186-0.07567-0.4919 0-0.3531 0.1177-0.6853 0.1177-0.3363 0.3405-0.597t0.5423-0.4162q0.3195-0.1598 0.7231-0.1598 0.2649 0 0.4582 0.05886 0.1976 0.05886 0.3447 0.1429l-0.2018 0.4246q-0.1345-0.07988-0.2901-0.1219-0.1513-0.04624-0.3447-0.04624-0.2649 0-0.4751 0.1177t-0.3616 0.3111q-0.1471 0.1892-0.227 0.433-0.07567 0.2438-0.07567 0.4961 0 0.391 0.1682 0.5802 0.1724 0.185 0.5003 0.185 0.2522 0 0.4288-0.05465 0.1766-0.05886 0.3027-0.1177l0.06306 0.4456zm-2.43 0q-0.1387 0.07147-0.3531 0.1303-0.2144 0.05886-0.5213 0.05886-0.2691 0-0.4793-0.07988-0.22-0.09-0.37-0.25-0.142-0.16-0.222-0.37-0.076-0.22-0.076-0.5 0-0.3531 0.1177-0.6853 0.1177-0.3363 0.3405-0.597t0.5423-0.4162q0.3195-0.1598 0.7231-0.1598 0.2649 0 0.4582 0.05886 0.1976 0.05886 0.3447 0.1429l-0.2018 0.4246q-0.1345-0.07988-0.2901-0.1219-0.1513-0.04624-0.3447-0.04624-0.2649 0-0.4751 0.1177t-0.3616 0.3111q-0.1471 0.1892-0.227 0.433-0.07567 0.2438-0.07567 0.4961 0 0.391 0.1682 0.5802 0.1724 0.185 0.5003 0.185 0.2522 0 0.4288-0.05465 0.1766-0.05886 0.3027-0.1177l0.06306 0.4456zm-2.938 0.1261q-0.01261-0.1766-0.02943-0.3489-0.01261-0.1766-0.02943-0.3405h-1.181q-0.09669 0.164-0.1934 0.3363-0.09249 0.1682-0.1892 0.3531h-0.5676q0.2564-0.4456 0.4877-0.8408 0.2354-0.3952 0.454-0.7525 0.2228-0.3573 0.4372-0.6811 0.2186-0.3279 0.4372-0.639h0.4919q0.1345 0.6264 0.2312 1.371 0.09669 0.7399 0.185 1.543h-0.5339zm-0.249-2.37q-0.1598 0.248-0.3573 0.5591-0.1934 0.3069-0.412 0.6895h0.9123q-0.025-0.3-0.063-0.61-0.033-0.32-0.08-0.64z"/>
   </g>
   <path d="m25.05 30.8c0.2608-0.399 1.258-2.819 1.364-3.089 0.2597 0.09849 1.58 0.7246 1.918 0.8316z" fill-rule="evenodd" fill="url(#f)"/>
  </g>
 </g>
</svg>
