<?xml version="1.0" encoding="UTF-8" standalone="no"?>
<svg xmlns:rdf="http://www.w3.org/1999/02/22-rdf-syntax-ns#" xmlns="http://www.w3.org/2000/svg" height="128" width="128" version="1.1" xmlns:cc="http://creativecommons.org/ns#" xmlns:xlink="http://www.w3.org/1999/xlink" viewBox="0 0 36.124445 36.124445" xmlns:dc="http://purl.org/dc/elements/1.1/">
 <title>Bitcoin accepted here</title>
 <defs>
  <linearGradient id="a">
   <stop stop-color="#f6f5e9" offset="0"/>
   <stop stop-color="#c4bea5" offset=".1619"/>
   <stop stop-color="#fcffec" offset=".3057"/>
   <stop stop-color="#dfece8" offset=".513"/>
   <stop stop-color="#c9dda4" offset=".6102"/>
   <stop stop-color="#f7f5e3" offset=".7939"/>
   <stop stop-color="#cfe2d8" offset=".9229"/>
   <stop stop-color="#f6f4e4" offset="1"/>
  </linearGradient>
  <linearGradient id="j" x1="14.33" gradientUnits="userSpaceOnUse" y1="54.71" gradientTransform="matrix(.7689 0 0 .7689 -10.78 -6.17)" x2="14.33" y2="8.331">
   <stop stop-color="#dddddc" offset="0"/>
   <stop stop-color="#fefefe" offset="1"/>
  </linearGradient>
  <radialGradient id="l" gradientUnits="userSpaceOnUse" cy="9.283" cx="98.2" gradientTransform="matrix(-.6782 1.469 -3.819 -2.083 110.4 -107.6)" r="17.22">
   <stop stop-color="#9fd998" offset="0"/>
   <stop stop-color="#559360" offset=".06512"/>
   <stop stop-color="#7bbf6c" offset=".1977"/>
   <stop stop-color="#a0d999" offset=".2222"/>
   <stop stop-color="#6f9f6a" offset=".4268"/>
   <stop stop-color="#73b366" offset=".5081"/>
   <stop stop-color="#91d186" offset=".54"/>
   <stop stop-color="#6ca977" offset=".6248"/>
   <stop stop-color="#a7df9b" offset=".7179"/>
   <stop stop-color="#fff" offset="1"/>
  </radialGradient>
  <radialGradient id="m" gradientUnits="userSpaceOnUse" cy="35.62" cx="37.47" gradientTransform="matrix(1.539 .009991 .01464 .2053 -40.07 11.49)" r="7.62">
   <stop stop-color="#546b56" offset="0"/>
   <stop stop-color="#ececeb" offset="1"/>
  </radialGradient>
  <radialGradient id="k" gradientUnits="userSpaceOnUse" cy="24.91" cx="80.91" gradientTransform="matrix(-.5926 -.8730 .8358 -.5673 54.66 102.4)" r="2.38">
   <stop stop-opacity=".5055" offset="0"/>
   <stop stop-opacity=".1404" offset=".6284"/>
   <stop stop-opacity=".07602" offset=".7504"/>
   <stop stop-opacity="0" offset="1"/>
  </radialGradient>
  <linearGradient id="i" x1="27.34" xlink:href="#a" gradientUnits="userSpaceOnUse" y1="30.54" gradientTransform="matrix(1.084 0 0 1.084 -1.631 -14.46)" x2="24.27" y2="26.7"/>
  <linearGradient id="h" y2="6.584" xlink:href="#a" gradientUnits="userSpaceOnUse" x2="76.5" gradientTransform="matrix(.7492 0 0 .7143 -34.53 -.2803)" y1="27.14" x1="62.44"/>
  <linearGradient id="g" y2="6.584" xlink:href="#a" gradientUnits="userSpaceOnUse" x2="76.5" gradientTransform="matrix(.8428 .09271 -.1848 .8035 -10.07 -5.121)" y1="27.14" x1="62.44"/>
 </defs>
 <metadata>
  <rdf:RDF>
   <cc:Work rdf:about="">
    <dc:format>image/svg+xml</dc:format>
    <dc:type rdf:resource="http://purl.org/dc/dcmitype/StillImage"/>
    <dc:title>Bitcoin accepted here</dc:title>
    <dc:date>31.12.2018</dc:date>
    <dc:creator>
     <cc:Agent>
      <dc:title>Aleksander Erstu</dc:title>
     </cc:Agent>
    </dc:creator>
    <dc:rights>
     <cc:Agent>
      <dc:title>Copyright (c) 2018 Aleksander Erstu, Licensed under The MIT License (MIT)</dc:title>
     </cc:Agent>
    </dc:rights>
    <dc:publisher>
     <cc:Agent>
      <dc:title>CryptoGraffiti.info</dc:title>
     </cc:Agent>
    </dc:publisher>
    <dc:identifier/>
    <dc:source/>
    <dc:relation/>
    <dc:language>english</dc:language>
    <dc:subject>
     <rdf:Bag>
      <rdf:li>bitcoin</rdf:li>
     </rdf:Bag>
    </dc:subject>
    <dc:coverage>World Wide Web</dc:coverage>
    <dc:description>An image of a paper money and the text: &quot;Bitcoin accepted here&quot;.</dc:description>
    <dc:contributor>
     <cc:Agent>
      <dc:title>Aleksander Erstu (Initial work)</dc:title>
     </cc:Agent>
    </dc:contributor>
   </cc:Work>
  </rdf:RDF>
 </metadata>
 <rect stroke-opacity=".9922" rx="0" ry="0" height="35.66" width="35.66" stroke="#b2b2b2" stroke-linecap="square" y=".24" x=".2337" stroke-width=".4674" fill="url(#j)"/>
 <ellipse rx="12.2" ry="1.511" cy="18.95" cx="18.66" stroke-width="1.084" fill="url(#m)"/>
 <path stroke-width=".306" d="m29.1 5.747-22.09 0.342-0.257 12.1 21.03-0.5z" fill="url(#l)"/>
 <g fill-rule="evenodd">
  <path stroke-linejoin="round" d="m29.32 5.177c-9.58 1.446-2.52-0.121-12.15 0.33-3.5 0.164-8.369 0.125-10.37-0.222-1.16 5.245 0.411 9.315-0.269 13.08 2.238 0.5864 5.922 0.4322 11.17 0.3019 3.284-0.08153 5.677 0.3432 7.923 0.4274l3.631-2.496c-0.553-2.254 0.6212-3.767 0.03886-6.754-0.2155-1.105 0.264-2.275 0.0257-4.658zm-21.03 1.239c1.695 0.2087 5.726 0.2164 5.726 0.2164s-2.774 1.625-3.207 5.248c-0.4557 3.804 2.613 5.729 2.613 5.729s-4.593 0.0368-5.199-0.3306c0.4-3.83-0.728-6.28 0.067-10.86zm14.43 0.126c1.478 0.04745 1.414 0.8219 4.843 0.1088 0.1662 0.893-0.07629 1.589 0.0819 2.341 0.6369 3.031-0.7256 4.156 0.08129 8.646-1.616 0.4093-5.513-0.1364-5.517-0.1369 0 0 3.054-1.911 2.77-5.931-0.2453-3.474-3.001-4.998-3.001-4.998 0.2887-0.02936 0.5313-0.03726 0.7424-0.03049zm-4.72 0.226v0.00299c2.608-0.00624 5.392 2.294 5.426 4.89 0.04083 3.158-2.226 5.891-5.8 5.858-3.575-0.0344-5.674-2.6-5.306-5.64 0.2938-2.433 2.082-5.102 5.68-5.111z" stroke="#607a62" stroke-linecap="round" stroke-width=".1692" fill="url(#h)"/>
  <path stroke-linejoin="round" d="m18.65 7.779-0.9668 0.0005246 0.0011 1.254c-0.1409 0.0008542-0.2821 0.00176-0.4237 0.00441l0.000141-1.26-0.9673-0.000222 0.000761 1.289c-0.5015 0.00568-1.035 0.0003595-1.557-0.0002557l0.0016 1.027c0.2411-0.000103 0.4576 0.0014 0.6465 0.000795 0.1372-0.000436 0.2147 0.03791 0.2671 0.08868 0.0515 0.0498 0.07928 0.1166 0.09232 0.1832 0.0018 1.168 0.0034 2.335 0.0038 3.503-0.0057 0.03788-0.02144 0.08181-0.04451 0.1096-0.0238 0.02868-0.05172 0.05101-0.1372 0.05109-0.2183 0.000779-0.4372 0.0014-0.6552 0.000993l-0.1826 1.127c0.5155-0.000657 1.085-0.000889 1.571 0.0039l0.0032 1.302 0.9656 0.0014-0.0011-1.287c0.1428 0.0024 0.2844 0.0042 0.4217 0.0042l0.0022 1.283 0.9663 0.0014-0.000113-1.324c0.6054-0.04325 1.148-0.1293 1.552-0.3767 0.4313-0.2637 0.709-0.7008 0.767-1.341 0.04654-0.5138-0.05274-0.8961-0.2604-1.176-0.3224-0.434-0.7286-0.4656-0.7286-0.4656s0.2348-0.08031 0.4141-0.4426c0.128-0.2587 0.1895-0.5829 0.1145-1.002-0.07-0.434-0.31-0.736-0.65-0.933-0.32-0.186-0.74-0.272-1.21-0.32zm-0.6862 2.381c0.08503 0.0072 0.1717 0.01867 0.2565 0.03581 0.1895 0.03832 0.3615 0.1043 0.4811 0.2074 0.1197 0.1031 0.192 0.2394 0.1922 0.4472 0.000136 0.1974-0.06779 0.3198-0.1811 0.4158-0.1134 0.09622-0.2831 0.163-0.4715 0.2032-0.3462 0.07385-0.7211 0.05517-0.9594 0.05236l-0.000559-1.365c0.1813-0.0035 0.4275-0.01898 0.6826 0.0027zm0.1555 2.354 0.000675 0.000076c0.1052 0.0083 0.2122 0.02018 0.317 0.0397 0.2296 0.04282 0.4381 0.1161 0.5844 0.2318 0.1462 0.1157 0.2334 0.2693 0.2336 0.498 0.000289 0.2172-0.08029 0.3506-0.2202 0.4598-0.1399 0.1091-0.3477 0.1853-0.5763 0.2303-0.4267 0.08409-0.8911 0.06302-1.174 0.06051l-0.0018-1.525c0.2149-0.0034 0.5197-0.02035 0.836 0.0044z" stroke="#607a62" stroke-linecap="round" stroke-width=".1548" fill="url(#g)"/>
  <path stroke-width="1.084" d="m25.6 19c-0.5188-0.02476-2.455-1.334 0.5311-3.413s2.837 0.3344 3.028 0.9651z" fill="url(#k)"/>
 </g>
 <g fill="#fff" fill-opacity=".9922">
  <path stroke-width=".7789" d="m28.21 31.2 0.5436-2.269h1.408l-0.08186 0.3438h-0.9986l-0.1343 0.5698h0.8841l-0.08186 0.3373h-0.8809l-0.1637 0.6745h1.074l-0.08186 0.3438h-1.487z"/>
  <path stroke-width="2.76" d="m96.79 102.4c-0.32 0-0.67 0.1-1.06 0.1-0.37 0-0.75 0.1-1.12 0.1l-1.89 8h1.46l0.73-3.1h1.2c0.1 0.2 0.21 0.4 0.32 0.6 0.12 0.3 0.23 0.5 0.34 0.8 0.1 0.3 0.21 0.5 0.31 0.8s0.2 0.6 0.29 0.9h1.54c-0.09-0.3-0.19-0.7-0.31-1l-0.36-0.9c-0.12-0.3-0.24-0.5-0.36-0.8-0.12-0.2-0.22-0.5-0.33-0.6 0.39-0.2 0.72-0.3 0.99-0.5 0.28-0.2 0.5-0.4 0.67-0.6 0.18-0.2 0.31-0.5 0.39-0.7 0.08-0.3 0.12-0.6 0.12-0.9 0-0.6-0.25-1.2-0.75-1.5-0.49-0.5-1.22-0.7-2.18-0.7zm-0.26 1.3c0.52 0 0.94 0.1 1.25 0.2 0.3 0.2 0.46 0.5 0.46 0.9 0 0.3-0.06 0.5-0.19 0.7-0.11 0.2-0.28 0.4-0.5 0.5-0.2 0.1-0.46 0.2-0.75 0.3h-1.61l0.62-2.6h0.72z" transform="scale(.2822)"/>
  <path stroke-width=".7789" d="m24.29 31.21 0.5436-2.269h1.408l-0.08186 0.3438h-0.9986l-0.1343 0.5698h0.8841l-0.08186 0.3373h-0.8809l-0.1637 0.6745h1.074l-0.08186 0.3438h-1.487z"/>
  <path stroke-width=".7789" d="m23.9 28.94h0.4126l-0.5436 2.269h-0.4126l0.2423-1.009h-0.93l-0.2423 1.009h-0.4126l0.5436-2.269h0.4126l-0.2194 0.9105h0.93z"/>
  <path stroke-width="2.76" d="m71.25 102.4c-0.32 0-0.68 0.1-1.07 0.1-0.38 0-0.77 0.1-1.14 0.2l-1.87 7.7c0.34 0.1 0.71 0.2 1.11 0.2s0.77 0.1 1.09 0.1c0.91 0 1.7-0.2 2.38-0.4 0.69-0.3 1.26-0.6 1.72-1.1 0.45-0.4 0.8-1 1.03-1.6s0.35-1.3 0.35-2c0-0.5-0.08-0.9-0.23-1.3-0.16-0.4-0.39-0.7-0.69-1s-0.67-0.5-1.12-0.6c-0.45-0.2-0.97-0.3-1.56-0.3zm-0.14 1.3c0.79 0 1.36 0.2 1.71 0.5 0.34 0.4 0.52 0.9 0.52 1.5 0 0.5-0.09 1-0.26 1.5s-0.41 0.9-0.73 1.2c-0.31 0.3-0.69 0.6-1.14 0.7-0.44 0.2-0.95 0.3-1.5 0.3h-0.83l1.36-5.7h0.87z" transform="scale(.2822)"/>
  <path stroke-width=".7789" d="m17.07 31.21 0.5436-2.269h1.408l-0.08186 0.3438h-0.9986l-0.1343 0.5698h0.8841l-0.08186 0.3373h-0.8809l-0.1637 0.6745h1.074l-0.08186 0.3438h-1.487z"/>
  <path stroke-width=".7789" d="m17.3 28.94-0.08513 0.3471h-0.6745l-0.4617 1.922h-0.4126l0.4617-1.922h-0.6745l0.08186-0.3471h1.765z"/>
  <path stroke-width="2.76" d="m50.97 102.4c-0.32 0-0.67 0.1-1.04 0.1-0.38 0-0.75 0.1-1.12 0.1l-1.89 8h1.46l0.69-2.9h0.62c0.63 0 1.2 0 1.72-0.1 0.53-0.2 0.97-0.3 1.35-0.6 0.37-0.2 0.67-0.5 0.88-0.9 0.22-0.4 0.32-0.9 0.32-1.5 0-0.7-0.26-1.2-0.77-1.6-0.52-0.4-1.25-0.6-2.22-0.6zm-0.14 1.3c0.5 0 0.9 0.1 1.18 0.2 0.3 0.2 0.45 0.5 0.45 0.9 0 0.3-0.07 0.6-0.21 0.8s-0.33 0.4-0.56 0.5c-0.23 0.2-0.5 0.3-0.8 0.3-0.3 0.1-0.62 0.1-0.94 0.1h-0.59l0.66-2.8h0.81z" transform="scale(.2822)"/>
  <g stroke-width=".7789">
   <path d="m11.37 31.2 0.5436-2.269h1.408l-0.08186 0.3438h-0.9986l-0.1343 0.5698h0.8841l-0.08186 0.3373h-0.8809l-0.1637 0.6745h1.074l-0.08186 0.3438h-1.487z"/>
   <path d="m11.09 31.11c-0.07203 0.03711-0.1637 0.07094-0.275 0.1015s-0.2467 0.04585-0.406 0.04585c-0.1397 0-0.2642-0.02074-0.3733-0.06222-0.109-0.05-0.202-0.11-0.278-0.19-0.077-0.09-0.136-0.18-0.177-0.3-0.04-0.11-0.059-0.24-0.059-0.38 0-0.1834 0.03056-0.3613 0.09168-0.5338 0.06112-0.1746 0.1495-0.3296 0.2652-0.465s0.2565-0.2434 0.4224-0.3242c0.1659-0.08298 0.3536-0.1245 0.5632-0.1245 0.1376 0 0.2565 0.01528 0.3569 0.04585 0.1026 0.03056 0.1921 0.06766 0.2685 0.1113l-0.1572 0.3307c-0.06984-0.04148-0.1452-0.07313-0.226-0.09495-0.07857-0.02401-0.1681-0.03602-0.2685-0.03602-0.1376 0-0.2609 0.03056-0.3701 0.09168s-0.203 0.1419-0.2816 0.2423c-0.07639 0.09825-0.1353 0.2107-0.1768 0.3373-0.0393 0.1266-0.05894 0.2554-0.05894 0.3864 0 0.203 0.04367 0.3537 0.131 0.4519 0.08952 0.09606 0.2194 0.1441 0.3897 0.1441 0.131 0 0.2423-0.01419 0.334-0.04257 0.0917-0.03056 0.1703-0.06112 0.2358-0.09168l0.04912 0.3471z"/>
   <path d="m9.202 31.11c-0.07202 0.03711-0.1637 0.07094-0.275 0.1015s-0.2467 0.04585-0.406 0.04585c-0.1397 0-0.2642-0.02074-0.3733-0.06222-0.1142-0.04673-0.2103-0.109-0.2882-0.1869-0.07374-0.08308-0.1314-0.1817-0.1729-0.296-0.03946-0.109-0.0592-0.2363-0.0592-0.3817 0-0.1834 0.03056-0.3613 0.09168-0.5338 0.06112-0.1746 0.1495-0.3296 0.2652-0.465s0.2565-0.2434 0.4224-0.3242c0.1659-0.08298 0.3536-0.1245 0.5632-0.1245 0.1376 0 0.2565 0.01528 0.3569 0.04585 0.1026 0.03056 0.1921 0.06766 0.2685 0.1113l-0.1572 0.3307c-0.06984-0.04148-0.1452-0.07313-0.226-0.09495-0.07856-0.02401-0.1681-0.03602-0.2685-0.03602-0.1376 0-0.2609 0.03056-0.3701 0.09168-0.1091 0.06112-0.203 0.1419-0.2817 0.2423-0.07639 0.09825-0.1353 0.2107-0.1768 0.3373-0.0393 0.1266-0.05894 0.2554-0.05894 0.3864 0 0.203 0.04367 0.3537 0.131 0.4519 0.08952 0.09606 0.2194 0.1441 0.3897 0.1441 0.131 0 0.2423-0.01419 0.334-0.04257 0.0917-0.03056 0.1703-0.06112 0.2358-0.09168l0.04912 0.3471z"/>
  </g>
  <path stroke-width="2.76" d="m23.45 102.5l-1.2 1.8c-0.4 0.6-0.8 1.2-1.21 1.9-0.4 0.6-0.82 1.3-1.25 2-0.43 0.8-0.88 1.5-1.34 2.4h1.57c0.18-0.4 0.35-0.7 0.52-1 0.18-0.3 0.36-0.6 0.53-0.9h3.26c0.03 0.3 0.06 0.6 0.08 0.9 0.03 0.3 0.06 0.6 0.08 1h1.47c-0.16-1.5-0.33-2.9-0.51-4.3s-0.39-2.6-0.64-3.8h-1.36zm1.04 8.1h-0.01 0.02-0.01zm-0.68-6.5c0.08 0.5 0.16 1.1 0.22 1.7 0.07 0.6 0.13 1.1 0.17 1.7h-2.51c0.4-0.7 0.78-1.3 1.13-1.9 0.37-0.6 0.69-1.1 0.99-1.5z" transform="scale(.2822)"/>
  <g transform="matrix(1.385 0 0 1.385 1.605 -10.17)">
   <path stroke-width=".7789" d="m17.61 23.84c0.1319-0.03957 0.2819-0.07584 0.45-0.1088 0.1715-0.03627 0.3578-0.05441 0.5589-0.05441 0.3034 0 0.5259 0.07421 0.6677 0.2226s0.2126 0.3479 0.2126 0.5985c0 0.06927-0.0066 0.1435-0.01978 0.2226-0.0099 0.07581-0.02308 0.1549-0.03957 0.2374l-0.3264 1.36h-0.5985l0.3067-1.296c0.01649-0.07254 0.03297-0.1467 0.04946-0.2226 0.01649-0.07581 0.02638-0.1484 0.02968-0.2176 0.0033-0.1154-0.02471-0.211-0.08412-0.2869-0.05608-0.07581-0.1682-0.1137-0.3363-0.1137-0.1418 0-0.2638 0.01484-0.366 0.04452l-0.4996 2.092h-0.5985l0.5935-2.478z"/>
   <path stroke-width=".7789" d="m16.71 23.34c-0.089 0-0.1665-0.02638-0.2324-0.07914-0.06595-0.05276-0.09892-0.1319-0.09892-0.2374 0-0.122 0.04123-0.2226 0.1237-0.3017 0.08573-0.07914 0.183-0.1187 0.2918-0.1187 0.089 0 0.1665 0.02804 0.2324 0.08412 0.06927 0.05275 0.1039 0.1319 0.1039 0.2374 0 0.122-0.04286 0.2226-0.1286 0.3017-0.08573 0.07581-0.183 0.1137-0.2918 0.1137zm-0.4451 2.978h-0.5935l0.6183-2.587h0.5985l-0.6232 2.587z"/>
   <path stroke-width="2.76" d="m51.33 83.86c-0.8879 0-1.658 0.1925-2.312 0.5781-0.6543 0.3856-1.198 0.8769-1.631 1.473-0.4322 0.5959-0.7526 1.256-0.9629 1.98-0.2103 0.7244-0.3164 1.426-0.3164 2.104 0 1.052 0.2868 1.899 0.8594 2.541 0.5724 0.6425 1.402 0.9629 2.488 0.9629 0.8997 0 1.678-0.1925 2.332-0.5781 0.666-0.3856 1.208-0.8769 1.629-1.473 0.4322-0.5959 0.7486-1.256 0.9473-1.98 0.2103-0.7246 0.3145-1.432 0.3145-2.121 0-1.052-0.2848-1.893-0.8574-2.523-0.5724-0.6425-1.404-0.9629-2.49-0.9629zm-0.2617 1.787c0.5608 0 0.9519 0.1749 1.174 0.5254 0.2219 0.3387 0.334 0.8006 0.334 1.385 0 0.444-0.06484 0.9116-0.1934 1.402-0.1284 0.4909-0.3151 0.9408-0.5605 1.35-0.2337 0.3974-0.5324 0.7294-0.8945 0.998-0.3507 0.257-0.7534 0.3867-1.209 0.3867-0.5608 0-0.9519-0.1708-1.174-0.5098-0.2219-0.3387-0.334-0.7986-0.334-1.383 0-0.4556 0.06484-0.9232 0.1934-1.402 0.1284-0.4909 0.3093-0.9408 0.543-1.35 0.2453-0.409 0.544-0.743 0.8945-1 0.3623-0.2686 0.771-0.4023 1.227-0.4023z" transform="scale(.2822)"/>
   <g stroke-width=".7789">
    <path d="m10.8 25.34c0-0.2242 0.03464-0.4369 0.1039-0.6381 0.07254-0.2044 0.1748-0.3825 0.3067-0.5342 0.1319-0.1549 0.2935-0.277 0.4847-0.366s0.4089-0.1335 0.6529-0.1335c0.1286 0 0.2456 0.01154 0.3511 0.03462 0.1088 0.01978 0.2111 0.0511 0.3067 0.09393l-0.2126 0.4798c-0.05935-0.02638-0.1253-0.04946-0.1978-0.06924-0.07254-0.01978-0.1616-0.02968-0.2671-0.02968-0.1418 0-0.2704 0.02968-0.3858 0.08903-0.1121 0.05608-0.2077 0.1336-0.2869 0.2324-0.07914 0.09892-0.1402 0.216-0.183 0.3511-0.04286 0.1352-0.0643 0.2786-0.0643 0.4303 0 0.08573 0.0082 0.1649 0.02473 0.2374 0.01978 0.06927 0.04946 0.1319 0.08903 0.1879 0.04286 0.05276 0.1006 0.09399 0.1731 0.1237 0.07254 0.02968 0.1632 0.04451 0.272 0.04451 0.1121 0 0.2193-0.01484 0.3215-0.04451 0.1055-0.02968 0.1863-0.05935 0.2424-0.08903l0.04946 0.4896c-0.07581 0.03627-0.1764 0.0709-0.3017 0.1039-0.1253 0.03627-0.2671 0.05441-0.4254 0.05441-0.1813 0-0.3379-0.02638-0.4698-0.07914-0.1319-0.05608-0.2423-0.1303-0.3313-0.2226-0.08573-0.09565-0.15-0.2061-0.1929-0.3313-0.03957-0.1286-0.05935-0.2671-0.05935-0.4155z"/>
    <path d="m9.419 23.05 0.6232-0.09892-0.1879 0.7812h0.8459l-0.1187 0.4946h-0.844l-0.2473 1.023c-0.01649 0.07254-0.02802 0.1336-0.03462 0.183-0.00662 0.04617-0.00989 0.08903-0.00989 0.1286s0.00327 0.07914 0.00989 0.1187c0.00989 0.03627 0.02638 0.06924 0.04946 0.09892 0.02638 0.02638 0.06265 0.04946 0.1088 0.06924 0.04946 0.01649 0.1154 0.02473 0.1978 0.02473 0.089 0 0.1747-0.01154 0.2572-0.03462 0.08246-0.02308 0.155-0.04781 0.2176-0.07419l0.04451 0.4798c-0.07581 0.03297-0.1714 0.06428-0.2869 0.09393-0.1154 0.02968-0.2506 0.04451-0.4056 0.04451-0.2836 0-0.4863-0.06101-0.6083-0.183-0.122-0.1253-0.183-0.2951-0.183-0.5094 0-0.07914 0.00499-0.1599 0.01484-0.2424 0.01319-0.08573 0.03133-0.1764 0.05441-0.272l0.504-2.11z"/>
    <path d="m8.398 23.34c-0.089 0-0.1665-0.02638-0.2324-0.07914-0.06595-0.05276-0.09892-0.1319-0.09892-0.2374 0-0.122 0.04123-0.2226 0.1237-0.3017 0.08573-0.07914 0.183-0.1187 0.2918-0.1187 0.089 0 0.1665 0.02804 0.2324 0.08412 0.06927 0.05275 0.1039 0.1319 0.1039 0.2374 0 0.122-0.04286 0.2226-0.1286 0.3017-0.08573 0.07581-0.183 0.1137-0.2918 0.1137zm-0.446 2.98h-0.593l0.6182-2.587h0.5985z"/>
   </g>
   <path stroke-width="2.76" d="m21.35 80.99c-0.596 0-1.187 0.02358-1.771 0.07031-0.584 0.0467-1.138 0.1293-1.664 0.2461l-2.83 11.75c0.5141 0.1168 1.098 0.1994 1.752 0.2461 0.6661 0.05857 1.297 0.08594 1.893 0.08594 2.021 0 3.564-0.3753 4.627-1.123 1.075-0.747 1.611-1.803 1.611-3.17 0-0.5257-0.1395-0.9875-0.4199-1.385-0.2804-0.3972-0.6773-0.7018-1.191-0.9121 0.8177-0.3389 1.395-0.781 1.734-1.33 0.3505-0.549 0.5254-1.135 0.5254-1.754 0-0.5608-0.1337-1.017-0.4023-1.367-0.2572-0.3621-0.5912-0.6411-1-0.8398-0.42-0.2-0.88-0.35-1.4-0.42-0.5-0.07-0.99-0.1-1.48-0.1zm-0.16 1.79c0.6776 0 1.216 0.1001 1.613 0.2988 0.4088 0.1985 0.6133 0.5661 0.6133 1.104 0.000001 0.3389-0.07663 0.6257-0.2285 0.8594-0.1518 0.2337-0.3562 0.4321-0.6133 0.5957-0.2453 0.1518-0.5361 0.2619-0.875 0.332-0.3389 0.07009-0.6906 0.1055-1.053 0.1055h-1.682l0.7715-3.207c0.1638-0.02353 0.3798-0.04104 0.6484-0.05273 0.2688-0.02339 0.5361-0.03516 0.8047-0.03516zm-2.646 4.996h2c0.7827 0 1.343 0.1473 1.682 0.4395 0.3389 0.2804 0.5078 0.642 0.5078 1.086 0 0.4789-0.1159 0.8701-0.3496 1.174-0.2219 0.3038-0.5029 0.5376-0.8418 0.7012-0.3389 0.1635-0.7181 0.2756-1.139 0.334-0.4206 0.05857-0.8233 0.08594-1.209 0.08594-0.3271 0-0.6259-0.0055-0.8945-0.01758-0.2688-0.02335-0.4849-0.04497-0.6484-0.06836z" transform="scale(.2822)"/>
  </g>
 </g>
 <g fill="#4d4d4d">
  <g transform="matrix(.7789 0 0 .7789 -.000004490 0)">
   <path d="m36.22 39.76 0.6979-2.913h1.808l-0.1051 0.4414h-1.282l-0.1724 0.7315h1.135l-0.1051 0.433h-1.131l-0.2102 0.866h1.379l-0.1 0.44h-1.91zm-1.15-2.95q0.5213 0 0.7904 0.2186 0.2733 0.2144 0.2733 0.5718 0 0.1598-0.04624 0.3069-0.04204 0.1429-0.1387 0.2691-0.09249 0.1219-0.2438 0.2186-0.1471 0.09669-0.3573 0.1598 0.05465 0.09669 0.1177 0.2354 0.06306 0.1345 0.1303 0.2943 0.06727 0.1556 0.1303 0.3279 0.06306 0.1724 0.1135 0.3405h-0.5591q-0.05045-0.1513-0.1051-0.3069t-0.1135-0.2985q-0.05886-0.1471-0.1219-0.2733-0.05886-0.1303-0.1177-0.2312-0.03784 0.0042-0.09249 0.0042t-0.09669 0h-0.2438l-0.2649 1.106h-0.5297l0.6853-2.871q0.2018-0.04204 0.4078-0.05465 0.2102-0.01682 0.3826-0.01682zm0.5255 0.8492q0-0.2312-0.1682-0.3153-0.1682-0.08829-0.4498-0.08829-0.05886 0-0.1261 0.0042-0.06727 0.0042-0.1345 0.01261l-0.227 0.9501h0.2354q0.1892 0 0.3489-0.02943 0.1598-0.03363 0.2733-0.1009 0.1177-0.06726 0.1808-0.1724 0.06726-0.1093 0.06726-0.2607zm-4.407 2.094 0.6979-2.913h1.808l-0.1051 0.4414h-1.282l-0.1724 0.7315h1.135l-0.1051 0.433h-1.131l-0.2102 0.866h1.379l-0.1051 0.4414h-1.909zm-0.5016-2.913h0.5297l-0.6979 2.913h-0.53l0.3111-1.295h-1.194l-0.3111 1.295h-0.5297l0.6979-2.913h0.5297l-0.2817 1.169h1.194zm-5.728 2.48q0.04624 0.0084 0.1051 0.01261 0.06306 0 0.1934 0 0.3027 0 0.5465-0.09669t0.412-0.2733q0.1724-0.1808 0.2649-0.4288 0.09249-0.2522 0.09249-0.5591 0-0.3321-0.1892-0.5255t-0.618-0.1934q-0.1093 0-0.1766 0.0042-0.06306 0.0042-0.1387 0.01261l-0.4919 2.047zm2.16-1.36q0 0.391-0.1261 0.7273t-0.3742 0.5802q-0.248 0.2438-0.6222 0.3826-0.37 0.1387-0.8618 0.1387-0.1766 0-0.3952-0.02102-0.2186-0.01682-0.4036-0.05886l0.6769-2.821q0.206-0.04624 0.4162-0.05886 0.2102-0.01682 0.3868-0.01682 0.3195 0 0.5633 0.08408 0.2438 0.07988 0.4078 0.2312 0.164 0.1471 0.248 0.3616 0.08408 0.2102 0.08408 0.4709zm-5.202 1.795 0.6979-2.913h1.808l-0.1051 0.4414h-1.282l-0.1724 0.7315h1.135l-0.1051 0.433h-1.131l-0.2102 0.866h1.379l-0.1051 0.4414h-1.909zm0.29-2.913-0.1093 0.4456h-0.866l-0.5928 2.468h-0.5297l0.5928-2.468h-0.866l0.1051-0.4456h2.266zm-3.741-0.02943q0.5255 0 0.803 0.206 0.2817 0.206 0.2817 0.5886 0 0.3027-0.1177 0.5171-0.1135 0.2102-0.3195 0.3447-0.2018 0.1345-0.4877 0.1976-0.2817 0.05886-0.6222 0.05886h-0.227l-0.248 1.03h-0.5297l0.6853-2.871q0.2018-0.04204 0.4036-0.05465 0.2018-0.01682 0.3784-0.01682zm-0.05045 0.4456q-0.07988 0-0.1513 0.0042-0.07147 0.0042-0.1429 0.01261l-0.2396 1.005h0.2144q0.1766 0 0.3405-0.02943 0.164-0.02943 0.2901-0.09669 0.1261-0.07147 0.2018-0.1892 0.07567-0.1219 0.07567-0.3069 0-0.2144-0.1598-0.3069-0.1556-0.09249-0.4288-0.09249zm-3.823 2.497 0.6979-2.913h1.808l-0.1051 0.4414h-1.282l-0.1724 0.7315h1.135l-0.1051 0.433h-1.131l-0.2102 0.866h1.379l-0.1051 0.4414h-1.909zm-0.3509-0.1261q-0.1387 0.07147-0.3531 0.1303-0.2144 0.05886-0.5213 0.05886-0.2691 0-0.4793-0.07988-0.2102-0.08408-0.3573-0.2396-0.1471-0.1556-0.227-0.3742-0.07567-0.2186-0.07567-0.4919 0-0.3531 0.1177-0.6853 0.1177-0.3363 0.3405-0.597t0.5423-0.4162q0.3195-0.1598 0.7231-0.1598 0.2649 0 0.4582 0.05886 0.1976 0.05886 0.3447 0.1429l-0.2018 0.4246q-0.1345-0.07988-0.2901-0.1219-0.1513-0.04624-0.3447-0.04624-0.2649 0-0.4751 0.1177t-0.3616 0.3111q-0.1471 0.1892-0.227 0.433-0.07567 0.2438-0.07567 0.4961 0 0.391 0.1682 0.5802 0.1724 0.185 0.5003 0.185 0.2522 0 0.4288-0.05465 0.1766-0.05886 0.3027-0.1177l0.06306 0.4456zm-2.43 0q-0.1387 0.07147-0.3531 0.1303-0.2144 0.05886-0.5213 0.05886-0.2691 0-0.4793-0.07988-0.22-0.09-0.37-0.25-0.142-0.16-0.222-0.37-0.076-0.22-0.076-0.5 0-0.3531 0.1177-0.6853 0.1177-0.3363 0.3405-0.597t0.5423-0.4162q0.3195-0.1598 0.7231-0.1598 0.2649 0 0.4582 0.05886 0.1976 0.05886 0.3447 0.1429l-0.2018 0.4246q-0.1345-0.07988-0.2901-0.1219-0.1513-0.04624-0.3447-0.04624-0.2649 0-0.4751 0.1177t-0.3616 0.3111q-0.1471 0.1892-0.227 0.433-0.07567 0.2438-0.07567 0.4961 0 0.391 0.1682 0.5802 0.1724 0.185 0.5003 0.185 0.2522 0 0.4288-0.05465 0.1766-0.05886 0.3027-0.1177l0.06306 0.4456zm-2.938 0.1261q-0.01261-0.1766-0.02943-0.3489-0.01261-0.1766-0.02943-0.3405h-1.181q-0.09669 0.164-0.1934 0.3363-0.09249 0.1682-0.1892 0.3531h-0.5676q0.2564-0.4456 0.4877-0.8408 0.2354-0.3952 0.454-0.7525 0.2228-0.3573 0.4372-0.6811 0.2186-0.3279 0.4372-0.639h0.4919q0.1345 0.6264 0.2312 1.371 0.09669 0.7399 0.185 1.543h-0.5339zm-0.249-2.37q-0.1598 0.248-0.3573 0.5591-0.1934 0.3069-0.412 0.6895h0.9123q-0.025-0.3-0.063-0.61-0.033-0.32-0.08-0.64z" fill="#4d4d4d"/>
  </g>
  <path stroke-width="1.385" d="m26 22.54q0.2741-0.08223 0.6235-0.1507 0.3563-0.07537 0.7742-0.07537 0.6304 0 0.925 0.3084t0.2946 0.8291q0 0.1439-0.02743 0.3084-0.02056 0.1576-0.05481 0.3289l-0.4523 1.884h-0.8291l0.4249-1.795q0.03426-0.1507 0.06851-0.3084 0.03426-0.1576 0.04112-0.3014 0.0069-0.2398-0.1165-0.3974-0.1165-0.1576-0.4659-0.1576-0.2947 0-0.507 0.06167l-0.6921 2.898h-0.8291l0.8223-3.433zm-1.86 3.433h-0.8223l0.8565-3.584h0.8291zm0.6167-4.125q-0.1849 0-0.3221-0.1096-0.137-0.1096-0.137-0.3289 0-0.2535 0.1714-0.4179 0.1781-0.1644 0.4042-0.1644 0.1851 0 0.3221 0.1165 0.1439 0.1096 0.1439 0.3289 0 0.2535-0.1781 0.4179-0.1781 0.1576-0.4042 0.1576zm-3.82 4.23q-0.6372 0-0.973-0.3768t-0.3358-0.9935q0-0.3974 0.1233-0.8223t0.3768-0.7742q0.2535-0.3495 0.6372-0.5756t0.9045-0.2261q0.6372 0 0.973 0.3768 0.3358 0.37 0.3358 0.9867 0 0.4042-0.1233 0.8291-0.1165 0.4249-0.37 0.7742-0.25 0.34-0.64 0.57-0.38 0.23-0.91 0.23zm0.6304-3.07q-0.2672 0-0.4796 0.1576-0.2056 0.1507-0.3495 0.3905-0.137 0.2398-0.2124 0.5277-0.07537 0.2809-0.07537 0.5482 0 0.3426 0.1302 0.5414 0.1302 0.1986 0.4591 0.1986 0.2672 0 0.4728-0.1507 0.2124-0.1576 0.3495-0.3905 0.1439-0.2398 0.2193-0.5277 0.07537-0.2877 0.07537-0.5482 0-0.3426-0.1302-0.5414-0.1302-0.2056-0.4591-0.2056zm-5.004 1.617q0-0.4659 0.1439-0.884 0.1507-0.4249 0.4249-0.74 0.2741-0.3221 0.6714-0.507 0.3974-0.1849 0.9045-0.1849 0.2672 0 0.4865 0.04796 0.2261 0.04112 0.4249 0.1302l-0.2946 0.6647q-0.1233-0.05481-0.2741-0.09593-0.1507-0.04112-0.37-0.04112-0.2946 0-0.5344 0.1233-0.233 0.1165-0.3974 0.3221t-0.2535 0.4865q-0.08907 0.2809-0.08907 0.5961 0 0.1781 0.03426 0.3289 0.04112 0.1439 0.1233 0.2604 0.08907 0.1096 0.2398 0.1714 0.1507 0.06168 0.3768 0.06168 0.233 0 0.4454-0.06168 0.2193-0.06167 0.3358-0.1233l0.06851 0.6784q-0.1576 0.07537-0.4179 0.1439-0.2604 0.07536-0.5893 0.07536-0.3768 0-0.6509-0.1096-0.274-0.1165-0.4591-0.3084-0.1781-0.1986-0.2672-0.4591-0.08223-0.2672-0.08223-0.5756zm-1.914-3.172 0.8633-0.137-0.2604 1.083h1.172l-0.1644 0.6852h-1.172l-0.3426 1.419q-0.03426 0.1507-0.04796 0.2535-0.01371 0.09593-0.01371 0.1781 0 0.08222 0.01371 0.1644 0.02056 0.07537 0.06851 0.137 0.05481 0.05481 0.1507 0.09593 0.1028 0.03426 0.2741 0.03426 0.1849 0 0.3563-0.04796t0.3014-0.1028l0.06167 0.6647q-0.1576 0.06851-0.3974 0.1302-0.2398 0.06167-0.5619 0.06167-0.5893 0-0.8428-0.2535-0.2535-0.2604-0.2535-0.7058 0-0.1644 0.02055-0.3358 0.0274-0.1781 0.07537-0.3768l0.6989-2.947zm-2.04 4.52h-0.82l0.8565-3.584h0.8291zm0.6167-4.125q-0.1849 0-0.3221-0.1096-0.137-0.1096-0.137-0.3289 0-0.2535 0.1714-0.4179 0.1781-0.1644 0.4042-0.1644 0.1849 0 0.3221 0.1165 0.1439 0.1096 0.1439 0.3289 0 0.2535-0.1781 0.4179-0.1781 0.1576-0.4042 0.1576zm-4.308 4.179q-0.3495 0-0.74-0.03426-0.3837-0.0274-0.6852-0.09593l1.103-4.598q0.3084-0.06851 0.6509-0.09593 0.3426-0.0274 0.6921-0.0274 0.2877 0 0.5824 0.04112 0.3014 0.04112 0.5414 0.1644 0.2398 0.1165 0.3905 0.3289 0.1576 0.2056 0.1576 0.5344 0 0.3632-0.2056 0.6852-0.1986 0.3221-0.6784 0.5207 0.3014 0.1233 0.4659 0.3563 0.1644 0.233 0.1644 0.5414 0 0.8017-0.6304 1.24-0.6235 0.4386-1.809 0.4386zm-0.07537-2.2-0.3495 1.46q0.09593 0.01371 0.2535 0.02741 0.1576 0.0068 0.3495 0.0068 0.2261 0 0.4728-0.03426t0.4454-0.1302q0.1986-0.09593 0.3289-0.2741 0.137-0.1781 0.137-0.4591 0-0.2604-0.1986-0.4249-0.2119-0.1662-0.6719-0.1662h-0.786zm0.1644-0.6647h0.6577q0.2124 0 0.4112-0.04112 0.1986-0.04112 0.3426-0.1302 0.1507-0.09593 0.2398-0.233 0.08907-0.137 0.08907-0.3358 0-0.3152-0.2398-0.4317-0.233-0.1165-0.6304-0.1165-0.1576 0-0.3152 0.01371-0.1576 0.0069-0.2535 0.02056l-0.321 1.26z"/>
 </g>
 <path fill-rule="evenodd" stroke-width="1.084" d="m25.6 19c0.2828-0.4327 1.364-3.057 1.479-3.35 0.2816 0.1068 1.713 0.7858 2.08 0.9018z" fill="url(#i)"/>
</svg>
