<?xml version="1.0" encoding="UTF-8" standalone="no"?>
<svg xmlns:rdf="http://www.w3.org/1999/02/22-rdf-syntax-ns#" xmlns="http://www.w3.org/2000/svg" height="128" width="128" version="1.1" xmlns:cc="http://creativecommons.org/ns#" xmlns:xlink="http://www.w3.org/1999/xlink" viewBox="0 0 36.124445 36.124445" xmlns:dc="http://purl.org/dc/elements/1.1/">
 <title>Bitcoin Cash accepted here</title>
 <defs>
  <linearGradient id="e" y2="8.331" gradientUnits="userSpaceOnUse" x2="14.33" gradientTransform="matrix(.7689 0 0 .7689 -10.78 4.08)" y1="54.71" x1="14.33">
   <stop stop-color="#dddddc" offset="0"/>
   <stop stop-color="#fefefe" offset="1"/>
  </linearGradient>
  <radialGradient id="b" gradientUnits="userSpaceOnUse" cy="9.283" cx="98.2" gradientTransform="matrix(-.6254 1.354 -3.523 -1.921 103.2 -85.9)" r="17.22">
   <stop stop-color="#9fd998" offset="0"/>
   <stop stop-color="#559360" offset=".06512"/>
   <stop stop-color="#7bbf6c" offset=".1977"/>
   <stop stop-color="#a0d999" offset=".2222"/>
   <stop stop-color="#6f9f6a" offset=".4268"/>
   <stop stop-color="#73b366" offset=".5081"/>
   <stop stop-color="#91d186" offset="0.54"/>
   <stop stop-color="#6ca977" offset=".6248"/>
   <stop stop-color="#a7df9b" offset=".7179"/>
   <stop stop-color="#fff" offset="1"/>
  </radialGradient>
  <radialGradient id="a" gradientUnits="userSpaceOnUse" cy="35.62" cx="37.47" gradientTransform="matrix(1.419 .009213 .01350 .1893 -35.5 23.88)" r="7.62">
   <stop stop-color="#546b56" offset="0"/>
   <stop stop-color="#aeb7a4" offset=".5724"/>
   <stop stop-color="#ebebeb" offset="1"/>
  </radialGradient>
  <linearGradient id="d" y2="6.584" gradientUnits="userSpaceOnUse" x2="76.5" gradientTransform="matrix(.6909 0 0 .6587 -30.41 13.03)" y1="27.14" x1="62.44">
   <stop stop-color="#f6f5e9" offset="0"/>
   <stop stop-color="#ccc19b" offset=".1619"/>
   <stop stop-color="#fcffec" offset=".3057"/>
   <stop stop-color="#dfece8" offset=".5130"/>
   <stop stop-color="#c9dda4" offset=".6102"/>
   <stop stop-color="#f7f5e3" offset=".7939"/>
   <stop stop-color="#cfe2d8" offset=".9229"/>
   <stop stop-color="#f6f4e4" offset="1"/>
  </linearGradient>
  <radialGradient id="c" gradientUnits="userSpaceOnUse" cy="24.91" cx="80.91" gradientTransform="matrix(-.5464 -.8050 .7707 -.5231 51.91 107.8)" r="2.38">
   <stop stop-opacity=".5055" offset="0"/>
   <stop stop-opacity=".09669" offset=".6284"/>
   <stop stop-opacity=".04706" offset=".7504"/>
   <stop stop-opacity="0" offset="1"/>
  </radialGradient>
 </defs>
 <metadata>
  <rdf:RDF>
   <cc:Work rdf:about="">
    <dc:format>image/svg+xml</dc:format>
    <dc:type rdf:resource="http://purl.org/dc/dcmitype/StillImage"/>
    <dc:title>Bitcoin Cash accepted here</dc:title>
    <dc:date>27.07.2018</dc:date>
    <dc:creator>
     <cc:Agent>
      <dc:title>Aleksander Erstu</dc:title>
     </cc:Agent>
    </dc:creator>
    <dc:rights>
     <cc:Agent>
      <dc:title>Copyright (c) 2018 Aleksander Erstu, Licensed under The MIT License (MIT)</dc:title>
     </cc:Agent>
    </dc:rights>
    <dc:publisher>
     <cc:Agent>
      <dc:title>CryptoGraffiti.info</dc:title>
     </cc:Agent>
    </dc:publisher>
    <dc:identifier>cash.svg</dc:identifier>
    <dc:source>CryptoGraffiti.info</dc:source>
    <dc:relation>matches with core.svg</dc:relation>
    <dc:language>english</dc:language>
    <dc:subject>
     <rdf:Bag>
      <rdf:li>bitcoin cash</rdf:li>
     </rdf:Bag>
    </dc:subject>
    <dc:coverage>World Wide Web</dc:coverage>
    <dc:description>An image of a paper money and the text: &quot;Bitcoin Cash accepted here&quot;.</dc:description>
    <dc:contributor>
     <cc:Agent>
      <dc:title>Aleksander Erstu (Initial work)</dc:title>
     </cc:Agent>
    </dc:contributor>
   </cc:Work>
  </rdf:RDF>
 </metadata>
 <g transform="translate(-.000004306 -10.25)">
  <g>
   <rect stroke-opacity=".9922" rx="0" ry="0" height="35.66" width="35.66" stroke="#b2b2b2" stroke-linecap="square" y="10.49" x=".2337" stroke-width=".4674" fill="url(#e)"/>
   <ellipse rx="11.25" ry="1.393" cy="30.76" cx="18.65" fill="url(#a)"/>
   <path d="m28.42 28.58c-0.5101-2.079 0.5727-3.474 0.0355-6.227-0.1988-1.019 0.2438-2.098 0.02405-4.297-8.835 1.334-2.326-0.1119-11.2 0.3044-3.229 0.1515-7.718 0.1155-9.562-0.2044-1.072 4.833 0.3761 8.587-0.2512 12.05 2.064 0.5408 5.46 0.3992 10.3 0.2791 3.028-0.07517 5.237 0.3162 7.307 0.3937" fill-rule="evenodd" stroke="#a58b5e" stroke-linecap="round" stroke-width=".1558" fill="url(#d)"/>
  </g>
  <g fill-opacity=".9922" transform="matrix(.7789 0 0 .7789 -1.845e-7 10.25)" fill="#fff">
   <path fill-opacity=".9922" fill="#fff" d="m36.22 40.06 0.6979-2.913h1.808l-0.1051 0.4414h-1.282l-0.1724 0.7315h1.135l-0.1051 0.433h-1.131l-0.2102 0.866h1.379l-0.1051 0.4414h-1.909zm-1.15-2.94q0.5213 0 0.7904 0.2186 0.2733 0.2144 0.2733 0.5718 0 0.1598-0.04624 0.3069-0.04204 0.1429-0.1387 0.2691-0.09249 0.1219-0.2438 0.2186-0.1471 0.09669-0.3573 0.1598 0.05465 0.09669 0.1177 0.2354 0.06306 0.1345 0.1303 0.2943 0.06727 0.1556 0.1303 0.3279 0.06306 0.1724 0.1135 0.3405h-0.5591q-0.05045-0.1513-0.1051-0.3069t-0.1135-0.2985q-0.05886-0.1471-0.1219-0.2733-0.05886-0.1303-0.1177-0.2312-0.03784 0.0042-0.09249 0.0042t-0.09669 0h-0.2438l-0.2649 1.106h-0.5297l0.6853-2.871q0.2018-0.04204 0.4078-0.05465 0.2102-0.01682 0.3826-0.01682zm0.5255 0.8492q0-0.2312-0.1682-0.3153-0.1682-0.08829-0.4498-0.08829-0.05886 0-0.1261 0.0042-0.06727 0.0042-0.1345 0.01261l-0.227 0.9501h0.2354q0.1892 0 0.3489-0.02943 0.1598-0.03363 0.2733-0.1009 0.1177-0.06727 0.1808-0.1724 0.06726-0.1093 0.06726-0.2607zm-4.407 2.094 0.6979-2.913h1.808l-0.1051 0.4414h-1.282l-0.1724 0.7315h1.135l-0.1051 0.433h-1.131l-0.2102 0.866h1.379l-0.1051 0.4414h-1.909zm-0.5016-2.913h0.5297l-0.6979 2.913h-0.5297l0.3111-1.295h-1.194l-0.3111 1.295h-0.5297l0.6979-2.913h0.5297l-0.2817 1.169h1.194l0.2817-1.169zm-5.728 2.48q0.04624 0.0084 0.1051 0.01261 0.06306 0 0.1934 0 0.3027 0 0.5465-0.09669t0.412-0.2733q0.1724-0.1808 0.2649-0.4288 0.09249-0.2522 0.09249-0.5591 0-0.3321-0.1892-0.5255t-0.618-0.1934q-0.1093 0-0.1766 0.0042-0.06306 0.0042-0.1387 0.01261l-0.4919 2.047zm2.161-1.362q0 0.391-0.1261 0.7273t-0.3742 0.5802q-0.248 0.2438-0.6222 0.3826-0.37 0.1387-0.8618 0.1387-0.1766 0-0.3952-0.02102-0.2186-0.01682-0.4036-0.05886l0.6769-2.821q0.206-0.04624 0.4162-0.05886 0.2102-0.01682 0.3868-0.01682 0.3195 0 0.5633 0.08408 0.2438 0.07988 0.4078 0.2312 0.164 0.1471 0.248 0.3616 0.08408 0.2102 0.08408 0.4709zm-5.202 1.795 0.6979-2.913h1.808l-0.1051 0.4414h-1.282l-0.1724 0.7315h1.135l-0.1051 0.433h-1.131l-0.2102 0.866h1.379l-0.1051 0.4414h-1.909zm0.29-2.913-0.1093 0.4456h-0.866l-0.5928 2.468h-0.5297l0.5928-2.468h-0.866l0.1051-0.4456h2.266zm-3.74-0.03q0.5255 0 0.803 0.206 0.2817 0.206 0.2817 0.5886 0 0.3027-0.1177 0.5171-0.1135 0.2102-0.3195 0.3447-0.2018 0.1345-0.4877 0.1976-0.2817 0.05886-0.6222 0.05886h-0.227l-0.248 1.03h-0.5297l0.6853-2.871q0.2018-0.04204 0.4036-0.05465 0.2018-0.01682 0.3784-0.01682zm-0.05045 0.4456q-0.07988 0-0.1513 0.0042-0.07147 0.0042-0.1429 0.01261l-0.2396 1.005h0.2144q0.1766 0 0.3405-0.02943 0.164-0.02943 0.2901-0.09669 0.1261-0.07147 0.2018-0.1892 0.07567-0.1219 0.07567-0.3069 0-0.2144-0.1598-0.3069-0.1556-0.09249-0.4288-0.09249zm-3.823 2.497 0.6979-2.913h1.808l-0.1051 0.4414h-1.282l-0.1724 0.7315h1.135l-0.1051 0.433h-1.131l-0.2102 0.866h1.379l-0.1051 0.4414h-1.909zm-0.3509-0.1261q-0.1387 0.07147-0.3531 0.1303-0.2144 0.05886-0.5213 0.05886-0.2691 0-0.4793-0.07988-0.2102-0.08408-0.3573-0.2396-0.1471-0.1556-0.227-0.3742-0.07567-0.2186-0.07567-0.4919 0-0.3531 0.1177-0.6853 0.1177-0.3363 0.3405-0.597t0.5423-0.4162q0.3195-0.1598 0.7231-0.1598 0.2649 0 0.4582 0.05886 0.1976 0.05886 0.3447 0.1429l-0.2018 0.4246q-0.1345-0.07988-0.2901-0.1219-0.1513-0.04625-0.3447-0.04625-0.2649 0-0.4751 0.1177t-0.3616 0.3111q-0.1471 0.1892-0.227 0.433-0.07567 0.2438-0.07567 0.4961 0 0.391 0.1682 0.5802 0.1724 0.185 0.5003 0.185 0.2522 0 0.4288-0.05465 0.1766-0.05886 0.3027-0.1177l0.06306 0.4456zm-2.43 0q-0.1387 0.07147-0.3531 0.1303-0.2144 0.05886-0.5213 0.05886-0.2691 0-0.4793-0.07988-0.22-0.09-0.37-0.24-0.142-0.16-0.222-0.38-0.076-0.21-0.076-0.49 0-0.3531 0.1177-0.6853 0.1177-0.3363 0.3405-0.597t0.5423-0.4162q0.3195-0.1598 0.7231-0.1598 0.2649 0 0.4582 0.05886 0.1976 0.05886 0.3447 0.1429l-0.2018 0.4246q-0.1345-0.07988-0.2901-0.1219-0.1513-0.04625-0.3447-0.04625-0.2649 0-0.4751 0.1177t-0.3616 0.3111q-0.1471 0.1892-0.227 0.433-0.07567 0.2438-0.07567 0.4961 0 0.391 0.1682 0.5802 0.1724 0.185 0.5003 0.185 0.2522 0 0.4288-0.05465 0.1766-0.05886 0.3027-0.1177l0.06306 0.4456zm-2.938 0.1261q-0.01261-0.1766-0.02943-0.3489-0.01261-0.1766-0.02943-0.3405h-1.181q-0.09669 0.164-0.1934 0.3363-0.09249 0.1682-0.1892 0.3531h-0.5676q0.252-0.45 0.484-0.85 0.235-0.39 0.454-0.75 0.222-0.36 0.437-0.68 0.218-0.33 0.437-0.64h0.4919q0.1345 0.6264 0.2312 1.371 0.09669 0.7399 0.185 1.543h-0.5339zm-0.249-2.36q-0.1598 0.248-0.3573 0.5591-0.1934 0.3069-0.412 0.6895h0.9123q-0.025-0.3-0.063-0.61-0.033-0.32-0.08-0.64zm29.77-3.912v-4.801l0.7684-0.127v1.645q0.127-0.04445 0.2921-0.0762 0.1714-0.03175 0.3366-0.03175 0.4 0 0.6604 0.1143 0.2667 0.108 0.4254 0.3112 0.1588 0.1968 0.2222 0.4762 0.06985 0.2794 0.06985 0.6223v1.867h-0.7684v-1.746q0-0.2667-0.0381-0.4508-0.03175-0.1905-0.1143-0.3048-0.0762-0.1206-0.2096-0.1714-0.1334-0.05715-0.3302-0.05715-0.1524 0-0.3112 0.03175t-0.235 0.05715v2.642h-0.7684zm-2.353-0.5524q0.3048 0 0.4445-0.06985 0.1397-0.0762 0.1397-0.254 0-0.1651-0.1524-0.273-0.146-0.108-0.489-0.235-0.2096-0.0762-0.3874-0.1588-0.1714-0.0889-0.2984-0.2032t-0.2032-0.273q-0.06985-0.1651-0.06985-0.4 0-0.4572 0.3366-0.7176 0.3366-0.2667 0.9144-0.2667 0.2921 0 0.5588 0.05715 0.2667 0.0508 0.4 0.1016l-0.1397 0.6223q-0.127-0.05715-0.3238-0.1016-0.1968-0.0508-0.4572-0.0508-0.235 0-0.381 0.08255-0.146 0.0762-0.146 0.2413 0 0.08255 0.0254 0.146 0.03175 0.0635 0.1016 0.1206 0.06985 0.0508 0.1842 0.108 0.1143 0.0508 0.2794 0.108 0.273 0.1016 0.4636 0.2032 0.1905 0.09525 0.3112 0.2222 0.127 0.1206 0.1842 0.2794 0.05715 0.1588 0.05715 0.381 0 0.4762-0.3556 0.7239-0.3492 0.2413-1.003 0.2413-0.4382 0-0.7048-0.0762-0.2667-0.06985-0.3746-0.1143l0.1334-0.6414q0.1714 0.06985 0.4064 0.1334 0.2413 0.0635 0.5461 0.0635zm-3.332 0.0127q0.3556 0 0.5398-0.0381v-0.8509q-0.0635-0.01905-0.1842-0.0381-0.1206-0.01905-0.2667-0.01905-0.127 0-0.2604 0.01905-0.127 0.01905-0.235 0.06985-0.1016 0.0508-0.1651 0.146-0.0635 0.0889-0.0635 0.2286 0 0.273 0.1714 0.381 0.1714 0.1016 0.4636 0.1016zm-0.0635-2.864q0.381 0 0.6414 0.09525t0.4128 0.2667q0.1588 0.1714 0.2222 0.4191 0.06985 0.2413 0.06985 0.5334v2.013q-0.1778 0.0381-0.5398 0.0889-0.3556 0.05715-0.8064 0.05715-0.2984 0-0.5461-0.05715-0.2476-0.05715-0.4254-0.1842-0.1714-0.127-0.273-0.3302-0.09525-0.2032-0.09525-0.5016 0-0.2858 0.108-0.4826 0.1143-0.1968 0.3048-0.3175 0.1905-0.127 0.4382-0.1778 0.254-0.05715 0.527-0.05715 0.127 0 0.2667 0.01905 0.1397 0.0127 0.2984 0.0508v-0.127q0-0.1334-0.03175-0.254t-0.1143-0.2096q-0.0762-0.09525-0.2096-0.146-0.127-0.0508-0.3238-0.0508-0.2667 0-0.489 0.0381-0.2222 0.0381-0.362 0.0889l-0.09525-0.6223q0.146-0.0508 0.4254-0.1016t0.5969-0.0508zm-3.449 3.499q-0.4953 0-0.889-0.1524t-0.6668-0.4445q-0.273-0.2984-0.4191-0.7239-0.146-0.4254-0.146-0.9779 0-0.5524 0.1651-0.9779 0.1714-0.4254 0.4636-0.7176 0.2921-0.2984 0.6858-0.4508t0.8446-0.1524q0.273 0 0.4953 0.04445 0.2222 0.0381 0.3874 0.0889 0.1651 0.0508 0.273 0.108 0.108 0.05715 0.1524 0.08255l-0.235 0.654q-0.1524-0.09525-0.4382-0.1778-0.2794-0.0889-0.6096-0.0889-0.2858 0-0.5334 0.1016-0.2476 0.09525-0.4318 0.2921-0.1778 0.1968-0.2794 0.4953-0.1016 0.2984-0.1016 0.6922 0 0.3492 0.0762 0.6414 0.08255 0.2921 0.2476 0.508 0.1651 0.2096 0.4191 0.3302 0.254 0.1143 0.6096 0.1143 0.4254 0 0.6922-0.08255 0.2667-0.0889 0.4128-0.1651l0.2159 0.654q-0.0762 0.0508-0.2096 0.1016-0.127 0.0508-0.3048 0.1016-0.1778 0.04445-0.4 0.06985-0.2222 0.03175-0.4762 0.03175zm-6.587-3.277q0.254-0.0762 0.5778-0.1397 0.3302-0.06985 0.7176-0.06985 0.5842 0 0.8572 0.2858t0.273 0.7684q0 0.1334-0.0254 0.2858-0.01905 0.146-0.0508 0.3048l-0.4191 1.746h-0.7684l0.3937-1.664q0.03175-0.1397 0.0635-0.2858 0.03175-0.146 0.0381-0.2794 0.0064-0.2222-0.108-0.3683-0.108-0.146-0.4318-0.146-0.273 0-0.4699 0.05715l-0.6414 2.686h-0.7684l0.762-3.181zm-1.724 3.181h-0.762l0.7938-3.321h0.7684l-0.8001 3.321zm0.5715-3.823q-0.1714 0-0.2984-0.1016t-0.127-0.3048q0-0.235 0.1588-0.3874 0.1651-0.1524 0.3746-0.1524 0.1714 0 0.2984 0.108 0.1334 0.1016 0.1334 0.3048 0 0.235-0.1651 0.3874-0.1651 0.146-0.3746 0.146zm-3.54 3.912q-0.5906 0-0.9017-0.3492-0.3112-0.3492-0.3112-0.9208 0-0.3683 0.1143-0.762t0.3492-0.7176q0.235-0.3238 0.5906-0.5334t0.8382-0.2096q0.5906 0 0.9017 0.3492 0.3112 0.3429 0.3112 0.9144 0 0.3746-0.1143 0.7684-0.108 0.3937-0.3429 0.7176-0.2286 0.3238-0.5906 0.5334-0.3556 0.2096-0.8446 0.2096zm0.5842-2.845q-0.2476 0-0.4445 0.146-0.1905 0.1397-0.3238 0.362-0.127 0.2222-0.1968 0.489-0.06985 0.2604-0.06985 0.508 0 0.3175 0.1206 0.5016 0.1206 0.1842 0.4254 0.1842 0.2476 0 0.4382-0.1397 0.1968-0.146 0.3238-0.362 0.1334-0.2222 0.2032-0.489 0.06985-0.2667 0.06985-0.508 0-0.3175-0.1206-0.5016-0.1206-0.1905-0.4254-0.1905zm-4.637 1.499q0-0.4318 0.1334-0.8192 0.1397-0.3937 0.3937-0.6858 0.254-0.2984 0.6223-0.4699 0.3683-0.1714 0.8382-0.1714 0.2476 0 0.4508 0.04445 0.2096 0.0381 0.3937 0.1206l-0.273 0.616q-0.1143-0.0508-0.254-0.0889t-0.3429-0.0381q-0.273 0-0.4953 0.1143-0.2159 0.108-0.3683 0.2984-0.1524 0.1905-0.235 0.4508-0.08255 0.2604-0.08255 0.5524 0 0.1651 0.03175 0.3048 0.0381 0.1334 0.1143 0.2413 0.08255 0.1016 0.2222 0.1588 0.1397 0.05715 0.3492 0.05715 0.2159 0 0.4128-0.05715 0.2032-0.05715 0.3112-0.1143l0.0635 0.6286q-0.146 0.06985-0.3874 0.1334-0.2413 0.06985-0.5461 0.06985-0.3492 0-0.6032-0.1016-0.254-0.108-0.4254-0.2858-0.1651-0.1842-0.2476-0.4254-0.0762-0.2476-0.0762-0.5334zm-1.774-2.94 0.8001-0.127-0.2413 1.003h1.086l-0.1524 0.635h-1.086l-0.3175 1.314q-0.03175 0.1397-0.04445 0.235-0.0127 0.0889-0.0127 0.1651t0.0127 0.1524q0.01905 0.06985 0.0635 0.127 0.0508 0.0508 0.1397 0.0889 0.09525 0.03175 0.254 0.03175 0.1714 0 0.3302-0.04445t0.2794-0.09525l0.05715 0.616q-0.146 0.0635-0.3683 0.1206-0.2222 0.05715-0.5207 0.05715-0.5461 0-0.781-0.235-0.235-0.2413-0.235-0.654 0-0.1524 0.01905-0.3112 0.0254-0.1651 0.06985-0.3492l0.6477-2.73zm-1.883 4.197h-0.762l0.7937-3.321h0.7684l-0.8001 3.321zm0.5715-3.823q-0.1714 0-0.2984-0.1016t-0.127-0.3048q0-0.235 0.1588-0.3874 0.1651-0.1524 0.3746-0.1524 0.1714 0 0.2984 0.108 0.1334 0.1016 0.1334 0.3048 0 0.235-0.1651 0.3874-0.1651 0.146-0.3746 0.146zm-3.993 3.874q-0.3238 0-0.6858-0.03175-0.3556-0.0254-0.635-0.0889l1.022-4.261q0.2858-0.0635 0.6032-0.0889 0.3175-0.0254 0.6414-0.0254 0.2667 0 0.5398 0.0381 0.2794 0.0381 0.5016 0.1524 0.2222 0.108 0.362 0.3048 0.146 0.1905 0.146 0.4953 0 0.3366-0.1905 0.635-0.1842 0.2984-0.6286 0.4826 0.2794 0.1143 0.4318 0.3302t0.1524 0.5016q0 0.743-0.5842 1.149-0.5778 0.4064-1.676 0.4064zm-0.06985-2.038-0.3238 1.353q0.0889 0.0127 0.235 0.0254 0.146 0.0064 0.3238 0.0064 0.2096 0 0.4382-0.03175t0.4128-0.1206q0.1842-0.0889 0.3048-0.254 0.127-0.1651 0.127-0.4254 0-0.2413-0.1842-0.3937-0.1842-0.1588-0.6096-0.1588h-0.7239zm0.1524-0.616h0.6096q0.1968 0 0.381-0.0381t0.3175-0.1206q0.1397-0.0889 0.2222-0.2159 0.08255-0.127 0.08255-0.3112 0-0.2921-0.2222-0.4-0.2159-0.108-0.5842-0.108-0.146 0-0.2921 0.0127-0.146 0.0063-0.235 0.01905l-0.2794 1.162z"/>
  </g>
  <g>
   <path fill="#4d4d4d" d="m17.61 33.77q0.1979-0.05936 0.4501-0.1088 0.2572-0.05441 0.5589-0.05441 0.4551 0 0.6677 0.2226 0.2127 0.2226 0.2127 0.5985 0 0.1039-0.01979 0.2226-0.01484 0.1138-0.03957 0.2374l-0.3265 1.36h-0.5985l0.3067-1.296q0.02473-0.1088 0.04946-0.2226t0.02968-0.2176q0.005-0.1731-0.08409-0.2869-0.08409-0.1138-0.3363-0.1138-0.2127 0-0.366 0.04452l-0.4996 2.092h-0.5985l0.5936-2.478zm-1.343 2.478h-0.5936l0.6183-2.587h0.5985l-0.6232 2.587zm0.4452-2.978q-0.1335 0-0.2325-0.07914-0.09893-0.07914-0.09893-0.2374 0-0.183 0.1237-0.3017 0.1286-0.1187 0.2918-0.1187 0.1336 0 0.2325 0.08409 0.1039 0.07914 0.1039 0.2374 0 0.183-0.1286 0.3017-0.1286 0.1138-0.2918 0.1138zm-2.758 3.047q-0.46 0-0.7024-0.272t-0.2424-0.7172q0-0.2869 0.08903-0.5936t0.272-0.5589q0.183-0.2523 0.46-0.4155t0.6529-0.1632q0.46 0 0.7024 0.272 0.2424 0.2671 0.2424 0.7123 0 0.2918-0.08903 0.5985-0.08409 0.3067-0.2671 0.5589-0.1781 0.2523-0.46 0.4155-0.277 0.1632-0.6579 0.1632zm0.4551-2.216q-0.1929 0-0.3462 0.1138-0.1484 0.1088-0.2523 0.2819-0.09892 0.1731-0.1533 0.3809-0.05441 0.2028-0.05441 0.3957 0 0.2473 0.09398 0.3908 0.09398 0.1434 0.3314 0.1434 0.1929 0 0.3413-0.1088 0.1533-0.1138 0.2523-0.2819 0.1039-0.1731 0.1583-0.3809 0.05441-0.2077 0.05441-0.3957 0-0.2473-0.09398-0.3908-0.09398-0.1484-0.3314-0.1484zm-3.612 1.167q0-0.3363 0.1039-0.6381 0.1088-0.3067 0.3067-0.5342 0.1979-0.2325 0.4847-0.366 0.2869-0.1335 0.6529-0.1335 0.1929 0 0.3512 0.03462 0.1632 0.02968 0.3067 0.09398l-0.2127 0.4798q-0.08903-0.03957-0.1979-0.06925-0.1088-0.02968-0.2671-0.02968-0.2127 0-0.3858 0.08903-0.1682 0.08409-0.2869 0.2325t-0.183 0.3512-0.0643 0.4303q0 0.1286 0.02473 0.2374 0.02968 0.1039 0.08903 0.188 0.0643 0.07914 0.1731 0.1237 0.1088 0.04452 0.272 0.04452 0.1682 0 0.3215-0.04452 0.1583-0.04452 0.2424-0.08903l0.04946 0.4897q-0.1138 0.05441-0.3017 0.1039-0.188 0.05441-0.4254 0.05441-0.272 0-0.4699-0.07914-0.1978-0.08409-0.3314-0.2226-0.1286-0.1434-0.1929-0.3314-0.05936-0.1929-0.05936-0.4155zm-1.382-2.29 0.6232-0.09893-0.188 0.7815h0.8458l-0.1187 0.4946h-0.8458l-0.2473 1.024q-0.02473 0.1088-0.03462 0.183-0.00989 0.06925-0.00989 0.1286t0.00989 0.1187q0.01484 0.05441 0.04946 0.09893 0.03957 0.03957 0.1088 0.06925 0.07419 0.02473 0.1979 0.02473 0.1335 0 0.2572-0.03462t0.2176-0.07419l0.04452 0.4798q-0.1138 0.04946-0.2869 0.09398t-0.4056 0.04452q-0.4254 0-0.6084-0.183-0.183-0.188-0.183-0.5095 0-0.1187 0.01484-0.2424 0.01978-0.1286 0.05441-0.272l0.5045-2.127zm-1.466 3.269h-0.5936l0.6183-2.587h0.5985l-0.6232 2.587zm0.4452-2.978q-0.1335 0-0.2325-0.07914-0.09892-0.07914-0.09892-0.2374 0-0.183 0.1237-0.3017 0.1286-0.1187 0.2918-0.1187 0.1335 0 0.2325 0.08409 0.1039 0.07914 0.1039 0.2374 0 0.183-0.1286 0.3017-0.1286 0.1138-0.2918 0.1138zm-3.11 3.017q-0.2523 0-0.5342-0.02473-0.277-0.01978-0.4946-0.06925l0.7963-3.319q0.2226-0.04946 0.4699-0.06925 0.2473-0.01978 0.4996-0.01978 0.2077 0 0.4204 0.02968 0.2176 0.02968 0.3908 0.1187 0.1731 0.08409 0.2819 0.2374 0.1138 0.1484 0.1138 0.3858 0 0.2622-0.1484 0.4946-0.1434 0.2325-0.4897 0.3759 0.2176 0.08903 0.3363 0.2572t0.1187 0.3908q0 0.5787-0.4551 0.8953-0.4501 0.3166-1.306 0.3166zm-0.05441-1.588-0.2523 1.054q0.06925 0.0099 0.183 0.01978 0.1138 0.0049 0.2523 0.0049 0.1632 0 0.3413-0.02473t0.3215-0.09398 0.2374-0.1979q0.09892-0.1286 0.09892-0.3314 0-0.188-0.1434-0.3067-0.153-0.12-0.485-0.12h-0.5639zm0.1187-0.4798h0.4748q0.1533 0 0.2968-0.02968 0.1434-0.02968 0.2473-0.09398 0.1088-0.06925 0.1731-0.1682 0.0643-0.09893 0.0643-0.2424 0-0.2275-0.1731-0.3116-0.1682-0.08409-0.4551-0.08409-0.1138 0-0.2275 0.0099-0.1138 0.005-0.183 0.01484l-0.228 0.91z"/>
   <path fill="#60b750" d="m29.91 36.25v-3.739l0.5985-0.09893v1.281q0.09893-0.03462 0.2275-0.05936 0.1335-0.02473 0.2622-0.02473 0.3116 0 0.5144 0.08903 0.2077 0.08409 0.3314 0.2424 0.1237 0.1533 0.1731 0.371 0.05441 0.2176 0.05441 0.4847v1.454h-0.5985v-1.36q0-0.2077-0.02968-0.3512-0.02473-0.1484-0.08903-0.2374-0.05936-0.09398-0.1632-0.1335-0.1039-0.04452-0.2572-0.04452-0.1187 0-0.2424 0.02473t-0.183 0.04452v2.058h-0.5985zm-1.832-0.4303q0.2374 0 0.3462-0.05441 0.1088-0.05936 0.1088-0.1978 0-0.1286-0.1187-0.2127-0.1138-0.08409-0.3809-0.183-0.1632-0.05935-0.3017-0.1237-0.1335-0.06925-0.2325-0.1583-0.09893-0.08903-0.1583-0.2127-0.05441-0.1286-0.05441-0.3116 0-0.3561 0.2622-0.5589 0.2622-0.2077 0.7123-0.2077 0.2275 0 0.4353 0.04452 0.2077 0.03957 0.3116 0.07914l-0.1088 0.4847q-0.09893-0.04452-0.2523-0.07914-0.1533-0.03957-0.3561-0.03957-0.183 0-0.2968 0.0643-0.1138 0.05936-0.1138 0.188 0 0.0643 0.01978 0.1138 0.02473 0.04946 0.07914 0.09398 0.05441 0.03957 0.1434 0.08409 0.08903 0.03957 0.2176 0.08409 0.2127 0.07914 0.3611 0.1583 0.1484 0.07419 0.2424 0.1731 0.09893 0.09398 0.1434 0.2176 0.04452 0.1237 0.04452 0.2968 0 0.371-0.277 0.5639-0.272 0.188-0.7815 0.188-0.3413 0-0.549-0.05936-0.2077-0.05441-0.2918-0.08903l0.1039-0.4996q0.1335 0.05441 0.3166 0.1039 0.188 0.04946 0.4254 0.04946zm-2.595 0.0099q0.277 0 0.4204-0.02968v-0.6628q-0.04946-0.01484-0.1434-0.02968-0.09398-0.01484-0.2077-0.01484-0.09892 0-0.2028 0.01484-0.09892 0.01484-0.183 0.05441-0.07914 0.03957-0.1286 0.1138-0.04946 0.06925-0.04946 0.1781 0 0.2127 0.1335 0.2968 0.1335 0.07914 0.3611 0.07914zm-0.04946-2.231q0.2968 0 0.4996 0.07419t0.3215 0.2077q0.1237 0.1335 0.1731 0.3265 0.05441 0.188 0.05441 0.4155v1.568q-0.1385 0.02968-0.4204 0.06925-0.277 0.04452-0.6282 0.04452-0.2325 0-0.4254-0.04452t-0.3314-0.1434q-0.1335-0.09893-0.2127-0.2572-0.07419-0.1583-0.07419-0.3908 0-0.2226 0.08409-0.3759 0.08903-0.1533 0.2374-0.2473 0.1484-0.09893 0.3413-0.1385 0.1979-0.04452 0.4105-0.04452 0.09893 0 0.2077 0.01484 0.1088 0.0099 0.2325 0.03957v-0.09893q0-0.1039-0.02473-0.1978-0.02473-0.09398-0.08903-0.1632-0.05936-0.07419-0.1632-0.1138-0.09893-0.03957-0.2523-0.03957-0.2077 0-0.3809 0.02968-0.1731 0.02968-0.2819 0.06925l-0.07419-0.4847q0.1138-0.03957 0.3314-0.07914t0.4649-0.03957zm-2.686 2.725q-0.3858 0-0.6925-0.1187t-0.5194-0.3462q-0.2127-0.2325-0.3265-0.5639t-0.1138-0.7617 0.1286-0.7617q0.1335-0.3314 0.3611-0.5589 0.2275-0.2325 0.5342-0.3512t0.6579-0.1187q0.2127 0 0.3858 0.03462 0.1731 0.02968 0.3017 0.06925t0.2127 0.08409q0.08409 0.04452 0.1187 0.0643l-0.183 0.5095q-0.1187-0.07419-0.3413-0.1385-0.2176-0.06925-0.4748-0.06925-0.2226 0-0.4155 0.07914-0.1929 0.07419-0.3363 0.2275-0.1385 0.1533-0.2176 0.3858-0.07914 0.2325-0.07914 0.5391 0 0.272 0.05936 0.4996 0.0643 0.2275 0.1929 0.3957 0.1286 0.1632 0.3265 0.2572 0.1979 0.08903 0.4748 0.08903 0.3314 0 0.5391-0.0643 0.2077-0.06925 0.3215-0.1286l0.1682 0.5095q-0.05936 0.03957-0.1632 0.07914-0.09893 0.03957-0.2374 0.07914-0.1385 0.03462-0.3116 0.05441-0.1731 0.02473-0.371 0.02473z"/>
   <g fill="#4d4d4d" transform="matrix(.7789 0 0 .7789 -1.845e-7 10.25)">
    <path fill="#4d4d4d" d="m36.22 39.76 0.6979-2.913h1.808l-0.1051 0.4414h-1.282l-0.1724 0.7315h1.135l-0.1051 0.433h-1.131l-0.2102 0.866h1.379l-0.1051 0.4414h-1.909zm-1.15-2.95q0.5213 0 0.7904 0.2186 0.2733 0.2144 0.2733 0.5718 0 0.1598-0.04624 0.3069-0.04204 0.1429-0.1387 0.2691-0.09249 0.1219-0.2438 0.2186-0.1471 0.09669-0.3573 0.1598 0.05465 0.09669 0.1177 0.2354 0.06306 0.1345 0.1303 0.2943 0.06727 0.1556 0.1303 0.3279 0.06306 0.1724 0.1135 0.3405h-0.5591q-0.05045-0.1513-0.1051-0.3069t-0.1135-0.2985q-0.05886-0.1471-0.1219-0.2733-0.05886-0.1303-0.1177-0.2312-0.03784 0.0042-0.09249 0.0042t-0.09669 0h-0.2438l-0.2649 1.106h-0.5297l0.6853-2.871q0.2018-0.04204 0.4078-0.05465 0.2102-0.01682 0.3826-0.01682zm0.5255 0.8492q0-0.2312-0.1682-0.3153-0.1682-0.08829-0.4498-0.08829-0.05886 0-0.1261 0.0042-0.06727 0.0042-0.1345 0.01261l-0.227 0.9501h0.2354q0.1892 0 0.3489-0.02943 0.1598-0.03363 0.2733-0.1009 0.1177-0.06726 0.1808-0.1724 0.06726-0.1093 0.06726-0.2607zm-4.407 2.094 0.6979-2.913h1.808l-0.1051 0.4414h-1.282l-0.1724 0.7315h1.135l-0.1051 0.433h-1.131l-0.2102 0.866h1.379l-0.1051 0.4414h-1.909zm-0.5016-2.913h0.5297l-0.6979 2.913h-0.5297l0.3111-1.295h-1.194l-0.3111 1.295h-0.5297l0.6979-2.913h0.5297l-0.2817 1.169h1.194l0.2817-1.169zm-5.728 2.48q0.04624 0.0084 0.1051 0.01261 0.06306 0 0.1934 0 0.3027 0 0.5465-0.09669t0.412-0.2733q0.1724-0.1808 0.2649-0.4288 0.09249-0.2522 0.09249-0.5591 0-0.3321-0.1892-0.5255t-0.618-0.1934q-0.1093 0-0.1766 0.0042-0.06306 0.0042-0.1387 0.01261l-0.4919 2.047zm2.16-1.36q0 0.391-0.1261 0.7273t-0.3742 0.5802q-0.248 0.2438-0.6222 0.3826-0.37 0.1387-0.8618 0.1387-0.1766 0-0.3952-0.02102-0.2186-0.01682-0.4036-0.05886l0.6769-2.821q0.206-0.04624 0.4162-0.05886 0.2102-0.01682 0.3868-0.01682 0.3195 0 0.5633 0.08408 0.2438 0.07988 0.4078 0.2312 0.164 0.1471 0.248 0.3616 0.08408 0.2102 0.08408 0.4709zm-5.202 1.795 0.6979-2.913h1.808l-0.1051 0.4414h-1.282l-0.1724 0.7315h1.135l-0.1051 0.433h-1.131l-0.2102 0.866h1.379l-0.1051 0.4414h-1.909zm0.29-2.913-0.1093 0.4456h-0.866l-0.5928 2.468h-0.5297l0.5928-2.468h-0.866l0.1051-0.4456h2.266zm-3.741-0.02943q0.5255 0 0.803 0.206 0.2817 0.206 0.2817 0.5886 0 0.3027-0.1177 0.5171-0.1135 0.2102-0.3195 0.3447-0.2018 0.1345-0.4877 0.1976-0.2817 0.05886-0.6222 0.05886h-0.227l-0.248 1.03h-0.5297l0.6853-2.871q0.2018-0.04204 0.4036-0.05465 0.2018-0.01682 0.3784-0.01682zm-0.05045 0.4456q-0.07988 0-0.1513 0.0042-0.07147 0.0042-0.1429 0.01261l-0.2396 1.005h0.2144q0.1766 0 0.3405-0.02943 0.164-0.02943 0.2901-0.09669 0.1261-0.07147 0.2018-0.1892 0.07567-0.1219 0.07567-0.3069 0-0.2144-0.1598-0.3069-0.1556-0.09249-0.4288-0.09249zm-3.823 2.497 0.6979-2.913h1.808l-0.1051 0.4414h-1.282l-0.1724 0.7315h1.135l-0.1051 0.433h-1.131l-0.2102 0.866h1.379l-0.1051 0.4414h-1.909zm-0.3509-0.1261q-0.1387 0.07147-0.3531 0.1303-0.2144 0.05886-0.5213 0.05886-0.2691 0-0.4793-0.07988-0.2102-0.08408-0.3573-0.2396-0.1471-0.1556-0.227-0.3742-0.07567-0.2186-0.07567-0.4919 0-0.3531 0.1177-0.6853 0.1177-0.3363 0.3405-0.597t0.5423-0.4162q0.3195-0.1598 0.7231-0.1598 0.2649 0 0.4582 0.05886 0.1976 0.05886 0.3447 0.1429l-0.2018 0.4246q-0.1345-0.07988-0.2901-0.1219-0.1513-0.04624-0.3447-0.04624-0.2649 0-0.4751 0.1177t-0.3616 0.3111q-0.1471 0.1892-0.227 0.433-0.07567 0.2438-0.07567 0.4961 0 0.391 0.1682 0.5802 0.1724 0.185 0.5003 0.185 0.2522 0 0.4288-0.05465 0.1766-0.05886 0.3027-0.1177l0.06306 0.4456zm-2.43 0q-0.1387 0.07147-0.3531 0.1303-0.2144 0.05886-0.5213 0.05886-0.2691 0-0.4793-0.07988-0.22-0.09-0.37-0.25-0.142-0.16-0.222-0.37-0.076-0.22-0.076-0.5 0-0.3531 0.1177-0.6853 0.1177-0.3363 0.3405-0.597t0.5423-0.4162q0.3195-0.1598 0.7231-0.1598 0.2649 0 0.4582 0.05886 0.1976 0.05886 0.3447 0.1429l-0.2018 0.4246q-0.1345-0.07988-0.2901-0.1219-0.1513-0.04624-0.3447-0.04624-0.2649 0-0.4751 0.1177t-0.3616 0.3111q-0.1471 0.1892-0.227 0.433-0.07567 0.2438-0.07567 0.4961 0 0.391 0.1682 0.5802 0.1724 0.185 0.5003 0.185 0.2522 0 0.4288-0.05465 0.1766-0.05886 0.3027-0.1177l0.06306 0.4456zm-2.938 0.1261q-0.01261-0.1766-0.02943-0.3489-0.01261-0.1766-0.02943-0.3405h-1.181q-0.09669 0.164-0.1934 0.3363-0.09249 0.1682-0.1892 0.3531h-0.5676q0.2564-0.4456 0.4877-0.8408 0.2354-0.3952 0.454-0.7525 0.2228-0.3573 0.4372-0.6811 0.2186-0.3279 0.4372-0.639h0.4919q0.1345 0.6264 0.2312 1.371 0.09669 0.7399 0.185 1.543h-0.5339zm-0.249-2.37q-0.1598 0.248-0.3573 0.5591-0.1934 0.3069-0.412 0.6895h0.9123q-0.025-0.3-0.063-0.61-0.033-0.32-0.08-0.64z"/>
   </g>
   <path d="m9.091 19.2c-0.2439 2.497-0.2752 3.1-0.1267 4.822 0.1425 1.653 0.3069 4.312 0.0644 5.197 0.5596 0.3388 3.155 0.2632 4.795 0.3048-1.835-1.13-2.633-3.209-2.41-5.284 0.2277-2.076 1.447-3.905 2.959-4.841-2.362 0.1089-3.719-0.0072-5.282-0.1997zm18.04 10.27c-0.4847-1.82-0.3762-1.64-0.2443-4.522 0.03912-0.8548 0.3295-2.099 0.05496-3.373-0.1494-0.6934 0.07772-1.335-0.07556-2.159-3.589 0.6379-2.863-0.1147-4.74-0.08845-0.1251 0.0018-0.2619 0.007-0.4122 0.01632 1.431 0.8726 2.597 2.423 2.768 4.609 0.1668 2.127-0.9015 4.472-2.555 5.471 1.387-0.05414 3.284 0.4231 4.974 0.2052m-8.86-10.11c-3.318 0.0079-4.93 2.475-5.239 4.714-0.3002 2.806 1.622 5.08 4.405 5.242 0.2527 0.01471 0.5196-0.0055 0.7364-0.01159 3.075-0.08689 5.138-2.522 5.101-5.433-0.03099-2.396-2.598-4.517-5.003-4.511zm-0.2095 1.286 0.2417 1.045c0.3834-0.0025 0.7371 0.02938 1.027 0.1494 0.3084 0.1277 0.5523 0.3483 0.6938 0.6874 0.1369 0.3281 0.156 0.5953 0.09274 0.8111-0.05096 0.1738-0.1243 0.2817-0.2499 0.3903 0.2713 0.05017 0.4771 0.1314 0.6681 0.3079 0.2197 0.203 0.3674 0.5027 0.4246 0.9176 0.07154 0.5173-0.07044 0.8908-0.3667 1.14-0.2778 0.2333-0.6953 0.3501-1.171 0.438l0.2434 1.059-0.7729 0.08373-0.2374-1.025c-0.1099 0.01185-0.2233 0.02286-0.3379 0.03349l0.2374 1.03-0.7729 0.08373-0.2417-1.041c-0.3895 0.03892-0.8446 0.08938-1.257 0.1352l-0.06097-0.9171c0.1745-0.01894 0.349-0.03814 0.5234-0.05796 0.06835-0.0076 0.08671-0.02822 0.1005-0.05324 0.01334-0.02423 0.01746-0.06066 0.01503-0.09145-0.2151-0.9337-0.4305-1.867-0.6466-2.801-0.02265-0.0521-0.05746-0.103-0.1078-0.1383-0.05128-0.03596-0.1201-0.05964-0.2297-0.04723-0.151 0.01706-0.3246 0.03496-0.5174 0.05625l-0.1902-0.8214c0.4173-0.04539 0.8448-0.08825 1.245-0.137l-0.2374-1.03 0.7741-0.08501 0.2314 1.007c0.1128-0.01466 0.2254-0.02771 0.3379-0.04078l-0.23-1zm-0.11 1.96c-0.2079 0.0051-0.4023 0.03874-0.5466 0.05753l0.2512 1.091c0.191-0.01869 0.4946-0.03674 0.7578-0.1262 0.1432-0.04869 0.2662-0.1171 0.3392-0.2039 0.07298-0.08689 0.1047-0.1908 0.06827-0.3486-0.03841-0.1662-0.121-0.2686-0.2357-0.3405-0.1147-0.07192-0.2644-0.1093-0.4229-0.1232-0.071-0.0062-0.1419-0.0077-0.2112-0.006zm0.5569 1.868c-0.2576 0.008-0.4985 0.04837-0.6698 0.06999l0.2817 1.22c0.2264-0.02284 0.6022-0.04724 0.9279-0.152 0.1746-0.05615 0.3264-0.1349 0.4182-0.2344 0.09179-0.09953 0.1316-0.2141 0.09146-0.3877-0.04222-0.1828-0.1401-0.2978-0.2782-0.3774-0.1382-0.07965-0.3182-0.1199-0.5097-0.134-0.08756-0.0064-0.1756-0.0069-0.2615-0.0043z" stroke="#42744b" stroke-width=".1558" fill="url(#b)"/>
   <path d="m25.07 30.88c-0.4387-0.6711-2.228-1.255 0.5261-3.172s2.48 0.4665 2.822 0.869z" fill-rule="evenodd" fill="url(#c)"/>
   <path stroke-linejoin="round" d="m25.07 30.88c0.2608-0.399 1.294-2.845 1.4-3.114 0.2597 0.09849 1.609 0.7037 1.948 0.8107z" fill-rule="evenodd" stroke="#a58b5e" stroke-linecap="round" stroke-width=".1558" fill="#eeebd4"/>
  </g>
 </g>
</svg>
