<?xml version="1.0" encoding="UTF-8" standalone="no"?>
<svg xmlns:rdf="http://www.w3.org/1999/02/22-rdf-syntax-ns#" xmlns="http://www.w3.org/2000/svg" height="128" width="128" version="1.1" xmlns:cc="http://creativecommons.org/ns#" xmlns:xlink="http://www.w3.org/1999/xlink" viewBox="0 0 36.124445 36.124445" xmlns:dc="http://purl.org/dc/elements/1.1/">
 <title>Bitcoin Core rejected here</title>
 <defs>
  <linearGradient id="c">
   <stop stop-color="#251c16" offset="0"/>
   <stop stop-color="#767357" offset=".1432"/>
   <stop stop-color="#c9c585" offset=".3183"/>
   <stop stop-color="#e7f9e8" offset=".3912"/>
   <stop stop-color="#e7f9e8" offset=".5824"/>
   <stop stop-color="#c9c585" offset=".6607"/>
   <stop stop-color="#5f3919" offset="1"/>
  </linearGradient>
  <linearGradient id="a">
   <stop stop-color="#6c5726" offset="0"/>
   <stop stop-color="#be882c" offset=".1908"/>
   <stop stop-color="#f4f2e6" offset=".3301"/>
   <stop stop-color="#cb7923" offset=".5767"/>
   <stop stop-color="#af5a2b" offset=".7948"/>
   <stop stop-color="#644c2e" offset="1"/>
  </linearGradient>
  <linearGradient id="d">
   <stop stop-color="#e7f9e8" offset="0"/>
   <stop stop-color="#a25d14" offset=".7772"/>
   <stop stop-color="#7e4e26" offset="1"/>
  </linearGradient>
  <linearGradient id="b">
   <stop stop-color="#d1d9f3" offset="0"/>
   <stop stop-color="#a56841" offset=".5152"/>
   <stop stop-color="#6b523c" offset=".7556"/>
   <stop stop-color="#4e4237" offset=".9498"/>
   <stop stop-color="#47371d" stop-opacity="0" offset="1"/>
  </linearGradient>
  <radialGradient id="j" xlink:href="#a" gradientUnits="userSpaceOnUse" cy="15.47" cx="39.01" gradientTransform="matrix(-1.215 -.2677 .1245 -.5649 64.74 36.02)" r="7.471"/>
  <radialGradient id="f" xlink:href="#b" gradientUnits="userSpaceOnUse" cy="14.86" cx="40.05" gradientTransform="matrix(-1.427 -.4145 .8904 -3.065 63.94 76.92)" r=".8974"/>
  <radialGradient id="o" gradientUnits="userSpaceOnUse" cy="18.82" cx="40.78" gradientTransform="matrix(-.9112 -.1936 .06655 -.3132 55.2 31.27)" r="2.833">
   <stop stop-color="#3f341d" offset="0"/>
   <stop stop-color="#78360a" stop-opacity="0" offset="1"/>
  </radialGradient>
  <radialGradient id="n" xlink:href="#a" gradientUnits="userSpaceOnUse" cy="30.34" cx="32.16" gradientTransform="matrix(-.1509 .7077 -.8182 -.1745 45.91 8.968)" r="7.419"/>
  <linearGradient id="r" y2="8.331" gradientUnits="userSpaceOnUse" x2="14.33" gradientTransform="matrix(.7689 0 0 .7689 -10.78 4.08)" y1="54.71" x1="14.33">
   <stop stop-color="#dddddc" offset="0"/>
   <stop stop-color="#fefefe" offset="1"/>
  </linearGradient>
  <radialGradient id="k" gradientUnits="userSpaceOnUse" cy="35.23" cx="37.79" gradientTransform="matrix(.5698 .1216 -.2081 .9749 4.114 -15.07)" r="6.563">
   <stop stop-color="#5b2d16" offset="0"/>
   <stop stop-color="#b17f3d" offset=".4081"/>
   <stop stop-color="#8c5839" offset=".5885"/>
   <stop stop-color="#ca974b" offset="1"/>
  </radialGradient>
  <linearGradient id="p" y2="21.71" gradientUnits="userSpaceOnUse" x2="38.38" gradientTransform="matrix(.7789 0 0 .7789 -11.16 3.763)" y1="33.44" x1="35.86">
   <stop stop-color="#bb854a" offset="0"/>
   <stop stop-color="#dce0bd" offset=".2516"/>
   <stop stop-color="#d29142" offset=".6555"/>
   <stop stop-color="#c7a662" offset=".9040"/>
   <stop stop-color="#9a713f" offset="1"/>
  </linearGradient>
  <radialGradient id="m" xlink:href="#c" gradientUnits="userSpaceOnUse" cy="25.02" cx="43.27" gradientTransform="matrix(-.8383 -.4160 .2780 -.5601 50.71 56.73)" r="4.031"/>
  <radialGradient id="i" gradientUnits="userSpaceOnUse" cy="36.87" cx="37.46" gradientTransform="matrix(.7967 -.02252 .004604 .1628 -12.04 26)" r="7.62">
   <stop stop-color="#594522" offset="0"/>
   <stop stop-color="#857352" offset=".5724"/>
   <stop stop-color="#ebebeb" offset="1"/>
  </radialGradient>
  <radialGradient id="h" xlink:href="#d" gradientUnits="userSpaceOnUse" cy="37.33" cx="35.93" gradientTransform="matrix(.7864 .2789 -.1807 .5097 -4.681 .8053)" r="6.875"/>
  <radialGradient id="g" xlink:href="#d" gradientUnits="userSpaceOnUse" cy="13.28" cx="39.22" gradientTransform="matrix(-.3845 -1.239 1.122 -.3483 20.08 67.21)" r=".8327"/>
  <radialGradient id="e" xlink:href="#c" gradientUnits="userSpaceOnUse" cy="25.54" cx="43.48" gradientTransform="matrix(-1.464 -2.664 1.923 -1.057 72.81 196.5)" r="4.031"/>
  <linearGradient id="q" y2="20.33" xlink:href="#a" gradientUnits="userSpaceOnUse" x2="17.94" y1="15.18" x1="19.72"/>
  <radialGradient id="l" xlink:href="#b" gradientUnits="userSpaceOnUse" cy="24.39" cx="44.59" gradientTransform="matrix(.3012 1.538 -1.345 .2635 42.83 -48.81)" r=".7977"/>
 </defs>
 <metadata>
  <rdf:RDF>
   <cc:Work rdf:about="">
    <dc:format>image/svg+xml</dc:format>
    <dc:type rdf:resource="http://purl.org/dc/dcmitype/StillImage"/>
    <dc:title>Bitcoin Core rejected here</dc:title>
    <dc:creator>
     <cc:Agent>
      <dc:title>Aleksander Erstu</dc:title>
     </cc:Agent>
    </dc:creator>
    <dc:date>27.07.2018</dc:date>
    <dc:publisher>
     <cc:Agent>
      <dc:title>CryptoGraffiti.info</dc:title>
     </cc:Agent>
    </dc:publisher>
    <dc:rights>
     <cc:Agent>
      <dc:title>Copyright (c) 2018 Aleksander Erstu, Licensed under The MIT License (MIT)</dc:title>
     </cc:Agent>
    </dc:rights>
    <dc:relation>matches with cash.svg</dc:relation>
    <dc:language>english</dc:language>
    <dc:subject>
     <rdf:Bag>
      <rdf:li>bitcoin core</rdf:li>
      <rdf:li>segwitcoin</rdf:li>
      <rdf:li>blockstream token</rdf:li>
     </rdf:Bag>
    </dc:subject>
    <dc:contributor>
     <cc:Agent>
      <dc:title>Aleksander Erstu (Initial work)</dc:title>
     </cc:Agent>
    </dc:contributor>
    <dc:identifier>core.svg</dc:identifier>
    <dc:source>CryptoGraffiti.info</dc:source>
    <dc:description>An image of a rotten apple core with a huge maggot in it and the text: &quot;Bitcoin Core rejected here&quot;.</dc:description>
    <dc:coverage>World Wide Web</dc:coverage>
    <cc:license rdf:resource="https://opensource.org/licenses/MIT"/>
   </cc:Work>
  </rdf:RDF>
 </metadata>
 <g transform="translate(-.000004306 -10.25)">
  <g>
   <rect stroke-opacity=".9922" rx="0" ry="0" height="35.66" width="35.66" stroke="#b2b2b2" stroke-linecap="square" y="10.49" x=".2337" stroke-width=".4674" fill="url(#r)"/>
   <ellipse rx="5.936" ry="1.681" cy="30.64" cx="18.24" fill="url(#i)"/>
   <path stroke-linejoin="round" d="m11.51 27.44c1.604 3.575 9.321 4.143 10.86 1.904-0.3006-0.4343-1.013-0.3996-1.503-0.5011-0.4983-0.1031-0.9687-0.7016-1.036-1.036-0.06702-0.3341-0.234-1.002-0.167-1.27 0.06701-0.2673 0.7756-1.065 1.27-1.971 0.4985-0.9145 0.6609-1.273 0.8391-1.657 0.3172-0.6847 0.8929-1.43 1.804-1.336-0.0336-1.804-7.193-3.871-8.663-1.9 0.7016 0.5345 1.141 1.587 1.175 1.954 0.0335 0.3675-0.000003 2.673-0.167 3.207-0.167 0.5346-1.737 2.138-2.005 2.238-0.2673 0.1002-1.103-0.2339-1.37-0.0336-0.2673 0.2004-0.8018-0.0336-1.036 0.4009z" stroke="#7e4e26" stroke-width=".1558" fill="url(#k)"/>
   <path stroke-linejoin="round" d="m17.53 19.84c-0.3603 0.0033-0.6079 0.05882-0.6659 0.1885-0.308 0.6875 0.6509 0.9111 0.6509 1.848 0 0.2342 0.3755 0.4328 0.1619 0.8982-0.1326 0.2889-0.5089 0.2149-0.6977 0.5966-0.1889 0.3817 0.344 0.7719 0.261 1.057-0.08296 0.2846-0.4604 0.5244-0.5668 0.9206-0.09012 0.3357-0.05752 0.7667-0.1417 0.9875-0.1683 0.4416-0.7819 0.4273-1.414 1.118-0.4473 0.4886-1.291 0.3484-1.676 0.5264-0.5668 0.2623 1.438 2.593 4.489 2.731 3.346 0.152 3.681-1.253 3.303-1.284-1.167-0.098-1.835-0.9764-2.021-1.391-0.2804-0.624-0.6546-0.495-0.6969-1.216-0.02372-0.4049 0.2011-0.3058 0.317-0.8379 0.04947-0.2271-0.1592-0.4505-0.2762-0.5485 0.0054 0.1611-0.1045 0.3091-0.2584 0.4273-0.1986 0.1526-0.5253 0.1721-0.7221-0.08431-0.1904-0.2481-0.06103-0.5553 0.06796-0.695 0.1157-0.1254 0.3072-0.214 0.4669-0.2036-0.1163-0.1909-0.1682-0.369-0.1657-0.6994 0.0042-0.5603 0.3507-1.343 0.9858-1.638 0.8258 0.3283 0.5945-0.3555 1.31-0.8089 0.4019-0.2545 1.062-0.2392 2.061-0.7132 0.465-0.2204-3.212-1.192-4.773-1.178z" stroke="#bb8241" stroke-linecap="round" stroke-width=".1558" fill="url(#p)"/>
  </g>
  <path style="color-rendering:auto;text-decoration-color:#000000;color:#000000;isolation:auto;mix-blend-mode:normal;shape-rendering:auto;solid-color:#000000;block-progression:tb;text-decoration-line:none;text-decoration-style:solid;image-rendering:auto;white-space:normal;text-indent:0;text-transform:none" d="m18.33 24.85c0.8422 0.5085 0.9228 1.77 2.349 2.204 1.427 0.434 3.086 0.2543 2.896-0.8584-0.1894-1.113-1.254-0.4227-2.135-0.7587-0.8808-0.3361-0.8001-1.038-1.962-1.788-1.162-0.7501-1.991 0.6922-1.149 1.201z" fill-rule="evenodd" fill="url(#m)"/>
  <path fill-rule="evenodd" style="color-rendering:auto;text-decoration-color:#000000;color:#000000;isolation:auto;mix-blend-mode:normal;shape-rendering:auto;solid-color:#000000;block-progression:tb;text-decoration-line:none;text-decoration-style:solid;image-rendering:auto;white-space:normal;text-indent:0;text-transform:none" d="m58.97 63.67c3.347 0.9938 5.267-3.608 1.645-4.931-4.031-1.473-6.011-4.772-4.434-7.118 0.6149-0.9145 0.5703-6.523 0.5703-6.523-10.92 3.696-7.45 15.7 2.219 18.57z" transform="matrix(.2822 0 0 .2822 .000003230 10.25)" fill="url(#e)"/>
  <path d="m13.19 18.93c-0.7254-0.09458 1.074-2.443 2.251-2.811 1.048-0.3271 4.199-0.4988 7.672 1.913 0.4541 0.3153 0.9156 0.8801 1.2 1.677 0.1909 0.5342-0.2277 2.19-0.4335 2.12-1.521-0.5141-1.424-0.262-3.089-0.7352-3.215-0.9142-2.958-0.2044-3.964-0.4466-1.562-0.3764-2.715-1.597-3.638-1.717z" fill="url(#j)"/>
  <path d="m19.13 17.54c-1.26-0.31-2.2-0.84-2.09-1.26 0.1144-0.4194 1.334-0.2034 2.224 0.02542 0.8897 0.2288 2.285 0.6737 2.173 1.118-0.1112 0.4447-1.053 0.4202-2.313 0.1144z" fill-rule="evenodd" fill="url(#o)"/>
  <path stroke-linejoin="round" d="m13.19 18.93c-0.7254-0.09458 1.103-2.36 2.251-2.811 1.742-0.6841 7.736 0.5013 8.872 3.59 0.1959 0.5324-0.2277 2.19-0.4335 2.12m-6.254 5.931s-0.1209 0.5634-0.8477 0.4748c-0.8255-0.1007-2.929-1.481-2.65-3.321 0.2172-1.431 1.954-1.923 1.954-1.923m2.226 1.944c0.9504 0.514 0.9097 1.764 2.862 2.247 1.952 0.4829 2.535-0.9395 3.159-0.2905" stroke="#7e4e26" stroke-linecap="round" stroke-width=".1558" fill="none"/>
  <path d="m16.57 29.82c1.12 0.2701 1.223-0.4944 2.043-0.4944 0.8197 0 1.522 0.8978 1.861 0.7677 0.3383-0.1301 0.2732-0.4554 0.5855-0.6246s0.5985 0.1822 0.7937 0.03903c0.1952-0.1431 0.06506-0.5465 0.4294-0.5465s0.3513 0.3123 0.2212 0.5725-3.257 2.216-4.632 2.238c-1.534 0.02403-3.52-0.6246-4.203-1.041-0.5691-0.347-2.641-2.719-2.472-3.266 0.1692-0.5465 0.4814-0.3643 0.5335-0.2602 0.05205 0.1041-0.02603 0.4294 0.2863 0.6766s1.311-0.1649 1.705 0.2082c1.086 1.03 2.034 1.534 2.85 1.731z" fill="url(#n)"/>
  <path d="m23.9 25.47c-0.4161-0.4616-1.468 0.0016-0.9661 0.6091-0.6001 1.054 0.8912 1.519 1.534 0.3197 0.206-0.3844-0.3644-0.7032-0.5678-0.9288z" fill-rule="evenodd" fill="url(#l)"/>
  <path d="m19.37 17.53c0.0522-0.01166 0.08705-0.03928 0.08714-0.08652 0.0069-3.444 0.6634-2.867 0.6244-3.755-0.01076-0.2456-1.113 0.05534-1.141 0.3357-0.05407 0.543-0.0398 2.047-0.0398 3.28 0 0.051 0.03477 0.09706 0.08693 0.1345" fill="url(#f)"/>
  <g fill-opacity=".9922" transform="matrix(.7789 0 0 .7789 -1.845e-7 10.25)" fill="#fff">
   <path fill-opacity=".9922" fill="#fff" d="m36.22 40.06 0.6979-2.913h1.808l-0.1051 0.4414h-1.282l-0.1724 0.7315h1.135l-0.1051 0.433h-1.131l-0.2102 0.866h1.379l-0.1051 0.4414h-1.909zm-1.144-2.943q0.5213 0 0.7904 0.2186 0.2733 0.2144 0.2733 0.5718 0 0.1598-0.04624 0.3069-0.04204 0.1429-0.1387 0.2691-0.09249 0.1219-0.2438 0.2186-0.1471 0.09669-0.3573 0.1598 0.05465 0.09669 0.1177 0.2354 0.06306 0.1345 0.1303 0.2943 0.06727 0.1556 0.1303 0.3279 0.06306 0.1724 0.1135 0.3405h-0.5591q-0.05045-0.1513-0.1051-0.3069t-0.1135-0.2985q-0.05886-0.1471-0.1219-0.2733-0.05886-0.1303-0.1177-0.2312-0.03784 0.0042-0.09249 0.0042t-0.09669 0h-0.2438l-0.2649 1.106h-0.5297l0.6853-2.871q0.2018-0.04204 0.4078-0.05465 0.2102-0.01682 0.3826-0.01682zm0.5255 0.8492q0-0.2312-0.1682-0.3153-0.1682-0.08829-0.4498-0.08829-0.05886 0-0.1261 0.0042-0.06727 0.0042-0.1345 0.01261l-0.227 0.9501h0.2354q0.1892 0 0.3489-0.02943 0.1598-0.03363 0.2733-0.1009 0.1177-0.06726 0.1808-0.1724 0.06726-0.1093 0.06726-0.2607zm-4.407 2.094 0.6979-2.913h1.808l-0.1051 0.4414h-1.282l-0.1724 0.7315h1.135l-0.1051 0.433h-1.131l-0.2102 0.866h1.379l-0.1051 0.4414h-1.909zm-0.5016-2.913h0.5297l-0.6979 2.913h-0.5297l0.3111-1.295h-1.194l-0.3111 1.295h-0.5297l0.6979-2.913h0.5297l-0.2817 1.169h1.194l0.2817-1.169zm-5.728 2.48q0.04625 0.0084 0.1051 0.01261 0.06306 0 0.1934 0 0.3027 0 0.5465-0.09669t0.412-0.2733q0.1724-0.1808 0.2649-0.4288 0.09249-0.2522 0.09249-0.5591 0-0.3321-0.1892-0.5255t-0.618-0.1934q-0.1093 0-0.1766 0.0042-0.06306 0.0042-0.1387 0.01261l-0.4919 2.047zm2.161-1.362q0 0.391-0.1261 0.7273t-0.3742 0.5802q-0.248 0.2438-0.6222 0.3826-0.37 0.1387-0.8618 0.1387-0.1766 0-0.3952-0.02102-0.2186-0.01682-0.4036-0.05886l0.6769-2.821q0.206-0.04625 0.4162-0.05886 0.2102-0.01682 0.3868-0.01682 0.3195 0 0.5633 0.08408 0.2438 0.07988 0.4078 0.2312 0.164 0.1471 0.248 0.3616 0.08408 0.2102 0.08408 0.4709zm-5.202 1.795 0.6979-2.913h1.808l-0.1051 0.4414h-1.282l-0.1724 0.7315h1.135l-0.1051 0.433h-1.131l-0.2102 0.866h1.379l-0.1051 0.4414h-1.909zm0.29-2.913-0.1093 0.4456h-0.866l-0.5928 2.468h-0.5297l0.5928-2.468h-0.866l0.1051-0.4456h2.266zm-3.137 2.787q-0.1387 0.07147-0.3531 0.1303-0.2144 0.05886-0.5213 0.05886-0.2691 0-0.4793-0.07988-0.2102-0.08408-0.3573-0.2396-0.1471-0.1556-0.227-0.3742-0.07567-0.2186-0.07567-0.4919 0-0.3531 0.1177-0.6853 0.1177-0.3363 0.3405-0.597t0.5423-0.4162q0.3195-0.1598 0.7231-0.1598 0.2649 0 0.4582 0.05886 0.1976 0.05886 0.3447 0.1429l-0.2018 0.4246q-0.1345-0.07988-0.2901-0.1219-0.1513-0.04624-0.3447-0.04624-0.2649 0-0.4751 0.1177t-0.3616 0.3111q-0.1471 0.1892-0.227 0.433-0.07567 0.2438-0.07567 0.4961 0 0.391 0.1682 0.5802 0.1724 0.185 0.5003 0.185 0.2522 0 0.4288-0.05465 0.1766-0.05886 0.3027-0.1177l0.06306 0.4456zm-4.6 0.1261 0.6979-2.913h1.808l-0.1051 0.4414h-1.282l-0.1724 0.7315h1.135l-0.1051 0.433h-1.131l-0.2102 0.866h1.379l-0.1051 0.4414h-1.909zm-0.4336-0.9081q-0.05045 0.2102-0.1261 0.391-0.07147 0.1766-0.1976 0.3069-0.1261 0.1261-0.3195 0.2018-0.1892 0.07147-0.4793 0.07147-0.2564 0-0.454-0.07988-0.1976-0.08408-0.3069-0.1808l0.2438-0.3994q0.08408 0.07147 0.2102 0.1387 0.1261 0.06306 0.3153 0.06306 0.1303 0 0.227-0.02943 0.09669-0.03363 0.164-0.1051 0.07147-0.07147 0.1219-0.185 0.05045-0.1135 0.08829-0.2775l0.4582-1.921h0.5339l-0.4793 2.005zm-4.099 0.9081 0.6979-2.913h1.808l-0.1051 0.4414h-1.282l-0.1724 0.7315h1.135l-0.1051 0.433h-1.131l-0.2102 0.866h1.379l-0.1051 0.4414h-1.909zm-1.153-2.95q0.5213 0 0.7904 0.2186 0.2733 0.2144 0.2733 0.5718 0 0.1598-0.04624 0.3069-0.04204 0.1429-0.1387 0.2691-0.09249 0.1219-0.2438 0.2186-0.1471 0.09669-0.3573 0.1598 0.05465 0.09669 0.1177 0.2354 0.06306 0.1345 0.1303 0.2943 0.06727 0.1556 0.1303 0.3279 0.06306 0.1724 0.1135 0.3405h-0.5591q-0.052-0.15-0.106-0.3-0.055-0.16-0.114-0.3-0.059-0.15-0.122-0.27-0.058-0.13-0.117-0.24-0.03784 0.0042-0.09249 0.0042t-0.09669 0h-0.2438l-0.2649 1.106h-0.5297l0.6853-2.871q0.2018-0.04204 0.4078-0.05465 0.2102-0.01682 0.3826-0.01682zm0.5255 0.8492q0-0.2312-0.1682-0.3153-0.1682-0.08829-0.4498-0.08829-0.05886 0-0.1261 0.0042-0.06726 0.0042-0.1345 0.01261l-0.227 0.9501h0.2354q0.1892 0 0.3489-0.02943 0.1598-0.03363 0.2733-0.1009 0.1177-0.06726 0.1808-0.1724 0.06726-0.1093 0.06726-0.2607zm28.88-5.82q0-0.4382 0.127-0.7684 0.1334-0.3302 0.3492-0.5461 0.2159-0.2222 0.4953-0.3302 0.2794-0.1143 0.5715-0.1143 0.6858 0 1.067 0.4254 0.3874 0.4254 0.3874 1.27 0 0.0635-0.0063 0.146 0 0.0762-0.0063 0.1397h-2.191q0.03175 0.4 0.2794 0.6223 0.254 0.2159 0.7302 0.2159 0.2794 0 0.508-0.0508 0.235-0.0508 0.3683-0.108l0.1016 0.6286q-0.0635 0.03175-0.1778 0.06985-0.108 0.03175-0.254 0.05715-0.1397 0.03175-0.3048 0.0508t-0.3366 0.01905q-0.4382 0-0.762-0.127-0.3238-0.1334-0.5334-0.362-0.2096-0.235-0.3112-0.5461-0.1016-0.3175-0.1016-0.6922zm2.229-0.3429q0-0.1588-0.04445-0.2984-0.04445-0.146-0.1334-0.2476-0.08255-0.108-0.2096-0.1651-0.1206-0.0635-0.2921-0.0635-0.1778 0-0.3112 0.06985-0.1334 0.0635-0.2286 0.1714-0.0889 0.108-0.1397 0.2476-0.0508 0.1397-0.06985 0.2858h1.429zm-2.99-0.6414q-0.09525-0.03175-0.2667-0.0635-0.1651-0.0381-0.3874-0.0381-0.127 0-0.273 0.0254-0.1397 0.0254-0.1968 0.04445v2.661h-0.7684v-3.162q0.2222-0.08255 0.5524-0.1524 0.3366-0.0762 0.743-0.0762 0.0762 0 0.1778 0.0127 0.1016 0.0063 0.2032 0.0254 0.1016 0.0127 0.1968 0.0381 0.09525 0.01905 0.1524 0.0381l-0.1334 0.6477zm-2.966 0.9652q0 0.3937-0.1143 0.7176-0.1143 0.3238-0.3238 0.5524-0.2096 0.2286-0.508 0.3556-0.2921 0.127-0.6477 0.127t-0.6477-0.127-0.5016-0.3556q-0.2096-0.2286-0.3302-0.5524-0.1143-0.3238-0.1143-0.7176 0-0.3937 0.1143-0.7112 0.1206-0.3238 0.3302-0.5524 0.2159-0.2286 0.508-0.3492 0.2921-0.127 0.6414-0.127 0.3492 0 0.6414 0.127 0.2984 0.1206 0.508 0.3492t0.3238 0.5524q0.1206 0.3175 0.1206 0.7112zm-0.7874 0q0-0.4953-0.2159-0.781-0.2096-0.2921-0.5906-0.2921t-0.5969 0.2921q-0.2096 0.2858-0.2096 0.781 0 0.5016 0.2096 0.7938 0.2159 0.2921 0.5969 0.2921t0.5906-0.2921q0.2159-0.2921 0.2159-0.7938zm-4.473 1.759q-0.4953 0-0.889-0.1524t-0.6668-0.4445q-0.273-0.2984-0.4191-0.7239-0.146-0.4254-0.146-0.9779 0-0.5524 0.1651-0.9779 0.1714-0.4254 0.4636-0.7176 0.2921-0.2984 0.6858-0.4508t0.8446-0.1524q0.273 0 0.4953 0.04445 0.2222 0.0381 0.3874 0.0889 0.1651 0.0508 0.273 0.108 0.108 0.05715 0.1524 0.08255l-0.235 0.654q-0.1524-0.09525-0.4382-0.1778-0.2794-0.0889-0.6096-0.0889-0.2858 0-0.5334 0.1016-0.2476 0.09525-0.4318 0.2921-0.1778 0.1968-0.2794 0.4953-0.1016 0.2984-0.1016 0.6922 0 0.3492 0.0762 0.6414 0.08255 0.2921 0.2476 0.508 0.1651 0.2096 0.4191 0.3302 0.254 0.1143 0.6096 0.1143 0.4254 0 0.6922-0.08255 0.2667-0.0889 0.4128-0.1651l0.2159 0.654q-0.0762 0.0508-0.2096 0.1016-0.127 0.0508-0.3048 0.1016-0.1778 0.04445-0.4 0.06985-0.2222 0.03175-0.4762 0.03175zm-6.587-3.277q0.254-0.0762 0.5778-0.1397 0.3302-0.06985 0.7176-0.06985 0.5842 0 0.8572 0.2858t0.273 0.7684q0 0.1334-0.0254 0.2858-0.01905 0.146-0.0508 0.3048l-0.4191 1.746h-0.7684l0.3937-1.664q0.03175-0.1397 0.0635-0.2858 0.03175-0.146 0.0381-0.2794 0.0063-0.2222-0.108-0.3683-0.108-0.146-0.4318-0.146-0.273 0-0.4699 0.05715l-0.6414 2.686h-0.7684l0.762-3.181zm-1.724 3.181h-0.762l0.7938-3.321h0.7684l-0.8001 3.321zm0.5715-3.823q-0.1714 0-0.2984-0.1016t-0.127-0.3048q0-0.235 0.1588-0.3874 0.1651-0.1524 0.3746-0.1524 0.1714 0 0.2984 0.108 0.1334 0.1016 0.1334 0.3048 0 0.235-0.1651 0.3874-0.1651 0.146-0.3746 0.146zm-3.54 3.912q-0.5906 0-0.9017-0.3492-0.3112-0.3492-0.3112-0.9208 0-0.3683 0.1143-0.762t0.3492-0.7176q0.235-0.3238 0.5906-0.5334t0.8382-0.2096q0.5906 0 0.9017 0.3492 0.3112 0.3429 0.3112 0.9144 0 0.3746-0.1143 0.7684-0.108 0.3937-0.3429 0.7176-0.2286 0.3238-0.5906 0.5334-0.3556 0.2096-0.8446 0.2096zm0.5842-2.845q-0.2476 0-0.4445 0.146-0.1905 0.1397-0.3238 0.362-0.127 0.2222-0.1968 0.489-0.06985 0.2604-0.06985 0.508 0 0.3175 0.1206 0.5016 0.1206 0.1842 0.4254 0.1842 0.2476 0 0.4382-0.1397 0.1968-0.146 0.3238-0.362 0.1334-0.2222 0.2032-0.489 0.06985-0.2667 0.06985-0.508 0-0.3175-0.1206-0.5016-0.1206-0.1905-0.4254-0.1905zm-4.637 1.499q0-0.4318 0.1334-0.8192 0.1397-0.3937 0.3937-0.6858 0.254-0.2984 0.6223-0.4699 0.3683-0.1714 0.8382-0.1714 0.2476 0 0.4508 0.04445 0.2096 0.0381 0.3937 0.1206l-0.273 0.616q-0.1143-0.0508-0.254-0.0889t-0.3429-0.0381q-0.273 0-0.4953 0.1143-0.2159 0.108-0.3683 0.2984-0.1524 0.1905-0.235 0.4508-0.08255 0.2604-0.08255 0.5524 0 0.1651 0.03175 0.3048 0.0381 0.1334 0.1143 0.2413 0.08255 0.1016 0.2222 0.1588 0.1397 0.05715 0.3492 0.05715 0.2159 0 0.4128-0.05715 0.2032-0.05715 0.3112-0.1143l0.0635 0.6286q-0.146 0.06985-0.3874 0.1334-0.2413 0.06985-0.5461 0.06985-0.3492 0-0.6032-0.1016-0.254-0.108-0.4254-0.2858-0.1651-0.1842-0.2476-0.4254-0.0762-0.2476-0.0762-0.5334zm-1.774-2.94 0.8001-0.127-0.2413 1.003h1.086l-0.1524 0.635h-1.086l-0.3175 1.314q-0.03175 0.1397-0.04445 0.235-0.0127 0.0889-0.0127 0.1651t0.0127 0.1524q0.01905 0.06985 0.0635 0.127 0.0508 0.0508 0.1397 0.0889 0.09525 0.03175 0.254 0.03175 0.1714 0 0.3302-0.04445t0.2794-0.09525l0.05715 0.616q-0.146 0.0635-0.3683 0.1206-0.2222 0.05715-0.5207 0.05715-0.5461 0-0.781-0.235-0.235-0.2413-0.235-0.654 0-0.1524 0.01905-0.3112 0.0254-0.1651 0.06985-0.3492l0.6477-2.73zm-1.883 4.197h-0.762l0.7937-3.321h0.7684l-0.8001 3.321zm0.5715-3.823q-0.1714 0-0.2984-0.1016t-0.127-0.3048q0-0.235 0.1588-0.3874 0.1651-0.1524 0.3746-0.1524 0.1714 0 0.2984 0.108 0.1334 0.1016 0.1334 0.3048 0 0.235-0.1651 0.3874-0.1651 0.146-0.3746 0.146zm-3.993 3.874q-0.3238 0-0.6858-0.03175-0.3556-0.0254-0.635-0.0889l1.022-4.261q0.2858-0.0635 0.6032-0.0889 0.3175-0.0254 0.6414-0.0254 0.2667 0 0.5398 0.0381 0.2794 0.0381 0.5016 0.1524 0.2222 0.108 0.362 0.3048 0.146 0.1905 0.146 0.4953 0 0.3366-0.1905 0.635-0.1842 0.2984-0.6286 0.4826 0.2794 0.1143 0.4318 0.3302t0.1524 0.5016q0 0.743-0.5842 1.149-0.5778 0.4064-1.676 0.4064zm-0.06985-2.038-0.3238 1.353q0.0889 0.0127 0.235 0.0254 0.146 0.0064 0.3238 0.0064 0.2096 0 0.4382-0.03175t0.4128-0.1206q0.1842-0.0889 0.3048-0.254 0.127-0.1651 0.127-0.4254 0-0.2413-0.1842-0.3937-0.1842-0.1588-0.6096-0.1588h-0.7239zm0.1524-0.616h0.6096q0.1968 0 0.381-0.0381t0.3175-0.1206q0.1397-0.0889 0.2222-0.2159 0.08255-0.127 0.08255-0.3112 0-0.2921-0.2222-0.4-0.2159-0.108-0.5842-0.108-0.146 0-0.2921 0.0127-0.146 0.0064-0.235 0.01905l-0.2794 1.162z"/>
  </g>
  <g>
   <path fill="#4d4d4d" d="m17.61 33.77q0.1979-0.05935 0.4501-0.1088 0.2572-0.05441 0.5589-0.05441 0.4551 0 0.6677 0.2226 0.2127 0.2226 0.2127 0.5985 0 0.1039-0.01978 0.2226-0.01484 0.1138-0.03957 0.2374l-0.3265 1.36h-0.5985l0.3067-1.296q0.02473-0.1088 0.04946-0.2226t0.02968-0.2176q0.0049-0.1731-0.08409-0.2869-0.08409-0.1138-0.3363-0.1138-0.2127 0-0.366 0.04452l-0.4996 2.092h-0.5985l0.5936-2.478zm-1.343 2.478h-0.5936l0.6183-2.587h0.5985l-0.6232 2.587zm0.4452-2.978q-0.1335 0-0.2325-0.07914-0.09893-0.07914-0.09893-0.2374 0-0.183 0.1237-0.3017 0.1286-0.1187 0.2918-0.1187 0.1335 0 0.2325 0.08409 0.1039 0.07914 0.1039 0.2374 0 0.183-0.1286 0.3017-0.1286 0.1138-0.2918 0.1138zm-2.758 3.047q-0.46 0-0.7024-0.272t-0.2424-0.7172q0-0.2869 0.08903-0.5936t0.272-0.5589q0.183-0.2523 0.46-0.4155t0.6529-0.1632q0.46 0 0.7024 0.272 0.2424 0.2671 0.2424 0.7123 0 0.2918-0.08903 0.5985-0.08409 0.3067-0.2671 0.5589-0.1781 0.2523-0.46 0.4155-0.277 0.1632-0.6579 0.1632zm0.4551-2.216q-0.1929 0-0.3462 0.1138-0.1484 0.1088-0.2523 0.2819-0.09893 0.1731-0.1533 0.3809-0.05441 0.2028-0.05441 0.3957 0 0.2473 0.09398 0.3908 0.09398 0.1434 0.3314 0.1434 0.1929 0 0.3413-0.1088 0.1533-0.1138 0.2523-0.2819 0.1039-0.1731 0.1583-0.3809 0.05441-0.2077 0.05441-0.3957 0-0.2473-0.09398-0.3908-0.09398-0.1484-0.3314-0.1484zm-3.612 1.167q0-0.3363 0.1039-0.6381 0.1088-0.3067 0.3067-0.5342 0.1979-0.2325 0.4847-0.366 0.2869-0.1335 0.6529-0.1335 0.1929 0 0.3512 0.03462 0.1632 0.02968 0.3067 0.09398l-0.2127 0.4798q-0.08903-0.03957-0.1979-0.06925-0.1088-0.02968-0.2671-0.02968-0.2127 0-0.3858 0.08903-0.1682 0.08409-0.2869 0.2325t-0.183 0.3512-0.0643 0.4303q0 0.1286 0.02473 0.2374 0.02968 0.1039 0.08903 0.188 0.0643 0.07914 0.1731 0.1237 0.1088 0.04452 0.272 0.04452 0.1682 0 0.3215-0.04452 0.1583-0.04452 0.2424-0.08903l0.04946 0.4897q-0.1138 0.05441-0.3017 0.1039-0.188 0.05441-0.4254 0.05441-0.272 0-0.4699-0.07914-0.1978-0.08409-0.3314-0.2226-0.1286-0.1434-0.1929-0.3314-0.05936-0.1929-0.05936-0.4155zm-1.382-2.29 0.6232-0.09893-0.188 0.7815h0.8458l-0.1187 0.4946h-0.8458l-0.2473 1.024q-0.02473 0.1088-0.03462 0.183-0.00989 0.06925-0.00989 0.1286t0.00989 0.1187q0.01484 0.05441 0.04946 0.09893 0.03957 0.03957 0.1088 0.06925 0.07419 0.02473 0.1979 0.02473 0.1335 0 0.2572-0.03462t0.2176-0.07419l0.04452 0.4798q-0.1138 0.04946-0.2869 0.09398t-0.4056 0.04452q-0.4254 0-0.6084-0.183-0.183-0.188-0.183-0.5095 0-0.1187 0.01484-0.2424 0.01978-0.1286 0.05441-0.272l0.5045-2.127zm-1.466 3.269h-0.5936l0.6183-2.587h0.5985l-0.6232 2.587zm0.4452-2.978q-0.1335 0-0.2325-0.07914-0.09892-0.07914-0.09892-0.2374 0-0.183 0.1237-0.3017 0.1286-0.1187 0.2918-0.1187 0.1335 0 0.2325 0.08409 0.1039 0.07914 0.1039 0.2374 0 0.183-0.1286 0.3017-0.1286 0.1138-0.2918 0.1138zm-3.11 3.017q-0.2523 0-0.5342-0.02473-0.277-0.01978-0.4946-0.06925l0.787-3.32q0.2226-0.04946 0.4699-0.06925 0.2473-0.01978 0.4996-0.01978 0.2077 0 0.4204 0.02968 0.2176 0.02968 0.3908 0.1187 0.1731 0.08409 0.2819 0.2374 0.1138 0.1484 0.1138 0.3858 0 0.2622-0.1484 0.4946-0.1434 0.2325-0.4897 0.3759 0.2176 0.08903 0.3363 0.2572t0.1187 0.3908q0 0.5787-0.4551 0.8953-0.4501 0.3166-1.306 0.3166zm-0.05441-1.588-0.2523 1.054q0.06925 0.0099 0.183 0.01978 0.1138 0.005 0.2523 0.005 0.1632 0 0.3413-0.02473t0.3215-0.09398 0.2374-0.1979q0.09892-0.1286 0.09892-0.3314 0-0.188-0.1434-0.3067-0.1434-0.1237-0.4748-0.1237h-0.5639zm0.1187-0.4798h0.4748q0.1533 0 0.2968-0.02968 0.1434-0.02968 0.2473-0.09398 0.1088-0.06925 0.1731-0.1682 0.0643-0.09893 0.0643-0.2424 0-0.2275-0.1731-0.3116-0.1682-0.08409-0.4551-0.08409-0.1138 0-0.2275 0.0099-0.1138 0.0049-0.183 0.01484l-0.228 0.91z"/>
   <path fill="#cb7000" d="m29.75 34.97q0-0.3413 0.09893-0.5985 0.1039-0.2572 0.272-0.4254 0.1682-0.1731 0.3858-0.2572 0.2176-0.08903 0.4452-0.08903 0.5342 0 0.831 0.3314 0.3017 0.3314 0.3017 0.9893 0 0.04946-0.0049 0.1138 0 0.05935-0.0049 0.1088h-1.706q0.02473 0.3116 0.2176 0.4847 0.1979 0.1682 0.5688 0.1682 0.2176 0 0.3957-0.03957 0.183-0.03957 0.2869-0.08409l0.07914 0.4897q-0.04946 0.02473-0.1385 0.05441-0.08409 0.02473-0.1978 0.04452-0.1088 0.02473-0.2374 0.03957t-0.2622 0.01484q-0.3413 0-0.5936-0.09893-0.2523-0.1039-0.4155-0.2819-0.1632-0.183-0.2424-0.4254-0.07914-0.2473-0.07914-0.5391zm1.736-0.2671q0-0.1237-0.03462-0.2325-0.03462-0.1138-0.1039-0.1929-0.0643-0.08409-0.1632-0.1286-0.09398-0.04946-0.2275-0.04946-0.1385 0-0.2424 0.05441-0.1039 0.04946-0.1781 0.1335-0.06925 0.08409-0.1088 0.1929-0.03957 0.1088-0.05441 0.2226h1.113zm-2.34-0.5q-0.07419-0.02473-0.2077-0.04946-0.1286-0.02968-0.3017-0.02968-0.09893 0-0.2127 0.01978-0.1088 0.01979-0.1533 0.03462v2.072h-0.5985v-2.463q0.1731-0.0643 0.4303-0.1187 0.2622-0.05935 0.5787-0.05935 0.05936 0 0.1385 0.0099 0.07914 0.005 0.1583 0.01978 0.07914 0.0099 0.1533 0.02968 0.07419 0.01484 0.1187 0.02968l-0.1039 0.5045zm-2.31 0.7518q0 0.3067-0.08903 0.5589-0.08903 0.2523-0.2523 0.4303-0.1632 0.1781-0.3957 0.277-0.2275 0.09893-0.5045 0.09893t-0.5045-0.09893-0.3908-0.277q-0.1632-0.1781-0.2572-0.4303-0.08903-0.2523-0.08903-0.5589 0-0.3067 0.08903-0.554 0.09398-0.2523 0.2572-0.4303 0.1682-0.1781 0.3957-0.272 0.2275-0.09893 0.4996-0.09893 0.272 0 0.4996 0.09893 0.2325 0.09398 0.3957 0.272 0.1632 0.1781 0.2523 0.4303 0.09398 0.2473 0.09398 0.554zm-0.6133 0q0-0.3858-0.1682-0.6084-0.1632-0.2275-0.46-0.2275t-0.4649 0.2275q-0.1632 0.2226-0.1632 0.6084 0 0.3908 0.1632 0.6183 0.1682 0.2275 0.4649 0.2275 0.2968 0 0.46-0.2275 0.1682-0.2275 0.1682-0.6183zm-3.484 1.37q-0.3858 0-0.6925-0.1187t-0.5194-0.3462q-0.2127-0.2325-0.3265-0.5639t-0.1138-0.7617 0.1286-0.7617q0.1335-0.3314 0.3611-0.5589 0.2275-0.2325 0.5342-0.3512t0.6579-0.1187q0.2127 0 0.3858 0.03462 0.1731 0.02968 0.3017 0.06925t0.2127 0.08409q0.08409 0.04452 0.1187 0.0643l-0.183 0.5095q-0.1187-0.07419-0.3413-0.1385-0.2176-0.06925-0.4748-0.06925-0.2226 0-0.4155 0.07914-0.1929 0.07419-0.3363 0.2275-0.1385 0.1533-0.2176 0.3858-0.07914 0.2325-0.07914 0.5391 0 0.272 0.05936 0.4996 0.0643 0.2275 0.1929 0.3957 0.1286 0.1632 0.3265 0.2572 0.1978 0.08903 0.4748 0.08903 0.3314 0 0.5391-0.0643 0.2077-0.06925 0.3215-0.1286l0.1682 0.5095q-0.05936 0.03957-0.1632 0.07914-0.09893 0.03957-0.2374 0.07914-0.1385 0.03462-0.3116 0.05441-0.1731 0.02473-0.371 0.02473z"/>
   <path fill="#f00" d="m19.44 40.88q0.03602 0.0065 0.08187 0.0098 0.04912 0 0.1506 0 0.2358 0 0.4257-0.07532t0.3209-0.2129q0.1343-0.1408 0.2063-0.334 0.07204-0.1965 0.07204-0.4355 0-0.2587-0.1474-0.4093t-0.4814-0.1506q-0.08514 0-0.1375 0.0033-0.04912 0.0033-0.1081 0.0098l-0.3831 1.595zm1.683-1.061q0 0.3046-0.09824 0.5665-0.09824 0.262-0.2915 0.4519-0.1932 0.1899-0.4847 0.298-0.2882 0.1081-0.6713 0.1081-0.1375 0-0.3078-0.01637-0.1703-0.0131-0.3144-0.04585l0.5272-2.197q0.1605-0.03602 0.3242-0.04585 0.1637-0.0131 0.3013-0.0131 0.2489 0 0.4388 0.06549 0.1899 0.06222 0.3176 0.1801 0.1277 0.1146 0.1932 0.2816 0.06549 0.1637 0.06549 0.3668zm-4.052 1.398 0.5436-2.269h1.408l-0.08187 0.3438h-0.9988l-0.1343 0.5698h0.8842l-0.08187 0.3373h-0.8809l-0.1637 0.6746h1.074l-0.08187 0.3438h-1.487zm0.2259-2.269-0.08514 0.3471h-0.6746l-0.4617 1.922h-0.4126l0.4617-1.922h-0.6746l0.08187-0.3471h1.765zm-2.444 2.171q-0.1081 0.05567-0.2751 0.1015-0.167 0.04585-0.4061 0.04585-0.2096 0-0.3733-0.06222-0.1637-0.06549-0.2784-0.1867-0.1146-0.1212-0.1768-0.2915-0.05895-0.1703-0.05895-0.3831 0-0.2751 0.09169-0.5338 0.09169-0.262 0.2653-0.465t0.4224-0.3242q0.2489-0.1244 0.5633-0.1244 0.2063 0 0.3569 0.04585 0.1539 0.04585 0.2685 0.1113l-0.1572 0.3307q-0.1048-0.06222-0.226-0.09497-0.1179-0.03602-0.2685-0.03602-0.2063 0-0.37 0.09169t-0.2816 0.2423q-0.1146 0.1474-0.1768 0.3373-0.05894 0.1899-0.05894 0.3864 0 0.3046 0.131 0.4519 0.1343 0.1441 0.3897 0.1441 0.1965 0 0.334-0.04257 0.1375-0.04585 0.2358-0.09169l0.04912 0.3471zm-3.583 0.09824 0.5436-2.269h1.408l-0.08187 0.3438h-0.9988l-0.1343 0.5698h0.8842l-0.08187 0.3373h-0.8809l-0.1637 0.6746h1.074l-0.08187 0.3438h-1.487zm-0.34-0.71q-0.0393 0.1637-0.09824 0.3046-0.05567 0.1375-0.1539 0.2391-0.09824 0.09824-0.2489 0.1572-0.1474 0.05567-0.3733 0.05567-0.1998 0-0.3537-0.06222-0.1539-0.06549-0.2391-0.1408l0.1899-0.3111q0.0655 0.05567 0.1637 0.1081 0.09824 0.04912 0.2456 0.04912 0.1015 0 0.1768-0.02292 0.07532-0.0262 0.1277-0.08187 0.05567-0.05567 0.09497-0.1441 0.0393-0.08842 0.06877-0.2161l0.3569-1.497h0.4159l-0.3733 1.562zm-3.193 0.7073 0.5436-2.269h1.408l-0.08187 0.3438h-0.9988l-0.1343 0.5698h0.8842l-0.08187 0.3373h-0.8809l-0.1637 0.6746h1.074l-0.08187 0.3438h-1.487zm-0.894-2.29q0.4061 0 0.6157 0.1703 0.2129 0.167 0.2129 0.4454 0 0.1244-0.03602 0.2391-0.03275 0.1113-0.1081 0.2096-0.07204 0.09497-0.1899 0.1703-0.1146 0.07532-0.2784 0.1244 0.04257 0.07532 0.09169 0.1834 0.04912 0.1048 0.1015 0.2292 0.0524 0.1212 0.1015 0.2554 0.04912 0.1343 0.08842 0.2653h-0.4355q-0.0393-0.1179-0.08187-0.2391t-0.08842-0.2325q-0.04585-0.1146-0.09497-0.2129-0.04585-0.1015-0.09169-0.1801-0.02947 0.0033-0.07204 0.0033t-0.07532 0h-0.1899l-0.2063 0.8613h-0.4126l0.5338-2.237q0.1572-0.03275 0.3176-0.04257 0.1637-0.0131 0.298-0.0131zm0.4093 0.6615q0-0.1801-0.131-0.2456-0.131-0.06877-0.3504-0.06877-0.04585 0-0.09824 0.0033-0.0524 0.0033-0.1048 0.0098l-0.1768 0.7401h0.1834q0.1474 0 0.2718-0.02292 0.1244-0.0262 0.2129-0.07859 0.09169-0.05239 0.1408-0.1343 0.0524-0.08514 0.0524-0.203z"/>
   <path fill="#4d4d4d" d="m28.21 41.22 0.5436-2.269h1.408l-0.08187 0.3438h-0.9988l-0.1343 0.5698h0.8842l-0.08187 0.3373h-0.8809l-0.1637 0.6746h1.074l-0.08187 0.3438h-1.487zm-0.8909-2.292q0.4061 0 0.6156 0.1703 0.2129 0.167 0.2129 0.4454 0 0.1244-0.03602 0.2391-0.03275 0.1113-0.1081 0.2096-0.07204 0.09497-0.1899 0.1703-0.1146 0.07532-0.2784 0.1244 0.04257 0.07532 0.09169 0.1834 0.04912 0.1048 0.1015 0.2292 0.0524 0.1212 0.1015 0.2554 0.04912 0.1343 0.08842 0.2653h-0.4355q-0.0393-0.1179-0.08187-0.2391t-0.08842-0.2325q-0.04585-0.1146-0.09497-0.2129-0.04585-0.1015-0.09169-0.1801-0.02947 0.0033-0.07204 0.0033t-0.07532 0h-0.1899l-0.2063 0.8613h-0.4126l0.5338-2.237q0.1572-0.03275 0.3176-0.04257 0.1637-0.0131 0.298-0.0131zm0.4093 0.6615q0-0.1801-0.131-0.2456-0.131-0.06877-0.3504-0.06877-0.04585 0-0.09824 0.0033t-0.1048 0.0098l-0.1768 0.7401h0.1834q0.1474 0 0.2718-0.02292 0.1244-0.0262 0.2129-0.07859 0.09169-0.05239 0.1408-0.1343 0.0524-0.08514 0.0524-0.203zm-3.433 1.631 0.5436-2.269h1.408l-0.08187 0.3438h-0.9988l-0.1343 0.5698h0.8842l-0.08187 0.3373h-0.8809l-0.1637 0.6746h1.074l-0.08187 0.3438h-1.487zm-0.3907-2.269h0.4126l-0.5436 2.269h-0.4126l0.2423-1.009h-0.93l-0.2423 1.009h-0.4126l0.5436-2.269h0.4126l-0.2194 0.9104h0.93l0.2194-0.9104z"/>
   <path style="color-rendering:auto;text-decoration-color:#000000;color:#000000;isolation:auto;mix-blend-mode:normal;shape-rendering:auto;solid-color:#000000;block-progression:tb;text-decoration-line:none;text-decoration-style:solid;image-rendering:auto;white-space:normal;text-indent:0;text-transform:none" d="m14.31 28.9c-0.3464 0.4854-0.05119 1.166 0.2218 1.561 0.1649-0.4388-0.1581-0.8963-0.2218-1.561zm-1.537-0.803c-0.414 0.7562 0.1946 1.318 0.3553 1.542 0.117-0.4228-0.3219-0.8946-0.3553-1.542z" fill-rule="evenodd" fill="#a3582b"/>
  </g>
  <path d="m11.73 27.21c0.05205 0.1041-0.02603 0.4294 0.2863 0.6766s1.311-0.1649 1.705 0.2082c1.086 1.03 2.034 1.534 2.85 1.731 1.12 0.2701 1.223-0.4944 2.043-0.4944 0.8197 0 1.522 0.8978 1.861 0.7677 0.3383-0.1301 0.2732-0.4554 0.5855-0.6246s0.5985 0.1822 0.7937 0.03903c0.1952-0.1431 0.06506-0.5465 0.4294-0.5465" stroke="url(#h)" stroke-linecap="round" stroke-width=".1558" fill="none"/>
  <path d="m23.16 26.32c-0.07616-0.4357 0.566-0.3972 0.6328-0.2063 0.06681 0.191-0.5567 0.6419-0.6328 0.2063zm-0.03442-0.6672c0.03722-0.2059 0.32-0.2315 0.4215-0.08157s-0.4587 0.2874-0.4215 0.08157z" fill-rule="evenodd" fill="#e7f9e8"/>
  <path stroke-linejoin="round" d="m18.95 14.12c0.01076 0.2456 1.113-0.05534 1.141-0.3357" stroke="url(#g)" stroke-linecap="round" stroke-width=".1558" fill="none"/>
  <path style="color-rendering:auto;text-decoration-color:#000000;color:#000000;isolation:auto;mix-blend-mode:normal;shape-rendering:auto;solid-color:#000000;block-progression:tb;text-decoration-line:none;text-decoration-style:solid;image-rendering:auto;white-space:normal;text-indent:0;text-transform:none" d="m20.86 20.61c-0.2237-0.3889 0.1578-1.51-0.2476-1.766-0.2074 0.5198-0.1273 1.782 0.2476 1.766zm-6.851-2.318c0.5906-0.2249 1.07-1.314 1.471-1.638-0.7055-0.01672-1.324 1.174-1.471 1.638zm3.215-0.2134c-0.7932-0.07784-1.191 1.228-1.008 1.714 0.3716-0.3417 0.3647-1.183 1.008-1.714zm3.874 0.2754c0.8684 0.9034 0.4565 1.853 0.6202 2.341 0.4006-0.2167 0.6737-2.026-0.6202-2.341zm-6.55 0.5235c0.5906-0.2249 0.8597-1.211 1.261-1.535-0.7055-0.01672-1.114 1.071-1.261 1.535z" fill-rule="evenodd" fill="url(#q)"/>
 </g>
</svg>
