<?xml version="1.0" encoding="UTF-8" standalone="no"?>
<!-- Created with Inkscape (http://www.inkscape.org/) -->

<svg
   xmlns:dc="http://purl.org/dc/elements/1.1/"
   xmlns:cc="http://creativecommons.org/ns#"
   xmlns:rdf="http://www.w3.org/1999/02/22-rdf-syntax-ns#"
   xmlns:svg="http://www.w3.org/2000/svg"
   xmlns="http://www.w3.org/2000/svg"
   xmlns:sodipodi="http://sodipodi.sourceforge.net/DTD/sodipodi-0.dtd"
   xmlns:inkscape="http://www.inkscape.org/namespaces/inkscape"
   width="320"
   height="32"
   viewBox="0 0 320 32"
   id="svg4448"
   version="1.1"
   inkscape:version="0.91 r13725"
   inkscape:export-filename="/home/aleksander/Desktop/Cryptograffiti/Valmis/banner.png"
   inkscape:export-xdpi="180"
   inkscape:export-ydpi="180"
   sodipodi:docname="title.svg">
  <defs
     id="defs4450" />
  <sodipodi:namedview
     id="base"
     pagecolor="#ffffff"
     bordercolor="#666666"
     borderopacity="1.0"
     inkscape:pageopacity="0.0"
     inkscape:pageshadow="2"
     inkscape:zoom="2"
     inkscape:cx="143.52074"
     inkscape:cy="3.9460348"
     inkscape:document-units="px"
     inkscape:current-layer="layer1"
     showgrid="true"
     units="px"
     inkscape:snap-grids="true"
     inkscape:snap-bbox="true"
     inkscape:object-paths="true"
     inkscape:snap-midpoints="true"
     inkscape:snap-smooth-nodes="true"
     inkscape:object-nodes="true"
     inkscape:snap-intersection-paths="true"
     showguides="true"
     inkscape:guide-bbox="true"
     inkscape:snap-nodes="true"
     inkscape:bbox-paths="false"
     inkscape:bbox-nodes="false"
     inkscape:snap-text-baseline="false"
     inkscape:snap-global="true"
     inkscape:window-width="1280"
     inkscape:window-height="966"
     inkscape:window-x="0"
     inkscape:window-y="0"
     inkscape:window-maximized="1">
    <inkscape:grid
       type="xygrid"
       id="grid4996" />
  </sodipodi:namedview>
  <metadata
     id="metadata4453">
    <rdf:RDF>
      <cc:Work
         rdf:about="">
        <dc:format>image/svg+xml</dc:format>
        <dc:type
           rdf:resource="http://purl.org/dc/dcmitype/StillImage" />
        <dc:title></dc:title>
      </cc:Work>
    </rdf:RDF>
  </metadata>
  <g
     inkscape:label="Layer 1"
     inkscape:groupmode="layer"
     id="layer1"
     transform="translate(0,-1020.3622)">
    <path
       style="opacity:1;fill:#58c057;fill-opacity:1;stroke:none;stroke-width:0.1;stroke-linecap:round;stroke-linejoin:round;stroke-miterlimit:4;stroke-dasharray:none;stroke-dashoffset:0;stroke-opacity:1"
       d="m 3.9769632,1034.3622 c 0,10 4,12 10.9999998,12 l 2.97616,0 13.046877,0 0,-5 c 0,-0.5522 -0.528326,-0.7126 -1,-1 -0.788776,-0.4806 -2.046876,-1.7974 -2.046876,-4 0.0013,-0.3348 0.04458,-0.6682 0.1289,-0.9922 0.458816,1.7624 2.050054,2.9922 3.871094,2.9922 2.209136,0 4,-1.7909 4,-4 0,-2.2092 -1.790862,-4 -4,-4 l -6.953118,0 c 0,-4.4182 -3.023036,-6 -10.004956,-6 -6.0016148,0 -11.0180808,2 -11.0180808,10 z"
       id="circle5398"
       inkscape:connector-curvature="0"
       sodipodi:nodetypes="ccccsscccssccc" />
    <path
       style="opacity:1;fill:#1b1d15;fill-opacity:1;stroke:none;stroke-width:0.1;stroke-linecap:round;stroke-linejoin:round;stroke-miterlimit:4;stroke-dasharray:none;stroke-dashoffset:0;stroke-opacity:1"
       d="m 14.953123,1041.3622 c -0.0044,-0.5522 0.509979,-0.7452 1,-1 0.727244,-0.3782 2,-1.516 2,-4 0,-2.2092 -1.618986,-3.5156 -3.453125,-3.5156 -1.104569,0 -2.0625,0.833 -2.0625,1.7188 0,1.201 0.762294,1.719 1.515625,1.7968 -0.623347,-0.188 -0.953125,-0.8163 -0.953125,-1.2968 0,-0.7036 0.671573,-1.3907 1.5,-1.3907 0.990087,0 1.954175,0.8066 1.953125,2.1874 -9.5e-4,1.2478 -0.923924,2.303 -2.160156,2.4726 -0.05446,0 -0.109174,0.02 -0.164062,0.02 l -0.0039,0 -0.171882,0 c -1.505776,2e-4 -2.884101,-0.8452 -3.566406,-2.1874 -0.05937,-0.1179 -0.112818,-0.2397 -0.160156,-0.3634 -0.05669,-0.1439 -0.104944,-0.2916 -0.144532,-0.4414 -0.08563,-0.329 -0.1289498,-0.6678 -0.1289058,-1.0078 0,-2.2091 1.7908608,-4 3.9999998,-4 l 7.738279,0 2.058594,0 1.250004,0 c 0,-4.4182 -3.023036,-6 -10.004956,-6 -9.0180808,0 -10.9616248,4.559 -11.0180808,10 0,10 4,12 10.9999998,12 z"
       id="path5425"
       inkscape:connector-curvature="0"
       sodipodi:nodetypes="cscsscsssccccccccsccccccc" />
    <path
       style="opacity:1;fill:#1b1d15;fill-opacity:1;stroke:none;stroke-width:0.35433072;stroke-linecap:round;stroke-linejoin:round;stroke-miterlimit:4;stroke-dasharray:none;stroke-dashoffset:0;stroke-opacity:1"
       d="m 25,1030.3622 c 0.552284,0 0.953124,0.8954 0.953124,2 0,1.1046 -0.447716,2 -1,2 l -1,0 -0.582034,0 -1.417966,0 -2.000001,0 c 0.649591,0.7796 4.000001,0 4.000001,2 0,2.5672 0.643986,3.398 1,3.7578 0.38849,0.3926 1,0.69 1,1.2422 l 0,5 5.046876,0 0,-5 c 0,-0.5522 -0.536288,-0.7 -1,-1 -0.531244,-0.3436 -2.046876,-1.5312 -2.046876,-4 0.0013,-0.3348 0.04458,-0.6682 0.1289,-0.9922 0.0014,0 0.0026,0.02 0.004,0.02 0.05176,0.186 0.11704,0.3696 0.19532,0.547 0.018,0.042 0.03534,0.084 0.05468,0.1239 0.08132,0.176 0.17532,0.3455 0.28125,0.5078 0.0124,0.02 0.02634,0.036 0.03906,0.054 0.09664,0.142 0.202322,0.2778 0.316408,0.4062 0.02832,0.032 0.05664,0.062 0.08594,0.094 0.12912,0.134 0.267472,0.2598 0.414064,0.375 0.02782,0.022 0.05754,0.042 0.08594,0.062 0.1511,0.116 0.310362,0.2224 0.476564,0.3164 l 0.0156,0 c 0.0026,0 0.0052,0 0.0078,0 0.1615,0.084 0.328548,0.158 0.5,0.2188 0.0497,0.02 0.0979,0.038 0.14844,0.054 0.1712,0.058 0.346074,0.1039 0.523438,0.1359 0.04388,0 0.0885,0.02 0.13282,0.02 0.19484,0.03 0.392276,0.046 0.589778,0.046 2.209136,0 4,-1.7908 4,-4 0,-2.2091 -1.790862,-4 -4,-4 L 26,1030.362 Z"
       id="path5016"
       inkscape:connector-curvature="0"
       sodipodi:nodetypes="cssccccsssccssccccccccccccccccccssscc" />
    <path
       style="opacity:1;fill:#1b1d15;fill-opacity:1;stroke:none;stroke-width:0.1;stroke-linecap:round;stroke-linejoin:round;stroke-miterlimit:4;stroke-dasharray:none;stroke-dashoffset:0;stroke-opacity:1"
       d="m 16.476963,1041.3622 c -0.552285,0 -1,0.3134 -1,0.7 l 0,4.3 1,0 0,-4.3 c -4e-4,-0.2504 0.19026,-0.4818 0.5,-0.607 -0.15226,-0.06 -0.324694,-0.092 -0.5,-0.092 z"
       id="path5466"
       inkscape:connector-curvature="0"
       sodipodi:nodetypes="cscccccc" />
    <path
       style="opacity:1;fill:#1b1d15;fill-opacity:1;stroke:none;stroke-width:0.1;stroke-linecap:round;stroke-linejoin:round;stroke-miterlimit:4;stroke-dasharray:none;stroke-dashoffset:0;stroke-opacity:1"
       d="m 19.976963,1041.3622 c -0.552284,0 -1,0.3134 -1,0.7 l 0,4.3 1,0 0,-4.3 c -4e-4,-0.2504 0.19026,-0.4818 0.500001,-0.607 -0.15226,-0.06 -0.324694,-0.092 -0.500001,-0.092 z"
       id="path5468"
       inkscape:connector-curvature="0"
       sodipodi:nodetypes="cscccccc" />
    <path
       style="fill:#1b1d15;fill-opacity:1;fill-rule:evenodd;stroke:none;stroke-width:1.5;stroke-linecap:butt;stroke-linejoin:miter;stroke-miterlimit:4;stroke-dasharray:none;stroke-opacity:1"
       d="m 58.989094,1030.3582 0,10.6606 0,10.3482 c 0,0 1.278806,8e-4 5.01012,0 l 0,-6.0176 c 7.995642,0 10.106188,-2.5994 10.106188,-7.5272 0,-4.9278 -1.790234,-7.464 -9.785876,-7.464 z m 5.01012,5.0176 c 2.66521,0 4.976778,-0.184 4.976778,2.4804 0,2.6654 -2.311566,2.5064 -4.976776,2.5064 z"
       id="path4252-3-0-3"
       inkscape:connector-curvature="0"
       sodipodi:nodetypes="ccccczsccscc"
       inkscape:export-xdpi="90"
       inkscape:export-ydpi="90" />
    <path
       style="fill:#1b1d15;fill-opacity:1;fill-rule:evenodd;stroke:none;stroke-width:1.5;stroke-linecap:butt;stroke-linejoin:miter;stroke-miterlimit:4;stroke-dasharray:none;stroke-opacity:1"
       d="m 77.006786,1035.6824 5.330424,0 0,5.3308 0,5.3344 c 3.731302,0 5.330462,0 5.330462,0 l 0,-5.328 0,-5.3302 5.330432,0 c 0,-3.7318 -0.0058,-5.331 -0.0058,-5.331 l -5.327218,0 0.003,-5.328 -5.333438,0 -0.002,5.3258 -5.318858,0 c 0,0 -0.0058,1.5992 -0.0058,5.3306 z"
       id="path4254-5-2-6"
       inkscape:connector-curvature="0"
       sodipodi:nodetypes="cccccccccccccccc"
       inkscape:export-xdpi="90"
       inkscape:export-ydpi="90" />
    <path
       style="fill:#1b1d15;fill-opacity:1;fill-rule:evenodd;stroke:none;stroke-width:1.5;stroke-linecap:butt;stroke-linejoin:miter;stroke-miterlimit:4;stroke-dasharray:none;stroke-opacity:1"
       d="m 96.014492,1038.352 c -0.003,5.3287 2.661022,7.9944 7.995658,7.9942 5.32627,2e-4 7.99148,-2.6654 7.99567,-7.9942 -0.003,-5.3322 -2.6694,-7.997 -7.99567,-7.9946 -5.334636,0 -7.99985,2.6624 -7.995658,7.9946 z m 7.995658,-2.6638 c 1.59494,0 2.66102,1.063 2.66521,2.6638 0.003,1.5978 -1.07027,2.6635 -2.66521,2.6635 -1.60333,2e-4 -2.66103,-1.0657 -2.66522,-2.6635 -0.003,-1.6009 1.06189,-2.6609 2.66522,-2.6638 z"
       id="path4256-6-3-1"
       inkscape:connector-curvature="0"
       sodipodi:nodetypes="cccccsssss"
       inkscape:export-xdpi="90"
       inkscape:export-ydpi="90" />
    <path
       style="fill:#1b1d15;fill-opacity:1;fill-rule:evenodd;stroke:none;stroke-width:1.5;stroke-linecap:butt;stroke-linejoin:miter;stroke-miterlimit:4;stroke-dasharray:none;stroke-opacity:1"
       d="m 151.98827,1038.3516 c 0,5.3303 2.66464,7.9953 7.99568,7.9953 1.59849,0 2.66519,-0.3501 2.66519,-0.3501 l -10e-4,0.3501 5.33176,0 c -5.2e-4,-1.6001 -5.2e-4,-3.7321 0,-5.3303 l 0,-5.3311 c -5.2e-4,-1.5994 0,-3.7314 0,-5.3298 l -7.99565,0 c -5.33043,0 -7.99568,2.665 -7.99568,7.9959 z m 5.33044,0 c 0,-2.1335 1.59915,-2.6661 5.33043,-2.6661 l 0,2.6661 c 0,1.5982 -1.0667,2.6632 -2.66623,2.6632 -1.5987,0 -2.6642,-0.5321 -2.6642,-2.6632 z"
       id="path4258-2-7-0"
       inkscape:connector-curvature="0"
       sodipodi:nodetypes="ssccccccssssccss"
       inkscape:export-xdpi="90"
       inkscape:export-ydpi="90" />
    <path
       style="fill:#1b1d15;fill-opacity:1;fill-rule:evenodd;stroke:none;stroke-width:1.5;stroke-linecap:butt;stroke-linejoin:miter;stroke-miterlimit:4;stroke-dasharray:none;stroke-opacity:1"
       d="m 38.992186,1046.3498 c 3.733648,0 6.616288,-2.575 7.997396,-4.9582 -3.9437,-0.8954 -7.985574,-3.0375 -7.985574,-11.0332 l 4.986686,0 c 0,3.7312 1.99467,6.0036 4.415114,6.0036 0.722898,-2.4658 0.587204,-4.907 0.587204,-6.0036 l 4.994498,0 c 0,10.5812 -2.125618,20.9936 -14.98879,20.9936 z"
       id="path4260-9-5-6"
       inkscape:connector-curvature="0"
       sodipodi:nodetypes="ccccccccc"
       inkscape:export-xdpi="90"
       inkscape:export-ydpi="90" />
    <path
       style="fill:#1b1d15;fill-opacity:1;fill-rule:evenodd;stroke:none;stroke-width:1.5;stroke-linecap:butt;stroke-linejoin:miter;stroke-miterlimit:4;stroke-dasharray:none;stroke-opacity:1"
       d="m 172.98995,1046.3469 5.33046,0 0,-5.3303 5.33043,0 0,-5.3311 -5.33043,0 c 0,-3.731 1.59913,-5.3299 5.33043,-5.3299 l 0,-5.3302 c -7.99564,0 -10.66089,2.665 -10.66089,10.6601 z"
       id="path4262-1-9-3"
       inkscape:connector-curvature="0"
       sodipodi:nodetypes="cccccccccc"
       inkscape:export-xdpi="90"
       inkscape:export-ydpi="90" />
    <path
       sodipodi:nodetypes="cccccccccc"
       inkscape:connector-curvature="0"
       id="path4264-2-2-2"
       d="m 187.98995,1046.3469 5.33038,0 0,-5.3303 5.33046,0 0,-5.3311 -5.33046,0 c 0,-3.731 1.59913,-5.3299 5.33046,-5.3299 l 0,-5.3302 c -7.99565,0 -10.66085,2.665 -10.66085,10.6601 z"
       style="fill:#1b1d15;fill-opacity:1;fill-rule:evenodd;stroke:none;stroke-width:1.5;stroke-linecap:butt;stroke-linejoin:miter;stroke-miterlimit:4;stroke-dasharray:none;stroke-opacity:1"
       inkscape:export-xdpi="90"
       inkscape:export-ydpi="90" />
    <path
       style="fill:#1b1d15;fill-opacity:1;fill-rule:evenodd;stroke:none;stroke-width:1.5;stroke-linecap:butt;stroke-linejoin:miter;stroke-miterlimit:4;stroke-dasharray:none;stroke-opacity:1"
       d="m 203.80758,1030.3556 0,15.9913 5.33046,0 0,-15.9913 z"
       id="path4538"
       inkscape:connector-curvature="0" />
    <path
       style="fill:#1b1d15;fill-opacity:1;fill-rule:evenodd;stroke:none;stroke-width:1.5;stroke-linecap:butt;stroke-linejoin:miter;stroke-miterlimit:4;stroke-dasharray:none;stroke-opacity:1"
       d="m 232.99514,1030.3556 0,15.9913 5.33042,0 0,-15.9913 z"
       id="path4266-7-2-0"
       inkscape:connector-curvature="0" />
    <path
       id="path4604-0-8-6"
       d="m 137.00661,1030.3574 c -5.2e-4,1.5962 0,6.6599 0.001,10.6536 l 0.001,5.3359 5.3263,0 -0.0977,-10.6614 c 0.91348,0 -0.10206,2.6596 3.36797,2.6634 1.59372,0 3.0962,-0.7822 3.09727,-3.7138 0.001,-3.5448 -4.00244,-4.279 -6.3986,-4.2768 -1.81562,0 -3.68019,0 -5.29826,0 z"
       style="fill:#1b1d15;fill-opacity:1;fill-rule:evenodd;stroke:none;stroke-width:1.5;stroke-linecap:butt;stroke-linejoin:miter;stroke-miterlimit:4;stroke-dasharray:none;stroke-opacity:1"
       inkscape:connector-curvature="0"
       inkscape:export-xdpi="90"
       inkscape:export-ydpi="90" />
    <path
       sodipodi:nodetypes="cccccccccccccccc"
       inkscape:connector-curvature="0"
       id="path4607-9-9-1"
       d="m 213.02848,1035.6824 5.33046,0 0,5.3308 0,5.3344 c 3.73126,0 5.3304,0 5.3304,0 l 0,-5.328 0,-5.3302 5.33048,0 c 0,-3.7318 -0.006,-5.331 -0.006,-5.331 l -5.32718,0 0.006,-5.328 -5.33348,0 -0.001,5.3258 -5.31884,0 c 0,0 -0.006,1.5992 -0.006,5.3306 z"
       style="fill:#1b1d15;fill-opacity:1;fill-rule:evenodd;stroke:none;stroke-width:1.5;stroke-linecap:butt;stroke-linejoin:miter;stroke-miterlimit:4;stroke-dasharray:none;stroke-opacity:1"
       inkscape:export-xdpi="90"
       inkscape:export-ydpi="90" />
    <path
       style="fill:#1b1d15;fill-opacity:1;fill-rule:evenodd;stroke:none;stroke-width:1.5;stroke-linecap:butt;stroke-linejoin:miter;stroke-miterlimit:4;stroke-dasharray:none;stroke-opacity:1"
       d="m 116.04258,1038.3546 c 0,5.331 2.66464,7.996 7.99568,7.996 -2.61641,0.03 -5.33032,1.5978 -5.32959,5.33 10.66017,0 13.32538,-2.6664 13.3255,-15.991 -5.5e-4,-1.6 0,-3.7322 0,-5.3304 l -7.99565,0 c -5.33046,0 -7.99567,2.665 -7.99567,7.9954 z m 5.33046,0 c 0,-2.1326 1.59911,-2.665 5.33044,-2.665 l 0,2.665 c 0,1.5988 -1.06669,2.6632 -2.66626,2.6632 -1.59872,0 -2.66418,-0.5314 -2.66418,-2.6632 z"
       id="path4258-2-7-9-5"
       inkscape:connector-curvature="0"
       sodipodi:nodetypes="sccccssssccss"
       inkscape:export-xdpi="90"
       inkscape:export-ydpi="90" />
    <path
       style="opacity:1;fill:#1b1d15;fill-opacity:1;stroke:none;stroke-width:0.1;stroke-linecap:round;stroke-linejoin:round;stroke-miterlimit:4;stroke-dasharray:none;stroke-dashoffset:0;stroke-opacity:1"
       d="m 23.976964,1041.3622 c -0.552286,0 -1,0.3134 -1,0.7 l 0,4.3 1,0 0,-4.3 c -4e-4,-0.2504 0.19026,-0.4818 0.5,-0.607 -0.15226,-0.06 -0.324696,-0.092 -0.5,-0.092 z"
       id="path6315"
       inkscape:connector-curvature="0"
       sodipodi:nodetypes="cscccccc" />
    <path
       inkscape:connector-curvature="0"
       id="path4162"
       d="m 253.96506,1030.3556 0,15.9913 5.33042,0 0,-15.9913 z"
       style="fill:#1b1d15;fill-opacity:1;fill-rule:evenodd;stroke:none;stroke-width:1.5;stroke-linecap:butt;stroke-linejoin:miter;stroke-miterlimit:4;stroke-dasharray:none;stroke-opacity:1" />
    <path
       inkscape:export-ydpi="90"
       inkscape:export-xdpi="90"
       sodipodi:nodetypes="cccccsssss"
       inkscape:connector-curvature="0"
       id="path4164"
       d="m 299.9902,1038.352 c -0.002,5.3287 2.66102,7.9944 7.99566,7.9942 5.32626,2e-4 7.99148,-2.6654 7.99568,-7.9942 -0.002,-5.3322 -2.66942,-7.997 -7.99568,-7.9946 -5.33464,0 -7.99984,2.6624 -7.99566,7.9946 z m 7.99566,-2.6638 c 1.59494,0 2.66102,1.063 2.6652,2.6638 0.002,1.5978 -1.07026,2.6635 -2.6652,2.6635 -1.60332,2e-4 -2.66104,-1.0657 -2.66522,-2.6635 -0.002,-1.6009 1.0619,-2.6609 2.66522,-2.6638 z"
       style="fill:#1b1d15;fill-opacity:1;fill-rule:evenodd;stroke:none;stroke-width:1.5;stroke-linecap:butt;stroke-linejoin:miter;stroke-miterlimit:4;stroke-dasharray:none;stroke-opacity:1" />
    <path
       inkscape:export-ydpi="90"
       inkscape:export-xdpi="90"
       sodipodi:nodetypes="cccccccccc"
       inkscape:connector-curvature="0"
       id="path4166"
       d="m 285.44854,1046.3469 5.33046,0 0,-5.3303 5.33044,0 0,-5.3311 -5.33044,0 c 0,-3.731 1.59914,-5.3299 5.33044,-5.3299 l 0,-5.3302 c -7.99566,0 -10.6609,2.665 -10.6609,10.6601 z"
       style="fill:#1b1d15;fill-opacity:1;fill-rule:evenodd;stroke:none;stroke-width:1.5;stroke-linecap:butt;stroke-linejoin:miter;stroke-miterlimit:4;stroke-dasharray:none;stroke-opacity:1" />
    <path
       style="fill:#1b1d15;fill-opacity:1;fill-rule:evenodd;stroke:none;stroke-width:1.5;stroke-linecap:butt;stroke-linejoin:miter;stroke-miterlimit:4;stroke-dasharray:none;stroke-opacity:1"
       d="m 280.69416,1038.3516 c 10e-5,-5.3309 -2.66162,-7.996 -7.99208,-7.996 l -7.9961,0 c 0,1.5983 5.2e-4,3.7287 0,5.3281 l 0,5.332 c 5.2e-4,1.5982 5.2e-4,3.7318 0,5.332 l 5.33204,0 -0.004,-7.9962 0,-2.6678 c 3.73128,0 5.33204,0.5344 5.33204,2.6678 l -0.004,8.004 5.3265,0 z"
       id="path4168"
       inkscape:connector-curvature="0"
       sodipodi:nodetypes="csccccccccccc" />
    <circle
       style="opacity:1;fill:#1b1d15;fill-opacity:1;stroke:none;stroke-width:0.1;stroke-linecap:round;stroke-linejoin:round;stroke-miterlimit:4;stroke-dasharray:none;stroke-dashoffset:0;stroke-opacity:1"
       id="path4175"
       cx="246.46503"
       cy="1044.8555"
       r="2.5" />
  </g>
</svg>
