<?xml version="1.0" encoding="UTF-8" standalone="no"?>
<!-- Created with Inkscape (http://www.inkscape.org/) -->

<svg
   xmlns:dc="http://purl.org/dc/elements/1.1/"
   xmlns:cc="http://creativecommons.org/ns#"
   xmlns:rdf="http://www.w3.org/1999/02/22-rdf-syntax-ns#"
   xmlns:svg="http://www.w3.org/2000/svg"
   xmlns="http://www.w3.org/2000/svg"
   xmlns:sodipodi="http://sodipodi.sourceforge.net/DTD/sodipodi-0.dtd"
   xmlns:inkscape="http://www.inkscape.org/namespaces/inkscape"
   width="128"
   height="20"
   viewBox="0 0 128 20"
   id="svg4448"
   version="1.1"
   inkscape:version="0.91 r13725"
   inkscape:export-filename="/home/aleksander/Desktop/Cryptograffiti/Valmis/banner.png"
   inkscape:export-xdpi="180"
   inkscape:export-ydpi="180"
   sodipodi:docname="banner.svg">
  <defs
     id="defs4450" />
  <sodipodi:namedview
     id="base"
     pagecolor="#ffffff"
     bordercolor="#666666"
     borderopacity="1.0"
     inkscape:pageopacity="0.0"
     inkscape:pageshadow="2"
     inkscape:zoom="16"
     inkscape:cx="14.369699"
     inkscape:cy="9.0597249"
     inkscape:document-units="px"
     inkscape:current-layer="layer1"
     showgrid="true"
     units="px"
     inkscape:snap-grids="true"
     inkscape:snap-bbox="true"
     inkscape:object-paths="true"
     inkscape:snap-midpoints="true"
     inkscape:snap-smooth-nodes="true"
     inkscape:object-nodes="true"
     inkscape:snap-intersection-paths="true"
     showguides="true"
     inkscape:guide-bbox="true"
     inkscape:snap-nodes="true"
     inkscape:bbox-paths="false"
     inkscape:bbox-nodes="false"
     inkscape:snap-text-baseline="false"
     inkscape:snap-global="false"
     inkscape:window-width="1280"
     inkscape:window-height="966"
     inkscape:window-x="0"
     inkscape:window-y="0"
     inkscape:window-maximized="1">
    <inkscape:grid
       type="xygrid"
       id="grid4996" />
  </sodipodi:namedview>
  <metadata
     id="metadata4453">
    <rdf:RDF>
      <cc:Work
         rdf:about="">
        <dc:format>image/svg+xml</dc:format>
        <dc:type
           rdf:resource="http://purl.org/dc/dcmitype/StillImage" />
        <dc:title></dc:title>
      </cc:Work>
    </rdf:RDF>
  </metadata>
  <g
     inkscape:label="Layer 1"
     inkscape:groupmode="layer"
     id="layer1"
     transform="translate(0,-1032.3622)">
    <path
       style="opacity:1;fill:#58c057;fill-opacity:1;stroke:none;stroke-width:0.1;stroke-linecap:round;stroke-linejoin:round;stroke-miterlimit:4;stroke-dasharray:none;stroke-dashoffset:0;stroke-opacity:1"
       d="m 4,1041.3622 c 0,4 1,6 5,6 l 1.98808,0 6.523438,0 0,-2.5 c 0,-0.2761 -0.264162,-0.3563 -0.5,-0.5 -0.394388,-0.2403 -1.023438,-0.8987 -1.023438,-2 6.37e-4,-0.1674 0.02229,-0.3341 0.06445,-0.4961 0.229408,0.8812 1.025027,1.4961 1.935547,1.4961 1.104569,0 2,-0.8954 2,-2 0,-1.1046 -0.895431,-2 -2,-2 l -3.5,0 c 0,-2.2091 -1.488077,-3 -4.9790367,-3 -3.0008073,0 -5.5090403,1 -5.5090403,5 z"
       id="circle5398"
       inkscape:connector-curvature="0"
       sodipodi:nodetypes="ccccsscccssccc" />
    <path
       sodipodi:nodetypes="ccccsscccssccc"
       inkscape:connector-curvature="0"
       id="path6360"
       d="m 4,1024.4872 c 0,4 1,6 5,6 l 1.98808,0 6.523438,0 0,-2.5 c 0,-0.2761 -0.264162,-0.3563 -0.5,-0.5 -0.394388,-0.2403 -1.023438,-0.8987 -1.023438,-2 6.37e-4,-0.1674 0.02229,-0.3341 0.06445,-0.4961 0.229408,0.8812 1.025027,1.4961 1.935547,1.4961 1.104569,0 2,-0.8954 2,-2 0,-1.1046 -0.895431,-2 -2,-2 l -3.5,0 c 0,-2.2091 -1.488077,-3 -4.9790367,-3 -3.0008073,0 -5.5090403,1 -5.5090403,5 z"
       style="opacity:1;fill:#58c057;fill-opacity:1;stroke:none;stroke-width:0.1;stroke-linecap:round;stroke-linejoin:round;stroke-miterlimit:4;stroke-dasharray:none;stroke-dashoffset:0;stroke-opacity:1" />
    <path
       style="opacity:1;fill:#1b1d15;fill-opacity:1;stroke:none;stroke-width:0.1;stroke-linecap:round;stroke-linejoin:round;stroke-miterlimit:4;stroke-dasharray:none;stroke-dashoffset:0;stroke-opacity:1"
       d="m 9.48808,1044.8622 c -0.00219,-0.2761 0.2549892,-0.3726 0.5,-0.5 0.363622,-0.1891 1,-0.758 1,-2 0,-1.1046 -0.809493,-1.7578 -1.7265625,-1.7578 -0.5522847,0 -1.03125,0.4165 -1.03125,0.8594 0,0.6005 0.3811469,0.8595 0.7578125,0.8984 -0.3116738,-0.094 -0.4765625,-0.4081 -0.4765625,-0.6484 0,-0.3518 0.3357864,-0.6953 0.75,-0.6953 0.4950434,0 0.9770875,0.4033 0.9765625,1.0937 -4.75e-4,0.6239 -0.4619622,1.1515 -1.0800781,1.2363 -0.027229,0 -0.054587,0.01 -0.082031,0.01 l -0.00195,0 -0.085941,0 c -0.752888,10e-5 -1.4420507,-0.4226 -1.7832031,-1.0937 -0.029683,-0.059 -0.056409,-0.1199 -0.080078,-0.1817 -0.028343,-0.072 -0.052472,-0.1458 -0.072266,-0.2207 -0.042816,-0.1645 -0.064475,-0.3339 -0.064453,-0.5039 0,-1.1046 0.8954305,-2 2,-2 l 3.8691402,0 1.029297,0 0.601563,0 c 0,-2.2091 -1.48808,-2.9963 -4.9790397,-2.9963 -4.5090403,0 -5.4808125,2.2795 -5.5090403,5 0,5 2,6 5.5,6 z"
       id="path5425"
       inkscape:connector-curvature="0"
       sodipodi:nodetypes="cscsscsssccccccccsccccccc" />
    <path
       style="opacity:1;fill:#1b1d15;fill-opacity:1;stroke:none;stroke-width:0.35433072;stroke-linecap:round;stroke-linejoin:round;stroke-miterlimit:4;stroke-dasharray:none;stroke-dashoffset:0;stroke-opacity:1"
       d="m 14.48808,1039.3622 c 0.276142,0 0.5,0.4477 0.5,1 0,0.5523 -0.223858,1 -0.5,1 l -0.5,0 -0.291016,0 -0.708984,0 -1,0 c 0.324795,0.3898 2,0 2,1 0,1.2836 0.321993,1.699 0.5,1.8789 0.194246,0.1963 0.5,0.345 0.5,0.6211 l 0,2.5 2.523438,0 0,-2.5 c 0,-0.2761 -0.268144,-0.35 -0.5,-0.5 -0.265622,-0.1718 -1.023438,-0.7656 -1.023438,-2 6.37e-4,-0.1674 0.02229,-0.3341 0.06445,-0.4961 6.86e-4,0 0.0013,0.01 0.002,0.01 0.02588,0.093 0.05852,0.1848 0.09766,0.2735 0.009,0.021 0.01767,0.042 0.02734,0.062 0.04066,0.088 0.08766,0.1727 0.140625,0.2539 0.0062,0.01 0.01317,0.018 0.01953,0.027 0.04832,0.071 0.101161,0.1389 0.158204,0.2031 0.01416,0.016 0.02832,0.031 0.04297,0.047 0.06456,0.067 0.133736,0.1299 0.207032,0.1875 0.01391,0.011 0.02877,0.021 0.04297,0.031 0.07555,0.058 0.155181,0.1112 0.238282,0.1582 l 0.0078,0 c 0.0013,7e-4 0.0026,0 0.0039,0 0.08075,0.042 0.164274,0.079 0.25,0.1094 0.02485,0.01 0.04895,0.019 0.07422,0.027 0.0856,0.029 0.173037,0.052 0.261719,0.068 0.02194,0 0.04425,0.01 0.06641,0.01 0.09742,0.015 0.196137,0.023 0.294888,0.023 1.104569,0 2,-0.8954 2,-2 0,-1.1046 -0.895431,-2 -2,-2 l -3,0 -0.5,0 z"
       id="path5016"
       inkscape:connector-curvature="0"
       sodipodi:nodetypes="cssccccsssccssccccccccccccccccccsssccc" />
    <path
       style="opacity:1;fill:#1b1d15;fill-opacity:1;stroke:none;stroke-width:0.1;stroke-linecap:round;stroke-linejoin:round;stroke-miterlimit:4;stroke-dasharray:none;stroke-dashoffset:0;stroke-opacity:1"
       d="m 10.25,1044.8622 c -0.2761424,0 -0.5,0.1567 -0.5,0.35 l 0,2.15 0.5,0 0,-2.15 c -2e-4,-0.1252 0.09513,-0.2409 0.25,-0.3035 -0.07613,-0.03 -0.162347,-0.046 -0.25,-0.046 z"
       id="path5466"
       inkscape:connector-curvature="0"
       sodipodi:nodetypes="cscccccc" />
    <path
       style="opacity:1;fill:#1b1d15;fill-opacity:1;stroke:none;stroke-width:0.1;stroke-linecap:round;stroke-linejoin:round;stroke-miterlimit:4;stroke-dasharray:none;stroke-dashoffset:0;stroke-opacity:1"
       d="m 12,1044.8622 c -0.276142,0 -0.5,0.1567 -0.5,0.35 l 0,2.15 0.5,0 0,-2.15 c -2e-4,-0.1252 0.09513,-0.2409 0.25,-0.3035 -0.07613,-0.03 -0.162347,-0.046 -0.25,-0.046 z"
       id="path5468"
       inkscape:connector-curvature="0"
       sodipodi:nodetypes="cscccccc" />
    <path
       style="fill:#1b1d15;fill-opacity:1;fill-rule:evenodd;stroke:none;stroke-width:1.5;stroke-linecap:butt;stroke-linejoin:miter;stroke-miterlimit:4;stroke-dasharray:none;stroke-opacity:1"
       d="m 32.315982,1039.3635 0,5.3303 0,5.3303 c 0,0 0.799559,4e-4 2.665216,0 l 0,-2.665 c 3.997821,0 5.330438,-0.7998 5.330438,-3.998 0,-3.1983 -1.332617,-3.9976 -5.330438,-3.9976 z m 2.665216,2.665 c 1.332605,0 2.665214,0 2.665214,1.3326 0,1.3327 -1.332609,1.3327 -2.665213,1.3327 z"
       id="path4252-3-0-3"
       inkscape:connector-curvature="0"
       sodipodi:nodetypes="cccccssccscc"
       inkscape:export-xdpi="90"
       inkscape:export-ydpi="90" />
    <path
       style="fill:#1b1d15;fill-opacity:1;fill-rule:evenodd;stroke:none;stroke-width:1.5;stroke-linecap:butt;stroke-linejoin:miter;stroke-miterlimit:4;stroke-dasharray:none;stroke-opacity:1"
       d="m 41.910765,1042.0256 2.665212,0 0,2.6654 0,2.6672 c 1.865651,0 2.665231,0 2.665231,0 l 0,-2.664 0,-2.6651 2.665216,0 c 0,-1.8659 -0.0029,-2.6655 -0.0029,-2.6655 l -2.66361,0 0.0015,-2.664 -2.666719,0 -9.79e-4,2.6629 -2.659429,0 c 0,0 -0.0029,0.7996 -0.0029,2.6653 z"
       id="path4254-5-2-6"
       inkscape:connector-curvature="0"
       sodipodi:nodetypes="cccccccccccccccc"
       inkscape:export-xdpi="90"
       inkscape:export-ydpi="90" />
    <path
       style="fill:#1b1d15;fill-opacity:1;fill-rule:evenodd;stroke:none;stroke-width:1.5;stroke-linecap:butt;stroke-linejoin:miter;stroke-miterlimit:4;stroke-dasharray:none;stroke-opacity:1"
       d="m 51.505552,1043.3604 c -0.0015,2.6644 1.330512,3.9972 3.997824,3.9971 2.663136,10e-5 3.995743,-1.3327 3.997839,-3.9971 -0.0015,-2.6661 -1.334703,-3.9985 -3.997839,-3.9973 -2.667312,0 -3.99992,1.3312 -3.997824,3.9973 z m 3.997824,-1.3319 c 0.79747,0 1.330512,0.5315 1.332608,1.3319 0.0015,0.7989 -0.535138,1.3318 -1.332608,1.3318 -0.801661,10e-5 -1.330512,-0.5329 -1.332607,-1.3318 -0.0015,-0.8004 0.530946,-1.3304 1.332607,-1.3319 z"
       id="path4256-6-3-1"
       inkscape:connector-curvature="0"
       sodipodi:nodetypes="cccccsssss"
       inkscape:export-xdpi="90"
       inkscape:export-ydpi="90" />
    <path
       style="fill:#1b1d15;fill-opacity:1;fill-rule:evenodd;stroke:none;stroke-width:1.5;stroke-linecap:butt;stroke-linejoin:miter;stroke-miterlimit:4;stroke-dasharray:none;stroke-opacity:1"
       d="m 79.757146,1043.3602 c 0,2.6652 1.332318,3.9977 3.997839,3.9977 0.799244,0 1.332592,-0.1751 1.332592,-0.1751 l -5.19e-4,0.1751 2.66588,0 c -2.59e-4,-0.8001 -2.59e-4,-1.8661 0,-2.6652 l 0,-2.6655 c -2.59e-4,-0.7997 0,-1.8657 0,-2.6649 l -3.997824,0 c -2.665217,0 -3.997838,1.3325 -3.997838,3.9979 z m 2.665215,0 c 0,-1.0667 0.799579,-1.333 2.665216,-1.333 l 0,1.333 c 0,0.7991 -0.533348,1.3316 -1.333113,1.3316 -0.79935,0 -1.332103,-0.266 -1.332103,-1.3316 z"
       id="path4258-2-7-0"
       inkscape:connector-curvature="0"
       sodipodi:nodetypes="ssccccccssssccss"
       inkscape:export-xdpi="90"
       inkscape:export-ydpi="90" />
    <path
       style="fill:#1b1d15;fill-opacity:1;fill-rule:evenodd;stroke:none;stroke-width:1.5;stroke-linecap:butt;stroke-linejoin:miter;stroke-miterlimit:4;stroke-dasharray:none;stroke-opacity:1"
       d="m 21.281366,1050.0245 c 0,0 0,-1.8656 -0.0029,-2.6652 1.866824,0 3.495644,-1.1977 4.186198,-2.3893 -1.97185,-0.4477 -3.809193,-1.6085 -3.809193,-5.6064 l 2.665217,0 c 0,1.8656 0.476948,3.0198 2.332557,3.076 0.361449,-1.2329 0.332665,-2.5277 0.332665,-3.076 l 2.665217,0 c 0,5.2906 -1.937809,10.6609 -8.369395,10.6609 z"
       id="path4260-9-5-6"
       inkscape:connector-curvature="0"
       sodipodi:nodetypes="cccccccccc"
       inkscape:export-xdpi="90"
       inkscape:export-ydpi="90" />
    <path
       style="fill:#1b1d15;fill-opacity:1;fill-rule:evenodd;stroke:none;stroke-width:1.5;stroke-linecap:butt;stroke-linejoin:miter;stroke-miterlimit:4;stroke-dasharray:none;stroke-opacity:1"
       d="m 90.417994,1047.3579 2.665231,0 0,-2.6652 2.665216,0 0,-2.6655 -2.665216,0 c 0,-1.8655 0.799565,-2.665 2.665216,-2.665 l 0,-2.6651 c -3.997823,0 -5.330446,1.3325 -5.330446,5.3301 z"
       id="path4262-1-9-3"
       inkscape:connector-curvature="0"
       sodipodi:nodetypes="cccccccccc"
       inkscape:export-xdpi="90"
       inkscape:export-ydpi="90" />
    <path
       sodipodi:nodetypes="cccccccccc"
       inkscape:connector-curvature="0"
       id="path4264-2-2-2"
       d="m 98.414785,1047.3579 2.665195,0 0,-2.6652 2.66523,0 0,-2.6655 -2.66523,0 c 0,-1.8655 0.79957,-2.665 2.66523,-2.665 l 0,-2.6651 c -3.997827,0 -5.330425,1.3325 -5.330425,5.3301 z"
       style="fill:#1b1d15;fill-opacity:1;fill-rule:evenodd;stroke:none;stroke-width:1.5;stroke-linecap:butt;stroke-linejoin:miter;stroke-miterlimit:4;stroke-dasharray:none;stroke-opacity:1"
       inkscape:export-xdpi="90"
       inkscape:export-ydpi="90" />
    <path
       style="fill:#1b1d15;fill-opacity:1;fill-rule:evenodd;stroke:none;stroke-width:1.5;stroke-linecap:butt;stroke-linejoin:miter;stroke-miterlimit:4;stroke-dasharray:none;stroke-opacity:1"
       d="m 106.40955,1039.3622 0,7.9957 2.66523,0 0,-7.9957 z"
       id="path4538"
       inkscape:connector-curvature="0" />
    <path
       style="fill:#1b1d15;fill-opacity:1;fill-rule:evenodd;stroke:none;stroke-width:1.5;stroke-linecap:butt;stroke-linejoin:miter;stroke-miterlimit:4;stroke-dasharray:none;stroke-opacity:1"
       d="m 121.33479,1039.3622 0,7.9957 2.66521,0 0,-7.9957 z"
       id="path4266-7-2-0"
       inkscape:connector-curvature="0" />
    <path
       id="path4604-0-8-6"
       d="m 72.293487,1039.3631 c -2.59e-4,0.7981 0,3.33 5.33e-4,5.3268 l 7.54e-4,2.668 2.663147,0 -0.04885,-5.3307 c 0.456744,0 -0.05103,1.3298 1.683986,1.3317 0.79686,0 1.5481,-0.3911 1.548635,-1.8569 5.36e-4,-1.7724 -2.001217,-2.1395 -3.199299,-2.1384 -0.907811,0 -1.840094,0 -2.649128,0 z"
       style="fill:#1b1d15;fill-opacity:1;fill-rule:evenodd;stroke:none;stroke-width:1.5;stroke-linecap:butt;stroke-linejoin:miter;stroke-miterlimit:4;stroke-dasharray:none;stroke-opacity:1"
       inkscape:connector-curvature="0"
       inkscape:export-xdpi="90"
       inkscape:export-ydpi="90" />
    <path
       sodipodi:nodetypes="cccccccccccccccc"
       inkscape:connector-curvature="0"
       id="path4607-9-9-1"
       d="m 111.2075,1042.0256 2.66522,0 0,2.6654 0,2.6672 c 1.86563,0 2.6652,0 2.6652,0 l 0,-2.664 0,-2.6651 2.66524,0 c 0,-1.8659 -0.003,-2.6655 -0.003,-2.6655 l -2.66359,0 0.003,-2.664 -2.66673,0 -7.5e-4,2.6629 -2.65942,0 c 0,0 -0.003,0.7996 -0.003,2.6653 z"
       style="fill:#1b1d15;fill-opacity:1;fill-rule:evenodd;stroke:none;stroke-width:1.5;stroke-linecap:butt;stroke-linejoin:miter;stroke-miterlimit:4;stroke-dasharray:none;stroke-opacity:1"
       inkscape:export-xdpi="90"
       inkscape:export-ydpi="90" />
    <path
       style="fill:#1b1d15;fill-opacity:1;fill-rule:evenodd;stroke:none;stroke-width:1.5;stroke-linecap:butt;stroke-linejoin:miter;stroke-miterlimit:4;stroke-dasharray:none;stroke-opacity:1"
       d="m 61.633547,1043.3617 c 0,2.6655 1.332319,3.998 3.997839,3.998 -1.308207,0.015 -2.665159,0.7989 -2.664797,2.665 5.330084,0 6.662692,-1.3332 6.662749,-7.9955 -2.74e-4,-0.8 0,-1.8661 0,-2.6652 l -3.997823,0 c -2.66523,0 -3.997838,1.3325 -3.997838,3.9977 z m 2.665229,0 c 0,-1.0663 0.799551,-1.3325 2.665217,-1.3325 l 0,1.3325 c 0,0.7994 -0.533345,1.3316 -1.333128,1.3316 -0.799363,0 -1.332089,-0.2657 -1.332089,-1.3316 z"
       id="path4258-2-7-9-5"
       inkscape:connector-curvature="0"
       sodipodi:nodetypes="sccccssssccss"
       inkscape:export-xdpi="90"
       inkscape:export-ydpi="90" />
    <path
       style="opacity:1;fill:#1b1d15;fill-opacity:1;stroke:none;stroke-width:0.1;stroke-linecap:round;stroke-linejoin:round;stroke-miterlimit:4;stroke-dasharray:none;stroke-dashoffset:0;stroke-opacity:1"
       d="m 14,1044.8622 c -0.276142,0 -0.5,0.1567 -0.5,0.35 l 0,2.15 0.5,0 0,-2.15 c -2e-4,-0.1252 0.09513,-0.2409 0.25,-0.3035 -0.07613,-0.03 -0.162347,-0.046 -0.25,-0.046 z"
       id="path6315"
       inkscape:connector-curvature="0"
       sodipodi:nodetypes="cscccccc" />
  </g>
</svg>
